<svg width="24" height="24" viewBox="0 0 24 24" fill="none" xmlns="http://www.w3.org/2000/svg">
<path fill-rule="evenodd" clip-rule="evenodd" d="M10.4 9.27344C10.4 6.36566 12.6879 4 15.5 4C18.3121 4 20.6 6.36566 20.6 9.27344C20.6 12.1812 18.3121 14.5469 15.5 14.5469C12.6879 14.5469 10.4 12.1812 10.4 9.27344ZM16.6333 16C18.5981 16 20.4491 16.7799 21.8454 18.196C23.2348 19.6052 24 21.4654 24 23.434C24 23.7466 23.7463 24 23.4333 24H7.56667C7.25372 24 7 23.7466 7 23.434C7 21.4654 7.76519 19.6052 9.15462 18.196C10.5509 16.7799 12.4019 16 14.3667 16H16.6333Z" fill="black"/>
<path d="M10 6H6V10H4V6H0V4H4V0H6V4H10V6Z" fill="black"/>
</svg>
