<svg width="24" height="24" viewBox="0 0 24 24" fill="none" xmlns="http://www.w3.org/2000/svg">
<path d="M3.19305 7.93506V21.5015C3.19305 22.001 3.60924 22.3894 4.08092 22.3894H19.8913C20.3907 22.3894 20.7792 21.9732 20.7792 21.5015V7.93506H3.19305ZM16.4809 13.5119C16.4809 14.0114 16.0647 14.3998 15.5931 14.3998H8.37918C7.87976 14.3998 7.49132 13.9836 7.49132 13.5119V11.7085C7.49132 11.209 7.9075 10.8206 8.37918 10.8206H15.5931C16.0925 10.8206 16.4809 11.2368 16.4809 11.7085V13.5119Z" fill="black"/>
<path d="M21.0844 1.61035H2.88786C2.38844 1.61035 2 2.02654 2 2.49821V6.74214H22V2.52596C21.9723 2.02654 21.5838 1.61035 21.0844 1.61035Z" fill="black"/>
</svg>
