<svg width="24" height="24" viewBox="0 0 24 24" fill="none" xmlns="http://www.w3.org/2000/svg">
<g clip-path="url(#clip0_177_5515)">
<path d="M22.6072 3.39077C20.7501 1.53362 17.7283 1.53362 15.8712 3.39077L4.64447 14.6175C4.10465 15.1572 3.80737 15.875 3.80732 16.6383C3.80732 17.4017 4.10461 18.1194 4.64442 18.6592C5.75869 19.7735 7.57183 19.7735 8.6861 18.6592L17.6674 9.67777L16.3202 8.33057L7.33886 17.3119C6.96746 17.6833 6.3631 17.6834 5.99161 17.3119C5.81171 17.132 5.71257 16.8927 5.71257 16.6383C5.71257 16.3838 5.81171 16.1447 5.99166 15.9647L17.2184 4.73796C18.3327 3.62369 20.1457 3.62369 21.2601 4.73796C22.3744 5.85223 22.3744 7.66532 21.2601 8.77964L10.0332 20.0063C8.17614 21.8634 5.15442 21.8635 3.29718 20.0063C1.44008 18.1492 1.44008 15.1274 3.29718 13.2703L14.524 2.04348L13.1768 0.696289L1.94999 11.9231C-0.649995 14.5231 -0.649995 18.7536 1.94999 21.3536C3.24998 22.6535 4.95759 23.3035 6.66526 23.3035C8.37288 23.3035 10.0805 22.6535 11.3804 21.3535L22.6072 10.1267C24.4643 8.26963 24.4643 5.24787 22.6072 3.39077Z" fill="black"/>
</g>
<defs>
<clipPath id="clip0_177_5515">
<rect width="24" height="24" fill="white"/>
</clipPath>
</defs>
</svg>
