<svg width="24" height="24" viewBox="0 0 24 24" fill="none" xmlns="http://www.w3.org/2000/svg">
<path d="M20.6013 2H19.0001V4C19.0001 4.4 18.6138 5 18.0001 5C17.3864 5 17.0001 4.4 17.0001 4V2H7.00006V4C7.00006 4.4 6.70515 5 6.00006 5C5.29497 5 5.00006 4.4 5.00006 4V2H2.78199C1.75396 2 1.00006 2.86667 1.00006 4V6.4H22.9315V4C22.9315 2.86667 21.6979 2 20.6013 2ZM1.00006 7.8V20C1.00006 21.2 1.75396 22 2.85053 22H20.6698C21.7664 22 23.0001 21.1333 23.0001 20V7.8H1.00006ZM7.09975 19H5.45489C5.18075 19 4.9066 18.8 4.9066 18.4667V16.8C4.9066 16.5333 5.11221 16.2667 5.45489 16.2667H7.16829C7.44243 16.2667 7.71657 16.4667 7.71657 16.8V18.4667C7.64804 18.8 7.44243 19 7.09975 19ZM7.09975 13H5.45489C5.18075 13 4.9066 12.8 4.9066 12.4667V10.8C4.9066 10.5333 5.11221 10.2667 5.45489 10.2667H7.16829C7.44243 10.2667 7.71657 10.4667 7.71657 10.8V12.4667C7.64804 12.8 7.44243 13 7.09975 13ZM12.5826 19H10.8692C10.5951 19 10.3209 18.8 10.3209 18.4667V16.8C10.3209 16.5333 10.5265 16.2667 10.8692 16.2667H12.5826C12.8568 16.2667 13.1309 16.4667 13.1309 16.8V18.4667C13.1309 18.8 12.9253 19 12.5826 19ZM12.5826 13H10.8692C10.5951 13 10.3209 12.8 10.3209 12.4667V10.8C10.3209 10.5333 10.5265 10.2667 10.8692 10.2667H12.5826C12.8568 10.2667 13.1309 10.4667 13.1309 10.8V12.4667C13.1309 12.8 12.9253 13 12.5826 13ZM18.0655 19H16.3521C16.0779 19 15.8038 18.8 15.8038 18.4667V16.8C15.8038 16.5333 16.0094 16.2667 16.3521 16.2667H18.0655C18.3396 16.2667 18.6138 16.4667 18.6138 16.8V18.4667C18.6138 18.8 18.4082 19 18.0655 19ZM18.0655 13H16.3521C16.0779 13 15.8038 12.8 15.8038 12.4667V10.8C15.8038 10.5333 16.0094 10.2667 16.3521 10.2667H18.0655C18.3396 10.2667 18.6138 10.4667 18.6138 10.8V12.4667C18.6138 12.8 18.4082 13 18.0655 13Z" fill="black"/>
</svg>
