<svg width="60" height="60" viewBox="0 0 60 60" fill="none" xmlns="http://www.w3.org/2000/svg">
<g clip-path="url(#clip0_1939_33214)">
<path d="M50.6812 5.88704L9 6.12524L9.31274 60.0009L50.9939 59.7627L50.6812 5.88704Z" fill="#FDD500"/>
<path d="M13.416 56.6685L14.0397 56.6651L50 59.0001L47.5902 8.62109L45.882 9.10723L13.416 56.6685Z" fill="#D6B200"/>
<path d="M47.6239 8.47595L12.1465 8.81958L12.6405 56.6655L48.1179 56.3219L47.6239 8.47595Z" fill="white"/>
<path opacity="0.12" d="M37.9872 7.41603L21.7109 7.50684L21.7197 8.98679L37.996 8.89599L37.9872 7.41603Z" fill="black"/>
<path d="M34.6253 2.95866H34.3726V2.79482C34.3635 1.24405 32.862 -0.010053 31.0201 6.07444e-05L28.592 0.0135457C26.7501 0.0236594 25.2639 1.29462 25.273 2.84539V3.01058H25.0203C23.1784 3.02069 21.6922 4.28828 21.7012 5.84242L21.72 8.98509L37.9958 8.89474L37.9777 5.75207C37.9687 4.19928 36.4679 2.94787 34.6253 2.95866ZM31.9682 3.03822L27.6794 3.06182C27.468 3.06298 27.2648 2.98276 27.1145 2.8388C26.9642 2.69484 26.8791 2.49894 26.8779 2.29419C26.8767 2.08944 26.9595 1.89261 27.1081 1.74701C27.2567 1.60141 27.459 1.51896 27.6704 1.51779L31.9584 1.49419C32.1698 1.49294 32.3731 1.57308 32.5235 1.71698C32.6739 1.86087 32.7591 2.05674 32.7604 2.26149C32.7617 2.46624 32.6789 2.6631 32.5304 2.80877C32.3818 2.95443 32.1796 3.03697 31.9682 3.03822Z" fill="#999999"/>
<path opacity="0.32" d="M24.1676 45.3547L16.4002 45.3976C16.2934 45.3998 16.1917 45.4422 16.1166 45.5158C16.0416 45.5894 15.999 45.6884 15.998 45.7919L16.0423 53.3201C16.0446 53.4235 16.0884 53.522 16.1643 53.5947C16.2403 53.6674 16.3425 53.7086 16.4493 53.7096L24.2217 53.6667C24.2723 53.6676 24.3226 53.6586 24.3695 53.6403C24.4165 53.622 24.4592 53.5947 24.495 53.5601L24.5088 53.5477L24.5157 53.5401C24.5517 53.505 24.5799 53.4632 24.5985 53.4172C24.6171 53.3711 24.6257 53.3219 24.6238 53.2725L24.5796 45.7442C24.5773 45.64 24.5328 45.5408 24.4558 45.4679C24.3787 45.3951 24.2753 45.3545 24.1676 45.3547Z" fill="#16428B" fill-opacity="0.5"/>
<path d="M17.3097 48.4911L18.3954 48.051C18.494 48.0099 18.6017 48.0117 18.6993 48.0562C18.797 48.1007 18.8782 48.185 18.9288 48.2942L19.6283 49.7783C19.6587 49.8446 19.7008 49.9023 19.7515 49.9476C19.8023 49.9928 19.8606 50.0245 19.9225 50.0405C19.9844 50.0566 20.0484 50.0566 20.1103 50.0405C20.1722 50.0245 20.2305 49.9927 20.2812 49.9475L29.2842 42.1027C29.3338 42.0592 29.3903 42.0285 29.4504 42.0126C29.5104 41.9967 29.5725 41.9958 29.6328 42.0102C29.7169 42.0276 29.795 42.0736 29.8577 42.1427C29.9204 42.2119 29.965 42.3012 29.9862 42.3999C30.0073 42.4987 30.0042 42.6026 29.977 42.6992C29.9499 42.7958 29.8999 42.881 29.8331 42.9445L19.812 52.8721C19.7652 52.9202 19.7104 52.9561 19.6513 52.9774C19.5922 52.9987 19.53 53.0051 19.4687 52.996C19.4074 52.9869 19.3484 52.9626 19.2954 52.9246C19.2425 52.8867 19.1968 52.8359 19.1612 52.7756L17.0873 49.3105C17.0452 49.2428 17.0173 49.1641 17.0058 49.0809C16.9944 48.9977 16.9998 48.9125 17.0216 48.8323C17.0433 48.7521 17.0809 48.6793 17.131 48.62C17.1811 48.5606 17.2424 48.5164 17.3097 48.4911Z" fill="#49B812"/>
<path opacity="0.32" d="M24.1676 30.3547L16.4002 30.3976C16.2934 30.3998 16.1917 30.4422 16.1166 30.5158C16.0416 30.5894 15.999 30.6884 15.998 30.7919L16.0423 38.3201C16.0446 38.4235 16.0884 38.522 16.1643 38.5947C16.2403 38.6674 16.3425 38.7086 16.4493 38.7096L24.2217 38.6667C24.2723 38.6676 24.3226 38.6586 24.3695 38.6403C24.4165 38.622 24.4592 38.5947 24.495 38.5601L24.5088 38.5477L24.5157 38.5401C24.5517 38.505 24.5799 38.4632 24.5985 38.4172C24.6171 38.3711 24.6257 38.3219 24.6238 38.2725L24.5796 30.7442C24.5773 30.64 24.5328 30.5408 24.4558 30.4679C24.3787 30.3951 24.2753 30.3545 24.1676 30.3547Z" fill="#16428B" fill-opacity="0.5"/>
<path d="M17.3097 33.4911L18.3954 33.051C18.494 33.0099 18.6017 33.0117 18.6993 33.0562C18.797 33.1007 18.8782 33.185 18.9288 33.2942L19.6283 34.7783C19.6587 34.8446 19.7008 34.9023 19.7515 34.9476C19.8023 34.9928 19.8606 35.0245 19.9225 35.0405C19.9844 35.0566 20.0484 35.0566 20.1103 35.0405C20.1722 35.0245 20.2305 34.9927 20.2812 34.9475L29.2842 27.1027C29.3338 27.0592 29.3903 27.0285 29.4504 27.0126C29.5104 26.9967 29.5725 26.9958 29.6328 27.0102C29.7169 27.0276 29.795 27.0736 29.8577 27.1427C29.9204 27.2119 29.965 27.3012 29.9862 27.3999C30.0073 27.4987 30.0042 27.6026 29.977 27.6992C29.9499 27.7958 29.8999 27.881 29.8331 27.9445L19.812 37.8721C19.7652 37.9202 19.7104 37.9561 19.6513 37.9774C19.5922 37.9987 19.53 38.0051 19.4687 37.996C19.4074 37.9869 19.3484 37.9626 19.2954 37.9246C19.2425 37.8867 19.1968 37.8359 19.1612 37.7756L17.0873 34.3105C17.0452 34.2428 17.0173 34.1641 17.0058 34.0809C16.9944 33.9977 16.9998 33.9125 17.0216 33.8323C17.0433 33.7521 17.0809 33.6793 17.131 33.62C17.1811 33.5606 17.2424 33.5164 17.3097 33.4911Z" fill="#49B812"/>
<path opacity="0.32" d="M24.1676 16.3547L16.4002 16.3976C16.2934 16.3998 16.1917 16.4422 16.1166 16.5158C16.0416 16.5894 15.999 16.6884 15.998 16.7919L16.0423 24.3201C16.0446 24.4235 16.0884 24.522 16.1643 24.5947C16.2403 24.6674 16.3425 24.7086 16.4493 24.7096L24.2217 24.6667C24.2723 24.6676 24.3226 24.6586 24.3695 24.6403C24.4165 24.622 24.4592 24.5947 24.495 24.5601L24.5088 24.5477L24.5157 24.5401C24.5517 24.505 24.5799 24.4632 24.5985 24.4172C24.6171 24.3711 24.6257 24.3219 24.6238 24.2725L24.5796 16.7442C24.5773 16.64 24.5328 16.5408 24.4558 16.4679C24.3787 16.3951 24.2753 16.3545 24.1676 16.3547Z" fill="#16428B" fill-opacity="0.5"/>
<path d="M17.3097 19.4911L18.3954 19.051C18.494 19.0099 18.6017 19.0117 18.6993 19.0562C18.797 19.1007 18.8782 19.185 18.9288 19.2942L19.6283 20.7783C19.6587 20.8446 19.7008 20.9023 19.7515 20.9476C19.8023 20.9928 19.8606 21.0245 19.9225 21.0405C19.9844 21.0566 20.0484 21.0566 20.1103 21.0405C20.1722 21.0245 20.2305 20.9927 20.2812 20.9475L29.2842 13.1027C29.3338 13.0592 29.3903 13.0285 29.4504 13.0126C29.5104 12.9967 29.5725 12.9958 29.6328 13.0102C29.7169 13.0276 29.795 13.0736 29.8577 13.1427C29.9204 13.2119 29.965 13.3012 29.9862 13.3999C30.0073 13.4987 30.0042 13.6026 29.977 13.6992C29.9499 13.7958 29.8999 13.881 29.8331 13.9445L19.812 23.8721C19.7652 23.9202 19.7104 23.9561 19.6513 23.9774C19.5922 23.9987 19.53 24.0051 19.4687 23.996C19.4074 23.9869 19.3484 23.9626 19.2954 23.9246C19.2425 23.8867 19.1968 23.8359 19.1612 23.7756L17.0873 20.3105C17.0452 20.2428 17.0173 20.1641 17.0058 20.0809C16.9944 19.9977 16.9998 19.9125 17.0216 19.8323C17.0433 19.7521 17.0809 19.6793 17.131 19.62C17.1811 19.5606 17.2424 19.5164 17.3097 19.4911Z" fill="#49B812"/>
<path opacity="0.32" d="M44.741 48.2958L30.3301 48.3762L30.3459 51.0408L44.7568 50.9604L44.741 48.2958Z" fill="#16428B" fill-opacity="0.5"/>
<path opacity="0.32" d="M44.6804 33.0397L30.2695 33.1201L30.2854 35.7847L44.6963 35.7043L44.6804 33.0397Z" fill="#16428B" fill-opacity="0.5"/>
<path opacity="0.32" d="M44.6179 19.5568L30.207 19.6372L30.2229 22.3018L44.6338 22.2214L44.6179 19.5568Z" fill="#16428B" fill-opacity="0.5"/>
</g>
<defs>
<clipPath id="clip0_1939_33214">
<rect width="60" height="60" fill="white"/>
</clipPath>
</defs>
</svg>
