<svg width="24" height="24" viewBox="0 0 24 24" fill="none" xmlns="http://www.w3.org/2000/svg">
<path d="M24 5.68066V14.7583C24 15.1481 23.684 15.4642 23.2941 15.4642H22.2023V8.30475C22.2023 7.45844 21.5164 6.77252 20.67 6.77252H11.3844C11.3384 6.77252 11.2965 6.74652 11.2762 6.70514L10.3182 4.76202C10.0578 4.2345 9.53137 3.90747 8.9436 3.90747H6.41876V2.81525C6.41876 2.42542 6.7348 2.10938 7.12463 2.10938H12.1529C12.1996 2.10938 12.241 2.13519 12.2611 2.17676L13.2193 4.12024C13.4795 4.64722 14.0061 4.97479 14.5939 4.97479H23.2941C23.684 4.97479 24 5.29083 24 5.68066Z" fill="black"/>
<path d="M20.7905 8.30487V17.9679C20.7905 18.3577 20.4745 18.6738 20.0847 18.6738H18.993V11.5142C18.993 10.668 18.3069 9.98193 17.4608 9.98193H8.17511C8.12897 9.98193 8.08704 9.95612 8.06689 9.91473L7.1087 7.97162C6.8443 7.43604 6.31293 7.11707 5.73413 7.11707H3.20947V6.02521C3.20947 5.63538 3.52551 5.31934 3.91534 5.31934H8.9436C8.99011 5.31934 9.03149 5.34479 9.05182 5.38617L10.0098 7.32965C10.2702 7.85681 10.7966 8.18439 11.3844 8.18439H20.67C20.7363 8.18439 20.7905 8.23859 20.7905 8.30487Z" fill="black"/>
<path d="M17.4608 11.3937H8.17511C7.58734 11.3937 7.06073 11.0663 6.80054 10.5391C6.31769 9.55933 6.53027 9.99146 5.84235 8.59601C5.8222 8.55426 5.78064 8.52881 5.73413 8.52881H0.705872C0.31604 8.52881 0 8.84485 0 9.23468V21.1777C0 21.5676 0.31604 21.8836 0.705872 21.8836H16.8754C17.2652 21.8836 17.5812 21.5676 17.5812 21.1777V11.5142C17.5812 11.4479 17.527 11.3937 17.4608 11.3937ZM13.3176 19.5957C13.3176 19.9872 12.9987 20.3016 12.6118 20.3016C12.2254 20.3016 11.9059 19.9875 11.9059 19.5957C11.9059 19.3383 11.9059 19.3932 11.9059 19.1363C11.9059 18.7485 12.2206 18.4304 12.6118 18.4304C13.0023 18.4304 13.3176 18.7485 13.3176 19.1363V19.5957ZM15.6321 19.5957C15.6321 19.9872 15.3129 20.3016 14.9262 20.3016C14.5375 20.3016 14.2202 19.9863 14.2202 19.5957C14.2202 19.3383 14.2202 19.3932 14.2202 19.1363C14.2202 18.7481 14.5351 18.4304 14.9262 18.4304C15.3168 18.4304 15.6321 18.7485 15.6321 19.1363V19.5957Z" fill="black"/>
</svg>
