<svg width="24" height="24" viewBox="0 0 24 24" fill="none" xmlns="http://www.w3.org/2000/svg">
<path d="M14.25 0.439219V6.62109C14.25 6.69234 14.3077 6.75 14.3789 6.75H20.5608L14.25 0.439219ZM14.3789 8.25C13.4808 8.25 12.75 7.51922 12.75 6.62109V0H4.62891C3.73078 0 3 0.730781 3 1.62891V22.3711C3 23.2692 3.73078 24 4.62891 24H19.3711C20.2692 24 21 23.2692 21 22.3711V8.25H14.3789ZM15.75 17.625H8.25C7.83563 17.625 7.5 17.2894 7.5 16.875C7.5 16.4606 7.83563 16.125 8.25 16.125H15.75C16.1644 16.125 16.5 16.4606 16.5 16.875C16.5 17.2894 16.1644 17.625 15.75 17.625ZM15.75 14.625H8.25C7.83563 14.625 7.5 14.2894 7.5 13.875C7.5 13.4606 7.83563 13.125 8.25 13.125H15.75C16.1644 13.125 16.5 13.4606 16.5 13.875C16.5 14.2894 16.1644 14.625 15.75 14.625ZM15.75 11.625H8.25C7.83563 11.625 7.5 11.2894 7.5 10.875C7.5 10.4606 7.83563 10.125 8.25 10.125H15.75C16.1644 10.125 16.5 10.4606 16.5 10.875C16.5 11.2894 16.1644 11.625 15.75 11.625Z" fill="black"/>
</svg>
