<svg width="24" height="24" viewBox="0 0 24 24" fill="none" xmlns="http://www.w3.org/2000/svg">
<path d="M10.25 0.439219V6.62109C10.25 6.69234 10.3077 6.75 10.3789 6.75H16.5608L10.25 0.439219ZM10.3789 8.25C9.48078 8.25 8.75 7.51922 8.75 6.62109V0H4.62891C3.73078 0 3 0.730781 3 1.62891V18.3711C3 19.2692 3.73078 20 4.62891 20H15.3711C16.2692 20 17 19.2692 17 18.3711V8.25H10.3789ZM13.75 17.625H6.25C5.83562 17.625 5.5 17.2894 5.5 16.875C5.5 16.4606 5.83562 16.125 6.25 16.125H13.75C14.1644 16.125 14.5 16.4606 14.5 16.875C14.5 17.2894 14.1644 17.625 13.75 17.625ZM13.75 14.625H6.25C5.83562 14.625 5.5 14.2894 5.5 13.875C5.5 13.4606 5.83562 13.125 6.25 13.125H13.75C14.1644 13.125 14.5 13.4606 14.5 13.875C14.5 14.2894 14.1644 14.625 13.75 14.625ZM13.75 11.625H6.25C5.83562 11.625 5.5 11.2894 5.5 10.875C5.5 10.4606 5.83562 10.125 6.25 10.125H13.75C14.1644 10.125 14.5 10.4606 14.5 10.875C14.5 11.2894 14.1644 11.625 13.75 11.625Z" fill="black"/>
<path fill-rule="evenodd" clip-rule="evenodd" d="M20 13C20.5523 13 21 13.4477 21 14V23C21 23.5523 20.5523 24 20 24H9C8.44772 24 8 23.5523 8 23C8 22.4477 8.44772 22 9 22H19V14C19 13.4477 19.4477 13 20 13Z" fill="black"/>
</svg>
