<svg width="24" height="24" viewBox="0 0 24 24" fill="none" xmlns="http://www.w3.org/2000/svg">
<path d="M12 5C7.41454 5 3.25621 7.45504 0.187788 11.4427C-0.0625959 11.7694 -0.0625959 12.2258 0.187788 12.5525C3.25621 16.545 7.41454 19 12 19C16.5855 19 20.7438 16.545 23.8122 12.5573C24.0626 12.2306 24.0626 11.7742 23.8122 11.4475C20.7438 7.45505 16.5855 5 12 5ZM12.3289 16.9293C9.28506 17.1167 6.7714 14.6616 6.96287 11.6781C7.11998 9.21826 9.15741 7.22443 11.6711 7.07069C14.7149 6.88332 17.2286 9.33837 17.0371 12.3219C16.8751 14.7769 14.8377 16.7708 12.3289 16.9293ZM12.1767 14.652C10.537 14.7529 9.18196 13.4317 9.28997 11.827C9.37343 10.501 10.4732 9.42965 11.8282 9.34317C13.4679 9.24228 14.823 10.5635 14.7149 12.1682C14.6266 13.499 13.5268 14.5703 12.1767 14.652Z" fill="black"/>
</svg>
