<svg width="24" height="24" viewBox="0 0 24 24" fill="none" xmlns="http://www.w3.org/2000/svg">
<path fill-rule="evenodd" clip-rule="evenodd" d="M4 0C3.44772 0 3 0.447716 3 1V10.1707C1.83481 10.5825 1 11.6938 1 13C1 14.3062 1.83481 15.4175 3 15.8293V23C3 23.5523 3.44772 24 4 24C4.55228 24 5 23.5523 5 23V15.8293C6.16519 15.4175 7 14.3062 7 13C7 11.6938 6.16519 10.5825 5 10.1707V1C5 0.447715 4.55228 0 4 0ZM12 0C11.4477 0 11 0.447716 11 1V2.17071C9.83481 2.58254 9 3.69378 9 5C9 6.30622 9.83481 7.41746 11 7.82929V23C11 23.5523 11.4477 24 12 24C12.5523 24 13 23.5523 13 23V7.82929C14.1652 7.41746 15 6.30622 15 5C15 3.69378 14.1652 2.58254 13 2.17071V1C13 0.447715 12.5523 0 12 0ZM19 1C19 0.447716 19.4477 0 20 0C20.5523 0 21 0.447715 21 1V14.1707C22.1652 14.5825 23 15.6938 23 17C23 18.3062 22.1652 19.4175 21 19.8293V23C21 23.5523 20.5523 24 20 24C19.4477 24 19 23.5523 19 23V19.8293C17.8348 19.4175 17 18.3062 17 17C17 15.6938 17.8348 14.5825 19 14.1707V1Z" fill="black"/>
</svg>
