<svg width="24" height="24" viewBox="0 0 24 24" fill="none" xmlns="http://www.w3.org/2000/svg">
<path d="M21 20V2H3V20H0V22H24V20H21ZM10.5 3.99994L13.5 3.99989V6.99994L10.5 7V3.99994ZM10.5 8.99992L13.5 8.99986V11.9999L10.5 11.9999V8.99992ZM8.50004 11.9999H5.5V8.99992H8.50004V11.9999ZM8.50004 6.99994H5.5V3.99994H8.50004V6.99994ZM15 20H9V17C9 15.5 10 14 12 14C14 14 15 15.5 15 17V20ZM18.5 11.9999L15.5 12V8.99997L18.5 8.99992V11.9999ZM18.5 6.99994L15.5 7V4L18.5 3.99994V6.99994Z" fill="black"/>
</svg>
