<svg width="24" height="24" viewBox="0 0 24 24" fill="none" xmlns="http://www.w3.org/2000/svg">
<path fill-rule="evenodd" clip-rule="evenodd" d="M2.56549 13.2415H0.413818C0.185486 13.2407 0.000732422 13.0558 0 12.8276V11.1724C0.000732422 10.9442 0.185486 10.7593 0.413818 10.7585H2.56549C3.13092 6.48981 6.48981 3.13092 10.7585 2.56549V0.413818C10.7593 0.185486 10.9442 0.000732422 11.1724 0H12.8276C13.0558 0.000732422 13.2407 0.185486 13.2415 0.413818V2.56549C17.5102 3.13092 20.8691 6.48981 21.4345 10.7585H23.5862C23.8145 10.7593 23.9993 10.9442 24 11.1724V12.8276C23.9993 13.0558 23.8145 13.2407 23.5862 13.2415H21.4345C20.8691 17.5102 17.5102 20.8691 13.2415 21.4345V23.5862C13.2407 23.8145 13.0558 23.9993 12.8276 24H11.1724C10.9442 23.9993 10.7593 23.8145 10.7585 23.5862V21.4345C6.48981 20.8691 3.13092 17.5102 2.56549 13.2415ZM19.0345 12C19.0345 8.11505 15.8849 4.96545 12 4.96545C8.11725 4.97095 4.97095 8.11725 4.96545 12C4.96545 15.8849 8.11505 19.0345 12 19.0345C15.8849 19.0345 19.0345 15.8849 19.0345 12ZM12 15.3104C13.8283 15.3104 15.3104 13.8284 15.3104 12.0001C15.3104 10.1718 13.8283 8.6897 12 8.6897C10.1717 8.6897 8.68964 10.1718 8.68964 12.0001C8.68964 13.8284 10.1717 15.3104 12 15.3104Z" fill="black"/>
</svg>
