<svg width="24" height="24" viewBox="0 0 24 24" fill="none" xmlns="http://www.w3.org/2000/svg">
<path fill-rule="evenodd" clip-rule="evenodd" d="M12 24C18.6274 24 24 18.6274 24 12C24 5.37258 18.6274 0 12 0C5.37258 0 0 5.37258 0 12C0 18.6274 5.37258 24 12 24ZM11.9701 6.24253C12.1041 5.70673 11.7783 5.1638 11.2425 5.02985C10.7067 4.8959 10.1638 5.22166 10.0299 5.75746L9.46922 7.99999H7C6.44772 7.99999 6 8.44771 6 8.99999C6 9.55228 6.44772 9.99999 7 9.99999H8.96922L7.96922 14H6C5.44772 14 5 14.4477 5 15C5 15.5523 5.44772 16 6 16H7.46922L7.02986 17.7575C6.89591 18.2933 7.22167 18.8362 7.75746 18.9701C8.29326 19.1041 8.83619 18.7783 8.97014 18.2425L9.53078 16H12.4692L12.0299 17.7575C11.8959 18.2933 12.2217 18.8362 12.7575 18.9701C13.2933 19.1041 13.8362 18.7783 13.9701 18.2425L14.5308 16H17C17.5523 16 18 15.5523 18 15C18 14.4477 17.5523 14 17 14H15.0308L16.0308 9.99999H18C18.5523 9.99999 19 9.55228 19 8.99999C19 8.44771 18.5523 7.99999 18 7.99999H16.5308L16.9701 6.24253C17.1041 5.70673 16.7783 5.1638 16.2425 5.02985C15.7067 4.8959 15.1638 5.22166 15.0299 5.75746L14.4692 7.99999H11.5308L11.9701 6.24253ZM10.0308 14L11.0308 9.99999H13.9692L12.9692 14H10.0308Z" fill="black"/>
</svg>
