<svg width="60" height="60" viewBox="0 0 60 60" fill="none" xmlns="http://www.w3.org/2000/svg">
<path d="M47 28.1421C47 18.6745 39.3889 11 29.9996 11C20.6103 11 12.9675 18.7335 13.0001 28.2019C13.0108 32.719 14.7951 37.048 17.9628 40.2421C20.3475 42.6358 22.0696 45.6169 22.9581 48.8894L24.3282 54H35.4725L36.7706 49.1579C37.6814 45.818 39.4581 42.7831 41.9179 40.3651C43.5297 38.7718 44.8095 36.8697 45.6822 34.7708C46.5549 32.6718 47.003 30.4181 47 28.1421Z" fill="#FDD500"/>
<path d="M32.6171 60H27.3183C25.8171 60 24.5328 58.8934 24.4474 57.4927L24 52.0761L36 52L35.4881 57.4927C35.4027 58.8934 34.1184 60 32.6171 60Z" fill="#595959"/>
<path d="M34.6932 54.0005C31.2081 54.2348 27.7073 53.954 24.2212 54.1965C23.9119 54.217 23.9355 54.928 24.2387 54.9445C27.7282 55.1267 31.2255 54.7869 34.715 54.9609C35.1071 54.9829 35.0897 53.9731 34.6932 54.0005Z" fill="#999999"/>
<path d="M32 1.97858C32 3.07112 31.3285 7 30.4995 7C29.6705 7 29 3.07112 29 1.97858C29 0.886033 29.6715 0 30.4995 0C31.3275 0 32 0.886033 32 1.97858Z" fill="#FDD500"/>
<path d="M47.7007 7.76929C46.9591 8.62667 44.6331 12.2398 45.0495 12.894C45.4659 13.5481 48.473 10.9966 49.2146 10.1392C49.9562 9.28183 50.2193 8.05612 49.8013 7.40096C49.3833 6.7458 48.4439 6.91088 47.7007 7.76929Z" fill="#FDD500"/>
<path d="M54.1779 25.9368C53.0865 26.0927 49.0877 26.0007 49.0014 25.1971C48.9152 24.3935 52.7613 23.1833 53.8526 23.0274C54.944 22.8715 55.9025 23.3972 55.9931 24.1999C56.0837 25.0025 55.2693 25.7809 54.1779 25.9368Z" fill="#FDD500"/>
<path d="M14.2179 6.5924C14.9626 7.29622 17.3456 10.3058 16.9576 10.895C16.5696 11.4842 13.5745 9.43275 12.8269 8.72803C12.0792 8.02332 11.7843 6.97475 12.1686 6.38823C12.5528 5.80172 13.4703 5.88768 14.2179 6.5924Z" fill="#FDD500"/>
<path d="M5.81956 22.9368C6.91147 23.0927 10.9123 23.0007 10.9986 22.1971C11.0849 21.3935 7.23775 20.1833 6.14584 20.0274C5.05393 19.8715 4.09754 20.3972 4.00691 21.2008C3.91628 22.0044 4.72766 22.7819 5.81956 22.9368Z" fill="#FDD500"/>
<path d="M37.7226 36.6268C37.1671 36.2252 36.7139 35.7055 36.3978 35.1077C37.037 34.343 37.3184 33.315 37.4359 32.3587C37.5004 31.7747 37.5343 31.1879 37.5374 30.6006C37.5463 30.0335 37.4697 29.5527 36.9747 29.1997C36.5296 28.8847 35.9438 29.1687 35.6046 29.4742C35.2137 29.8263 35.025 30.4029 34.8736 30.8837C34.5691 31.8529 34.5745 32.893 34.7659 33.8812C34.8338 34.2262 34.933 34.5647 35.0624 34.8928C34.8092 35.0861 34.5225 35.234 34.2157 35.3295C33.2533 35.6282 32.5241 35.0904 32.079 34.2938C32.0048 34.1626 31.9353 34.0248 31.8706 33.8804C31.9463 33.6836 32.0184 33.4868 32.0861 33.2926C32.405 32.3433 32.6032 31.3599 32.6764 30.3641C32.744 29.5415 32.7654 28.5593 31.9517 28.0717C31.6899 27.9146 31.3943 28.0337 31.2296 28.2555C30.0366 29.8591 30.1043 31.9867 30.7515 33.807C30.5418 34.2907 30.2997 34.7607 30.0268 35.2139C29.7277 35.7127 29.157 36.4826 28.4644 36.3851C27.8189 36.2945 27.307 35.5099 26.9829 35.024C26.7511 34.6694 26.5617 34.2903 26.4185 33.8942C26.5004 33.6853 26.5763 33.4738 26.6464 33.2598C26.9113 32.4167 27.0765 31.5471 27.1387 30.6679C27.1984 29.9351 27.2224 28.9054 26.3962 28.555C26.1558 28.4531 25.8006 28.4635 25.6733 28.7388C24.9511 30.2908 24.8082 32.038 25.2691 33.681C25.2851 33.7371 25.3029 33.7932 25.3207 33.8493C24.8105 35.0889 24.0686 36.2265 23.1324 37.2051C22.7166 37.6427 23.3745 38.2874 23.8072 37.8593C24.6275 37.0466 25.3178 36.1194 25.8549 35.1086C26.0135 35.3975 26.192 35.6758 26.3891 35.9415C26.9286 36.6656 27.6052 37.3449 28.5765 37.3949C29.4838 37.4424 30.2209 36.7045 30.7133 36.0606C30.9493 35.7466 31.1577 35.414 31.3365 35.0663C31.7816 35.7524 32.4217 36.2971 33.2951 36.4153C34.0964 36.5241 34.8763 36.2824 35.5342 35.8552C35.92 36.4921 36.4154 37.0605 36.9988 37.5356C37.662 38.0733 38.4197 37.1213 37.7226 36.6268ZM31.6534 29.5027C31.6908 29.9118 31.5938 30.4167 31.5697 30.6653C31.5248 31.1185 31.4471 31.5682 31.3374 32.0109C31.227 31.1383 31.3009 30.2441 31.6534 29.5027ZM35.7746 32.0765C35.816 31.6511 35.9151 31.2329 36.0693 30.8327C36.1342 30.6512 36.2202 30.4775 36.3257 30.3149C36.3512 30.2799 36.3788 30.2465 36.4085 30.2147C36.419 30.2555 36.4258 30.2971 36.429 30.339C36.4851 31.3748 36.3969 32.4968 36.0639 33.4816C36.0228 33.6036 35.9737 33.7229 35.917 33.8389C35.7776 33.2619 35.7295 32.6676 35.7746 32.0765Z" fill="white"/>
<path d="M38.1974 34.3048C36.5791 39.9898 34.8691 45.6474 33.0343 51.2474C32.8146 51.9176 33.7139 52.3283 33.932 51.6582C35.7599 46.0502 37.4568 40.3909 38.9787 34.6616C39.1367 34.072 38.3677 33.7091 38.1974 34.3048Z" fill="white"/>
<path d="M22.0162 33.5374C23.4373 39.1896 24.7637 44.8685 25.9446 50.5777C26.0858 51.2615 27.1288 51.0577 26.9867 50.3757C25.7957 44.6631 24.4592 38.9875 22.9264 33.3604C22.7666 32.7802 21.8691 32.9451 22.0162 33.5374Z" fill="white"/>
</svg>
