<svg width="24" height="24" viewBox="0 0 24 24" fill="none" xmlns="http://www.w3.org/2000/svg">
<g clip-path="url(#clip0_293_18086)">
<path fill-rule="evenodd" clip-rule="evenodd" d="M6.49948 1.03027H21.4999C22.8779 1.03027 24 2.15237 24 3.53046V14.5306C24 15.9087 22.8779 17.0308 21.4999 17.0308H6.49948C5.12158 17.0308 3.99948 15.9087 3.99948 14.5306V3.53046C3.99948 2.15237 5.12158 1.03027 6.49948 1.03027ZM21.4999 3.03038H6.49948C6.22354 3.03038 5.99959 3.25433 5.99959 3.53046V12.9696L8.75961 10.2105C9.44261 9.52657 10.5557 9.52657 11.2396 10.2105L12.4496 11.4175L16.1638 6.95955C16.4958 6.56147 16.9818 6.33149 17.4998 6.32856C18.0208 6.34046 18.5058 6.55049 18.8409 6.94344L21.9999 10.6296V3.53046C21.9999 3.25433 21.776 3.03038 21.4999 3.03038ZM8.99966 8.03074C10.1027 8.03074 10.9996 7.13368 10.9996 6.03063C10.9996 4.92757 10.1027 4.03052 8.99966 4.03052C7.89661 4.03052 6.99956 4.92757 6.99956 6.03063C6.99956 7.13368 7.89661 8.03074 8.99966 8.03074ZM6.24955 18.531C4.64862 18.531 3.22457 17.506 2.70747 15.9799L2.6725 15.8649C2.55055 15.4608 2.49946 15.121 2.49946 14.7809V7.96265L0.0734335 16.0609C-0.238586 17.252 0.47243 18.4869 1.66539 18.8159L17.1288 22.9572C17.3218 23.0071 17.5148 23.0311 17.7049 23.0311C18.7008 23.0311 19.6109 22.3701 19.866 21.396L20.7669 18.531H6.24955Z" fill="black"/>
</g>
<defs>
<clipPath id="clip0_293_18086">
<rect width="24" height="24" fill="white"/>
</clipPath>
</defs>
</svg>
