<svg width="60" height="60" viewBox="0 0 60 60" fill="none" xmlns="http://www.w3.org/2000/svg">
<path d="M16 42C24.2843 42 31 35.2843 31 27C31 18.7157 24.2843 12 16 12C7.71573 12 1 18.7157 1 27C1 35.2843 7.71573 42 16 42Z" fill="#E2BB00"/>
<path d="M28.9995 27C28.9995 19.8203 23.1792 14 15.9995 14C8.81981 14 2.99951 19.8203 2.99951 27C2.99951 34.1797 8.81981 40 15.9995 40C23.1792 40 28.9995 34.1797 28.9995 27Z" fill="#FDD500"/>
<path d="M20.0653 31.8366C19.9289 31.9152 19.7944 31.9841 19.6619 32.0432C19.1538 32.2967 18.5358 32.4238 17.8079 32.4244C16.4 32.4244 15.3367 32.0225 14.3699 30.9615C14.0016 30.5614 13.6943 30.1065 13.4584 29.6122H17.2713V27.7267H12.9452C12.9243 27.509 12.9117 27.2861 12.9117 27.0572C12.9119 26.7955 12.9267 26.5341 12.9561 26.2741H17.2679V24.3878H13.4945C13.7251 23.9175 14.0192 23.483 14.3682 23.097C15.3326 22.0119 16.3933 21.5971 17.8012 21.5971C18.3693 21.5978 18.9326 21.7036 19.4641 21.9095L20.2917 20.0464C19.4582 19.6833 18.8184 19.5 17.9438 19.5C15.6906 19.5 13.9791 20.2745 12.5595 22.067C12.0067 22.7618 11.5721 23.5473 11.274 24.3904H9.50049V26.2741H10.8648C10.8405 26.5375 10.8271 26.8042 10.8271 27.077C10.8271 27.2973 10.8363 27.5133 10.8522 27.7267H9.50049V29.613H11.2136C11.5614 30.668 12.1344 31.63 12.8907 32.4287C14.2751 33.8959 15.8206 34.5 17.7777 34.5C18.7126 34.5008 19.6382 34.3103 20.5005 33.9398L20.0653 31.8366Z" fill="#E2BB00"/>
<path d="M37 30C45.2843 30 52 23.2843 52 15C52 6.71573 45.2843 0 37 0C28.7157 0 22 6.71573 22 15C22 23.2843 28.7157 30 37 30Z" fill="#E2BB00"/>
<path d="M49.9995 15C49.9995 7.8203 44.1792 2 36.9995 2C29.8198 2 23.9995 7.8203 23.9995 15C23.9995 22.1797 29.8198 28 36.9995 28C44.1792 28 49.9995 22.1797 49.9995 15Z" fill="#FDD500"/>
<path d="M41.0653 19.8366C40.9289 19.9152 40.7944 19.9841 40.6619 20.0432C40.1538 20.2967 39.5358 20.4238 38.8079 20.4244C37.4 20.4244 36.3367 20.0225 35.3699 18.9615C35.0016 18.5614 34.6943 18.1065 34.4584 17.6122H38.2713V15.7267H33.9452C33.9243 15.509 33.9117 15.2861 33.9117 15.0572C33.9119 14.7955 33.9267 14.5341 33.9561 14.2741H38.2679V12.3878H34.4945C34.7251 11.9175 35.0192 11.483 35.3682 11.097C36.3326 10.0119 37.3933 9.59712 38.8012 9.59712C39.3693 9.59783 39.9326 9.70365 40.4641 9.9095L41.2917 8.04644C40.4582 7.68329 39.8184 7.5 38.9438 7.5C36.6906 7.5 34.9791 8.27448 33.5595 10.067C33.0067 10.7618 32.5721 11.5473 32.274 12.3904H30.5005V14.2741H31.8648C31.8405 14.5375 31.8271 14.8042 31.8271 15.077C31.8271 15.2973 31.8363 15.5133 31.8522 15.7267H30.5005V17.613H32.2136C32.5614 18.668 33.1344 19.63 33.8907 20.4287C35.2751 21.8959 36.8206 22.5 38.7777 22.5C39.7126 22.5008 40.6382 22.3103 41.5005 21.9398L41.0653 19.8366Z" fill="#E2BB00"/>
<path d="M39 60C50.0457 60 59 51.0457 59 40C59 28.9543 50.0457 20 39 20C27.9543 20 19 28.9543 19 40C19 51.0457 27.9543 60 39 60Z" fill="#E2BB00"/>
<path d="M56.3333 39.9999C56.3333 30.427 48.5729 22.6666 39 22.6666C29.427 22.6666 21.6666 30.427 21.6666 39.9999C21.6666 49.5729 29.427 57.3333 39 57.3333C48.5729 57.3333 56.3333 49.5729 56.3333 39.9999Z" fill="#FDD500"/>
<path d="M45.4074 46.4489C45.2216 46.5536 45.0386 46.6454 44.8582 46.7242C44.1662 47.0623 43.3247 47.2317 42.3335 47.2325C40.4164 47.2325 37.9472 46.6967 36.6307 45.282C36.1291 44.7485 35.7107 44.142 35.3895 43.4829H41.6028V40.969H34.6907C34.6622 40.6787 34.645 40.3815 34.645 40.0763C34.6453 39.7274 34.6655 39.3788 34.7055 39.0322H41.5982V36.5171H35.4386C35.7526 35.89 36.1532 35.3106 36.6284 34.7961C37.9415 33.3492 40.4072 32.7962 42.3244 32.7962C43.0979 32.7971 43.865 32.9382 44.5887 33.2127L45.7157 30.7286C44.5807 30.2444 43.7095 30 42.5185 30C39.4504 30 36.0986 31.0326 34.1655 33.4226C33.4127 34.349 32.821 35.3964 32.415 36.5206H30V39.0322H31.8578C31.8247 39.3833 31.8064 39.739 31.8064 40.1027C31.8064 40.3964 31.819 40.6844 31.8407 40.969H30V43.484H32.3328C32.8063 44.8907 33.5866 46.1733 34.6165 47.2383C36.5017 49.1945 39.6274 50 42.2924 50C43.5654 50.001 44.8258 49.7471 46 49.2531L45.4074 46.4489Z" fill="#E2BB00"/>
</svg>
