<svg width="24" height="24" viewBox="0 0 24 24" fill="none" xmlns="http://www.w3.org/2000/svg">
<g clip-path="url(#clip0_200_8162)">
<path fill-rule="evenodd" clip-rule="evenodd" d="M0.356391 0.091146C0.5775 -0.0338227 0.847312 -0.0297446 1.065 0.100052L7.07812 3.67994V19.4291L0.34125 15.4151C0.129797 15.2881 0 15.0594 0 14.8123V0.702911C0 0.449552 0.135938 0.216068 0.356391 0.091146ZM14.1562 16.2188C14.1562 13.5051 16.3645 11.2969 19.0781 11.2969C21.7918 11.2969 24 13.5051 24 16.2188C24 17.1725 23.7261 18.0974 23.2076 18.8939L19.6412 23.7178C19.5087 23.895 19.2999 24 19.0788 24H19.0781C18.857 24 18.6483 23.8956 18.5158 23.7185L15.088 19.0972C14.4756 18.2464 14.1562 17.2549 14.1562 16.2188ZM16.9688 16.2188C16.9688 17.3819 17.915 18.3281 19.0781 18.3281C20.2413 18.3281 21.1875 17.3819 21.1875 16.2188C21.1875 15.0556 20.2413 14.1094 19.0781 14.1094C17.915 14.1094 16.9688 15.0556 16.9688 16.2188ZM22.2525 4.31892L15.5625 0.304688V10.9618C16.569 10.2865 17.7777 9.89053 19.0781 9.89053C20.3785 9.89053 21.5873 10.2865 22.5938 10.9618V4.92178C22.5938 4.67461 22.464 4.44595 22.2525 4.31892ZM8.48438 3.67997L14.1562 0.304688V12.2902C13.29 13.373 12.75 14.7272 12.75 16.2186C12.75 16.398 12.7691 16.5744 12.7883 16.7509C12.7925 16.7898 12.7967 16.8287 12.8007 16.8676L8.48438 19.4292V3.67997Z" fill="black"/>
</g>
<defs>
<clipPath id="clip0_200_8162">
<rect width="24" height="24" fill="white"/>
</clipPath>
</defs>
</svg>
