<svg width="100" height="100" viewBox="0 0 100 100" fill="none" xmlns="http://www.w3.org/2000/svg">
<rect width="100" height="100" rx="10" fill="white"/>
<path d="M50 20C41.2767 20 34.1797 27.097 34.1797 35.8203C34.1797 44.5436 41.2767 51.6406 50 51.6406C58.7233 51.6406 65.8203 44.5436 65.8203 35.8203C65.8203 27.097 58.7233 20 50 20Z" fill="#16428B" fill-opacity="0.1"/>
<path d="M69.6835 61.976C65.3523 57.5782 59.6104 55.1562 53.5156 55.1562H46.4844C40.3897 55.1562 34.6477 57.5782 30.3165 61.976C26.0064 66.3522 23.6328 72.1289 23.6328 78.2422C23.6328 79.213 24.4198 80 25.3906 80H74.6094C75.5802 80 76.3672 79.213 76.3672 78.2422C76.3672 72.1289 73.9936 66.3522 69.6835 61.976Z" fill="#16428B" fill-opacity="0.1"/>
</svg>
