<svg width="24" height="24" viewBox="0 0 24 24" fill="none" xmlns="http://www.w3.org/2000/svg">
<path d="M12.0001 1C10.0109 1 8.10328 1.79018 6.69676 3.1967C5.29024 4.60322 4.50006 6.51088 4.50006 8.5V14.35L2.84006 16.85C2.64109 17.1568 2.52824 17.5114 2.5133 17.8767C2.49836 18.2421 2.5819 18.6047 2.75516 18.9267C2.92842 19.2487 3.18505 19.5182 3.49818 19.707C3.8113 19.8959 4.16942 19.997 4.53506 20H19.4651C19.8331 19.9988 20.1939 19.898 20.5093 19.7085C20.8247 19.5189 21.0829 19.2475 21.2567 18.9231C21.4304 18.5987 21.5131 18.2333 21.4961 17.8657C21.4791 17.4981 21.363 17.142 21.1601 16.835L19.5001 14.35V8.5C19.5001 6.51088 18.7099 4.60322 17.3034 3.1967C15.8968 1.79018 13.9892 1 12.0001 1Z" fill="black"/>
<path d="M11.9999 23C12.6197 22.9993 13.2241 22.8066 13.7299 22.4485C14.2358 22.0904 14.6183 21.5844 14.8249 21H9.17493C9.38153 21.5844 9.76404 22.0904 10.2699 22.4485C10.7758 22.8066 11.3801 22.9993 11.9999 23Z" fill="black"/>
</svg>
