<svg width="24" height="24" viewBox="0 0 24 24" fill="none" xmlns="http://www.w3.org/2000/svg">
<path d="M21.3404 11.3864C21.0222 11.0682 20.6359 10.9092 20.1812 10.9092H19.6361V7.63628C19.6361 5.5454 18.8863 3.75011 17.3862 2.2501C15.8863 0.750034 14.0911 0 12 0C9.90885 0 8.11338 0.750034 6.61355 2.25004C5.11348 3.75011 4.36369 5.54534 4.36369 7.63628V10.9092H3.81831C3.36392 10.9092 2.97747 11.0682 2.65926 11.3864C2.34105 11.7044 2.18201 12.0908 2.18201 12.5456V22.3637C2.18201 22.8181 2.34111 23.2047 2.65926 23.5229C2.97747 23.8408 3.36392 24 3.81831 24H20.1816C20.6364 24 21.0225 23.841 21.3408 23.5229C21.6588 23.2047 21.8181 22.8181 21.8181 22.3637V12.5454C21.8183 12.091 21.6588 11.7046 21.3404 11.3864ZM16.3635 10.9092H7.63642V7.63628C7.63642 6.43179 8.06263 5.40331 8.91488 4.55119C9.76724 3.69894 10.7955 3.27291 12.0001 3.27291C13.2049 3.27291 14.2329 3.69888 15.0854 4.55119C15.9374 5.40325 16.3635 6.43179 16.3635 7.63628V10.9092Z" fill="black"/>
</svg>
