<svg width="24" height="24" viewBox="0 0 24 24" fill="none" xmlns="http://www.w3.org/2000/svg">
<path d="M11.1733 1.21464C11.5702 0.631509 12.4298 0.631508 12.8267 1.21463L15.0588 4.49426C15.2602 4.79009 15.6042 4.95578 15.9611 4.92875L19.9169 4.6291C20.6203 4.57582 21.1562 5.2479 20.9478 5.92177L19.7754 9.71175C19.6696 10.0536 19.7546 10.4259 19.9982 10.688L22.6989 13.594C23.1791 14.1107 22.9878 14.9488 22.331 15.2059L18.6369 16.6523C18.3037 16.7828 18.0656 17.0814 18.0125 17.4353L17.4244 21.3586C17.3198 22.0562 16.5454 22.4291 15.9348 22.076L12.5007 20.0896C12.1909 19.9104 11.8091 19.9104 11.4993 20.0896L8.06523 22.076C7.45464 22.4291 6.68015 22.0562 6.57558 21.3586L5.98746 17.4353C5.93442 17.0814 5.69631 16.7828 5.3631 16.6523L1.669 15.2059C1.01218 14.9488 0.820898 14.1107 1.30109 13.594L4.00179 10.688C4.2454 10.4259 4.33037 10.0536 4.22462 9.71175L3.05223 5.92177C2.84377 5.2479 3.37974 4.57582 4.0831 4.6291L8.03893 4.92875C8.39575 4.95578 8.73982 4.79009 8.94116 4.49426L11.1733 1.21464Z" fill="black"/>
</svg>
