<svg width="24" height="24" viewBox="0 0 24 24" fill="none" xmlns="http://www.w3.org/2000/svg">
<path fill-rule="evenodd" clip-rule="evenodd" d="M23 12C23 14.9381 21.8558 17.7006 19.7781 19.7781C17.7006 21.8558 14.9381 23 12 23C9.06188 23 6.29939 21.8558 4.22185 19.7781C2.14418 17.7006 1 14.9381 1 12C1 9.06188 2.14418 6.29939 4.22185 4.22185C6.29939 2.14418 9.06188 1 12 1C14.9381 1 17.7006 2.14418 19.7781 4.22185C21.8558 6.29939 23 9.06188 23 12ZM11.1406 16.5547V18.2735H12.8594V16.5547H11.1406ZM15.6067 9.63794C15.6724 11.3427 14.5211 12.8503 12.8594 13.2523V14.836H11.1406V13.1677C11.1406 12.4041 11.6644 11.7558 12.4146 11.5911C13.3037 11.396 13.9237 10.6023 13.8893 9.70401C13.8522 8.74003 13.0553 7.95625 12.0749 7.91933C11.5445 7.89999 11.0465 8.08731 10.6715 8.44852C10.3089 8.79764 10.1094 9.26546 10.1094 9.76564H8.39062C8.39062 8.79415 8.77721 7.88683 9.47935 7.21048C10.1937 6.52258 11.1387 6.16419 12.1394 6.20192C14.0123 6.27201 15.5354 7.78156 15.6067 9.63794Z" fill="black"/>
</svg>
