<svg width="24" height="24" viewBox="0 0 24 24" fill="none" xmlns="http://www.w3.org/2000/svg">
<path d="M12.8594 18.2734H11.1406V16.5547H12.8594V18.2734ZM12.8594 13.2523C14.5211 12.8502 15.6724 11.3427 15.6067 9.63793C15.5354 7.78154 14.0123 6.272 12.1394 6.2019C11.1387 6.16417 10.1937 6.52256 9.47935 7.21046C8.77721 7.88682 8.39062 8.79413 8.39062 9.76562H10.1094C10.1094 9.26544 10.3089 8.79762 10.6715 8.4485C11.0465 8.08729 11.5445 7.89998 12.0749 7.91931C13.0553 7.95624 13.8522 8.74002 13.8893 9.70399C13.9237 10.6023 13.3037 11.396 12.4146 11.5911C11.6644 11.7557 11.1406 12.404 11.1406 13.1677V14.8359H12.8594V13.2523ZM19.7782 19.7782C21.8558 17.7006 23 14.9381 23 12C23 9.06188 21.8558 6.29939 19.7782 4.22185C17.7006 2.14418 14.9381 1 12 1C9.06188 1 6.29939 2.14418 4.22185 4.22185C2.14418 6.29939 1 9.06188 1 12C1 14.9381 2.14418 17.7006 4.22185 19.7782C6.29939 21.8558 9.06188 23 12 23C14.9381 23 17.7006 21.8558 19.7782 19.7782ZM21.2812 12C21.2812 17.1176 17.1176 21.2812 12 21.2812C6.88242 21.2812 2.71875 17.1176 2.71875 12C2.71875 6.88242 6.88242 2.71875 12 2.71875C17.1176 2.71875 21.2812 6.88242 21.2812 12Z" fill="black"/>
</svg>
