<svg xmlns="http://www.w3.org/2000/svg" width="256" height="256"><path fill-opacity=".016" d="M0 128.004v128.004l128.25-.254 128.25-.254.254-127.75L257.008 0H0v128.004m.485.496c0 70.4.119 99.053.265 63.672.146-35.38.146-92.98 0-128C.604 29.153.485 58.1.485 128.5" fill="#1976D2" fill-rule="evenodd"/><path fill-opacity=".175" d="M242.39 17.288c-1.754 1.915-10.425 9.707-17.454 15.686-3.54 3.01-6.661 5.71-6.936 6-.275.289-3.425 2.989-7 6-3.575 3.01-6.725 5.71-7 6-.275.289-3.425 2.988-7 5.997s-7.175 6.164-8 7.011c-.825.847-3.075 2.73-5 4.185-1.925 1.455-5.086 4.166-7.025 6.025s-4.537 4.088-5.772 4.953c-1.235.865-4.041 3.235-6.236 5.266-3.815 3.529-5.967 3.957-5.967 1.185 0-.707-.844-2.05-1.876-2.984-1.73-1.566-7.596-1.693-75.481-1.637-43.976.036-74.519.442-75.874 1.008C-.464 84.588 0 78.33 0 159.86 0 208.62.342 234 1 234c.55 0 1 .605 1 1.345s.823 2.09 1.829 3C5.496 239.854 12.246 240 80.273 240h74.615l2.612-2.25 2.611-2.25-.076-54.489-.076-54.49 18.771-18.519c10.323-10.185 31.932-31.3 48.02-46.922L256 32.677v-6.185c0-8.063-1.899-10.508-8.117-10.454-2.411.021-4.883.583-5.493 1.25" fill="#1976D2" fill-rule="evenodd"/><path fill-opacity=".348" d="M203.854 51.786a53521.81 53521.81 0 0 1-77 65.893C107.409 134.278 90.6 148.69 89.5 149.707 82.288 156.372 74.239 162 71.919 162c-3.713 0-5.001-1.817-12.814-18.072-3.831-7.971-7.903-15.34-9.049-16.377-3.091-2.798-6.644-2.339-18.371 2.375C19.182 134.951 16 137.625 16 143.106c0 4.205.108 4.419 12.002 23.894a8191.455 8191.455 0 0 1 13.995 23l9.987 16.5c4.944 8.167 7.427 10.447 11.411 10.478 3.241.025-2.271 5.227 82.108-77.492 27.498-26.957 60.572-59.301 73.497-71.875 39.776-38.696 37.005-35.605 36.968-41.243-.024-3.696-.614-5.53-2.452-7.618-4.818-5.474-4.544-5.656-49.662 33.036" fill="#1976D2" fill-rule="evenodd"/><path fill-opacity=".57" d="M246 16.795c0 .436-2.137 2.429-4.75 4.428s-5.65 4.458-6.75 5.464c-1.1 1.007-4.925 4.301-8.5 7.322-3.575 3.02-6.725 5.728-7 6.017-.275.29-3.416 2.99-6.981 6-3.564 3.011-8.609 7.444-11.21 9.852-2.601 2.408-5.748 5.092-6.994 5.964-1.245.872-3.851 3.107-5.79 4.966s-5.1 4.57-7.025 6.025c-1.925 1.455-4.175 3.325-5 4.156-1.962 1.977-8.556 7.617-14.042 12.011-2.403 1.925-20.331 17.225-39.84 34-19.509 16.775-37.079 31.845-39.044 33.489-1.966 1.643-4.446 3.781-5.513 4.75-1.134 1.03-3.51 1.761-5.727 1.761-4.618 0-4.695-.107-14.834-20.451-7.268-14.583-7.604-15.059-10.848-15.37-4.633-.443-23.928 7.231-26.897 10.699-3.068 3.583-2.833 7.819.745 13.461 1.65 2.602 3 4.971 3 5.266 0 .294 1.35 2.497 3 4.895 1.65 2.398 3 4.648 3 5 0 .352 1.287 2.521 2.86 4.82 2.706 3.955 15.039 24.117 19.376 31.675C56.994 213.03 59.847 216 63.728 216c2.098 0 5.359-3.062 52.103-48.927 22.182-21.765 47.539-46.548 56.35-55.073 8.811-8.525 31.278-30.575 49.925-49 28.315-27.977 33.904-33.956 33.9-36.264-.007-3.17-1.624-6.367-4.506-8.907-2.051-1.807-5.5-2.456-5.5-1.034" fill="#1976D2" fill-rule="evenodd"/></svg>