<svg width="24" height="24" viewBox="0 0 24 24" fill="none" xmlns="http://www.w3.org/2000/svg">
<path d="M20.1425 18.7305L16.8994 15.4874C17.8822 14.2007 18.4213 12.64 18.4215 10.9932C18.4215 9.00854 17.6486 7.14258 16.245 5.73926C14.8417 4.33594 12.976 3.56299 10.9911 3.56299C9.00647 3.56299 7.1405 4.33594 5.73718 5.73926C2.84021 8.63647 2.84021 13.3503 5.73718 16.2471C7.1405 17.6506 9.00647 18.4236 10.9911 18.4236C12.6379 18.4234 14.1986 17.8843 15.4853 16.9014L18.7284 20.1445C18.9235 20.3398 19.1796 20.4375 19.4354 20.4375C19.6913 20.4375 19.9474 20.3398 20.1425 20.1445C20.5331 19.7542 20.5331 19.1208 20.1425 18.7305ZM7.15125 14.833C5.03406 12.7158 5.0343 9.27075 7.15125 7.15332C8.17688 6.12793 9.54065 5.56299 10.9911 5.56299C12.4418 5.56299 13.8053 6.12793 14.8309 7.15332C15.8566 8.17896 16.4215 9.54272 16.4215 10.9932C16.4215 12.4438 15.8566 13.8074 14.8309 14.833C13.8053 15.8586 12.4418 16.4236 10.9911 16.4236C9.54065 16.4236 8.17688 15.8586 7.15125 14.833Z" fill="black"/>
</svg>
