<svg width="24" height="24" viewBox="0 0 24 24" fill="none" xmlns="http://www.w3.org/2000/svg">
<path d="M23.4449 15.156L20.9129 13.17C20.9609 12.786 20.9969 12.396 20.9969 12C20.9969 11.604 20.9609 11.214 20.9129 10.83L23.4509 8.84396C23.6789 8.66396 23.7449 8.33996 23.5949 8.07598L21.1949 3.91798C21.0449 3.65996 20.7329 3.55196 20.4629 3.65996L17.4749 4.86596C16.8569 4.39194 16.1789 3.98998 15.4469 3.68398L14.9969 0.504C14.9429 0.222019 14.6969 0 14.3969 0H9.59692C9.29694 0 9.0509 0.222019 9.00292 0.504L8.55292 3.68398C7.82094 3.98998 7.1429 4.38598 6.52494 4.86596L3.53695 3.65996C3.26695 3.55798 2.95493 3.65996 2.80496 3.91798L0.404891 8.07598C0.254873 8.33399 0.32091 8.65799 0.548891 8.84396L3.08087 10.83C3.03289 11.214 2.99689 11.604 2.99689 12C2.99689 12.396 3.03289 12.786 3.08087 13.17L0.548891 15.156C0.32091 15.336 0.254873 15.66 0.404891 15.924L2.80491 20.082C2.95493 20.34 3.26689 20.448 3.53689 20.34L6.52489 19.134C7.14291 19.608 7.82089 20.01 8.55287 20.316L9.00287 23.4959C9.05085 23.7779 9.29688 23.9999 9.59687 23.9999H14.3968C14.6968 23.9999 14.9429 23.7779 14.9908 23.4959L15.4408 20.316C16.1728 20.01 16.8509 19.614 17.4688 19.134L20.4568 20.34C20.7268 20.442 21.0388 20.34 21.1888 20.082L23.5888 15.924C23.7389 15.666 23.6729 15.342 23.4449 15.156ZM11.9969 16.2C9.67488 16.2 7.79687 14.322 7.79687 12C7.79687 9.67797 9.67488 7.80001 11.9969 7.80001C14.3189 7.80001 16.1969 9.67803 16.1969 12C16.1969 14.322 14.3189 16.2 11.9969 16.2Z" fill="black"/>
</svg>
