<svg width="24" height="24" viewBox="0 0 24 24" fill="none" xmlns="http://www.w3.org/2000/svg">
<path fill-rule="evenodd" clip-rule="evenodd" d="M22 5C22 7.20914 20.2091 9 18 9C15.7909 9 14 7.20914 14 5C14 2.79086 15.7909 1 18 1C20.2091 1 22 2.79086 22 5ZM9 12C9 14.2091 7.20914 16 5 16C2.79086 16 1 14.2091 1 12C1 9.79086 2.79086 8 5 8C7.20914 8 9 9.79086 9 12ZM18 23C20.2091 23 22 21.2091 22 19C22 16.7909 20.2091 15 18 15C15.7909 15 14 16.7909 14 19C14 21.2091 15.7909 23 18 23Z" fill="black"/>
<path fill-rule="evenodd" clip-rule="evenodd" d="M18.8805 4.52609C19.1423 5.01236 18.9604 5.61883 18.4741 5.88067L7.10926 12.0002L18.4741 18.1197C18.9604 18.3816 19.1423 18.988 18.8805 19.4743C18.6186 19.9606 18.0122 20.1425 17.5259 19.8807L4.5259 12.8807C4.20199 12.7063 4 12.3681 4 12.0002C4 11.6323 4.20199 11.2941 4.5259 11.1197L17.5259 4.11972C18.0122 3.85788 18.6186 4.03982 18.8805 4.52609Z" fill="black"/>
</svg>
