<svg width="24" height="24" viewBox="0 0 24 24" fill="none" xmlns="http://www.w3.org/2000/svg">
<path fill-rule="evenodd" clip-rule="evenodd" d="M2.62582 4.94971H13.5755C15.0197 4.94971 16.2013 6.10507 16.2013 7.57553V16.4246C16.2013 17.8688 15.0197 19.0504 13.5755 19.0504H2.62582C1.18162 19.0504 0 17.8688 0 16.4246V7.57553C0 6.13133 1.18162 4.94971 2.62582 4.94971ZM21.6105 6.57766C21.7418 6.49889 21.8993 6.42011 22.0569 6.39386C23.081 6.15753 24 6.94528 24 7.91683V16.0306C24 16.3195 23.9212 16.5821 23.7899 16.8184C23.3435 17.5799 22.3983 17.8425 21.6368 17.3961L17.5142 15.0328V8.94091L21.6105 6.57766Z" fill="black"/>
</svg>
