<svg width="140" height="134" viewBox="0 0 140 134" fill="none" xmlns="http://www.w3.org/2000/svg">
<g clip-path="url(#clip0_390_20224)">
<path d="M0.689315 66.2106L-0.00390625 66.2921L1.22799 76.8734L1.92122 76.792L0.689315 66.2106Z" fill="#FDD500"/>
<path d="M2.38072 80.7207L1.6875 80.8021L2.30901 86.1406L3.00223 86.0592L2.38072 80.7207Z" fill="#FDD500"/>
<path d="M48.4117 44.6346L47.5906 42.3183C47.0258 40.7263 45.9399 39.374 44.5104 38.4825C43.081 37.591 41.3926 37.2132 39.7216 37.4109L7.02072 41.253C5.06176 41.4838 3.27427 42.4867 2.05138 44.0411C0.828491 45.5956 0.270347 47.5743 0.499704 49.5421L9.80567 129.477C9.88293 130.146 10.0907 130.793 10.417 131.381C10.7433 131.968 11.1818 132.486 11.7073 132.903C12.2329 133.321 12.8353 133.63 13.48 133.814C14.1247 133.997 14.799 134.051 15.4645 133.973L132.473 120.226C133.14 120.15 133.785 119.943 134.372 119.616C134.959 119.289 135.476 118.848 135.893 118.32C136.31 117.792 136.619 117.187 136.803 116.538C136.986 115.89 137.04 115.211 136.962 114.542L128.888 45.4388C128.732 44.0898 128.049 42.8585 126.989 42.0155C125.929 41.1725 124.579 40.787 123.236 40.9437L55.2886 48.9304C53.8277 49.1002 52.3527 48.768 51.1038 47.9879C49.855 47.2078 48.9061 46.0258 48.4117 44.6346Z" fill="#D6B200"/>
<path d="M51.6761 9.86664L14.707 17.2666L24.8569 68.4283L61.826 61.0283L51.6761 9.86664Z" fill="#16428B"/>
<path opacity="0.7" d="M51.6761 9.86664L14.707 17.2666L24.8569 68.4283L61.826 61.0283L51.6761 9.86664Z" fill="white"/>
<g opacity="0.4">
<path opacity="0.4" d="M46.7429 22.1661L23.9706 26.7299C23.4401 26.8333 22.8904 26.7225 22.4408 26.4214C21.9912 26.1203 21.6779 25.6532 21.5689 25.1216C21.4659 24.5887 21.5763 24.0366 21.876 23.5849C22.1758 23.1333 22.6407 22.8186 23.17 22.7091L45.956 18.1659C46.4865 18.0625 47.0362 18.1733 47.4858 18.4744C47.9354 18.7755 48.2487 19.2426 48.3577 19.7742C48.4544 20.306 48.3393 20.8546 48.0373 21.3019C47.7352 21.7493 47.2704 22.0596 46.7429 22.1661Z" fill="#16428B"/>
<path opacity="0.4" d="M48.4184 30.6408L25.6461 35.2252C25.1166 35.3266 24.5687 35.2148 24.1206 34.9139C23.6725 34.613 23.3602 34.1471 23.2512 33.6169C23.1502 33.085 23.2615 32.5346 23.5611 32.0845C23.8607 31.6345 24.3245 31.3208 24.8524 31.2112L47.6246 26.6543C48.1541 26.5529 48.702 26.6647 49.1501 26.9656C49.5982 27.2665 49.9105 27.7324 50.0195 28.2626C50.1126 28.7903 49.9975 29.3337 49.6987 29.7776C49.3998 30.2215 48.9406 30.5311 48.4184 30.6408Z" fill="#16428B"/>
<path opacity="0.4" d="M50.0961 39.1017L27.3238 43.6586C26.7944 43.76 26.2464 43.6482 25.7983 43.3473C25.3503 43.0464 25.038 42.5805 24.9289 42.0503C24.828 41.5184 24.9393 40.968 25.2389 40.5179C25.5384 40.0678 26.0022 39.7542 26.5301 39.6446L49.3023 35.0808C49.8318 34.9794 50.3798 35.0912 50.8278 35.3921C51.2759 35.6931 51.5882 36.1589 51.6973 36.6892C51.8002 37.222 51.6899 37.7742 51.3901 38.2258C51.0903 38.6775 50.6254 38.9922 50.0961 39.1017Z" fill="#16428B"/>
<path opacity="0.4" d="M51.78 47.5969L29.0077 52.1539C28.4772 52.2573 27.9275 52.1465 27.4779 51.8454C27.0283 51.5443 26.715 51.0772 26.606 50.5455C26.503 50.0127 26.6134 49.4605 26.9131 49.0089C27.2129 48.5572 27.6779 48.2425 28.2071 48.1331L50.9794 43.5761C51.5099 43.4727 52.0596 43.5835 52.5092 43.8846C52.9589 44.1857 53.2722 44.6528 53.3811 45.1845C53.4841 45.7173 53.3737 46.2695 53.074 46.7211C52.7742 47.1728 52.3093 47.4875 51.78 47.5969Z" fill="#16428B"/>
<path opacity="0.4" d="M47.228 57.2675L30.6825 60.5804C30.1531 60.6819 29.6051 60.57 29.157 60.2691C28.7089 59.9682 28.3967 59.5023 28.2876 58.9721C28.1846 58.4392 28.295 57.8871 28.5948 57.4354C28.8945 56.9838 29.3595 56.6691 29.8888 56.5596L46.4342 53.2467C46.9637 53.1453 47.5117 53.2571 47.9597 53.558C48.4078 53.8589 48.7201 54.3248 48.8292 54.855C48.9321 55.3879 48.8218 55.9401 48.522 56.3917C48.2222 56.8434 47.7573 57.1581 47.228 57.2675Z" fill="#16428B"/>
</g>
<path d="M104.354 0.00703151L67.0059 5.13928L74.0453 56.8255L111.393 51.6932L104.354 0.00703151Z" fill="#16428B"/>
<path opacity="0.7" d="M104.354 0.00703151L67.0059 5.13928L74.0453 56.8255L111.393 51.6932L104.354 0.00703151Z" fill="white"/>
<g opacity="0.4">
<path opacity="0.4" d="M98.6847 11.9937L75.6798 15.1554C75.1441 15.226 74.6023 15.0816 74.1719 14.7534C73.7415 14.4253 73.4572 13.94 73.3807 13.4027C73.3104 12.8646 73.4542 12.3203 73.7809 11.888C74.1075 11.4557 74.5907 11.1701 75.1256 11.0933L98.1305 7.93165C98.6662 7.86106 99.208 8.00549 99.6385 8.3336C100.069 8.66171 100.353 9.14704 100.43 9.68432C100.5 10.2224 100.356 10.7667 100.029 11.199C99.7028 11.6314 99.2196 11.9169 98.6847 11.9937Z" fill="#16428B"/>
<path opacity="0.4" d="M99.8479 20.5371L76.843 23.6988C76.3073 23.7694 75.7655 23.625 75.3351 23.2969C74.9046 22.9688 74.6204 22.4834 74.5439 21.9461C74.4756 21.4091 74.6203 20.8666 74.9467 20.4358C75.2732 20.005 75.7552 19.7205 76.2888 19.6436L99.2937 16.4819C99.8284 16.4112 100.369 16.5547 100.8 16.8814C101.23 17.2081 101.515 17.6917 101.593 18.2277C101.663 18.7659 101.519 19.3101 101.193 19.7425C100.866 20.1748 100.383 20.4603 99.8479 20.5371Z" fill="#16428B"/>
<path opacity="0.4" d="M84.3423 31.3761L78.006 32.249C77.4703 32.3196 76.9284 32.1752 76.498 31.8471C76.0676 31.519 75.7834 31.0336 75.7069 30.4964C75.6366 29.9582 75.7804 29.414 76.1071 28.9816C76.4337 28.5493 76.9169 28.2638 77.4518 28.187L83.7949 27.3141C84.3295 27.2454 84.8696 27.3908 85.2985 27.7187C85.7274 28.0466 86.0107 28.5308 86.0872 29.0667C86.1574 29.6049 86.0137 30.1491 85.687 30.5815C85.3604 31.0138 84.8772 31.2993 84.3423 31.3761Z" fill="#16428B"/>
<path opacity="0.4" d="M96.6392 29.6853L90.2961 30.5582C89.7614 30.6269 89.2213 30.4815 88.7924 30.1536C88.3635 29.8257 88.0803 29.3415 88.0038 28.8056C87.9335 28.2674 88.0773 27.7232 88.4039 27.2908C88.7306 26.8585 89.2138 26.573 89.7486 26.4962L96.0849 25.6301C96.6196 25.5594 97.1605 25.7029 97.5908 26.0296C98.021 26.3563 98.3059 26.8399 98.384 27.3759C98.4543 27.9141 98.3105 28.4583 97.9839 28.8907C97.6572 29.323 97.1741 29.6085 96.6392 29.6853Z" fill="#16428B"/>
<path opacity="0.4" d="M102.174 37.6307L79.1692 40.7924C78.6335 40.863 78.0916 40.7186 77.6612 40.3905C77.2308 40.0624 76.9465 39.577 76.8701 39.0397C76.8017 38.5027 76.9464 37.9602 77.2729 37.5294C77.5994 37.0986 78.0814 36.8141 78.615 36.7372L101.62 33.5687C102.156 33.4981 102.697 33.6425 103.128 33.9706C103.558 34.2987 103.843 34.7841 103.919 35.3213C103.989 35.8595 103.845 36.4037 103.519 36.8361C103.192 37.2684 102.709 37.5539 102.174 37.6307Z" fill="#16428B"/>
<path opacity="0.4" d="M97.0566 47.0402L80.3333 49.3358C79.7997 49.4046 79.2605 49.2602 78.8318 48.9337C78.4031 48.6072 78.1191 48.1247 78.041 47.59C77.9706 47.0529 78.1135 46.5096 78.4387 46.0774C78.7639 45.6453 79.2454 45.3591 79.779 45.2806L96.5024 42.985C97.036 42.9162 97.5752 43.0606 98.0039 43.3871C98.4326 43.7136 98.7166 44.1961 98.7947 44.7308C98.8651 45.2679 98.7222 45.8112 98.397 46.2434C98.0718 46.6755 97.5903 46.9617 97.0566 47.0402Z" fill="#16428B"/>
</g>
<path d="M69.1103 7.55504L31.5566 10.842L36.0651 62.8127L73.6188 59.5257L69.1103 7.55504Z" fill="#16428B"/>
<path opacity="0.8" d="M69.1103 7.55504L31.5566 10.842L36.0651 62.8127L73.6188 59.5257L69.1103 7.55504Z" fill="white"/>
<g opacity="0.4">
<path opacity="0.4" d="M62.863 19.2518L39.7281 21.2725C39.1899 21.3165 38.656 21.1456 38.2423 20.797C37.8286 20.4483 37.5684 19.95 37.5179 19.4099C37.4761 18.8704 37.647 18.3359 37.9939 17.9219C38.3408 17.5079 38.8359 17.2474 39.3723 17.1967L62.5072 15.1348C63.0455 15.0908 63.5793 15.2617 63.993 15.6103C64.4067 15.959 64.6669 16.4573 64.7174 16.9974C64.7438 17.2679 64.7167 17.5409 64.6377 17.8008C64.5586 18.0608 64.4292 18.3024 64.2569 18.5119C64.0846 18.7214 63.8727 18.8947 63.6335 19.0216C63.3943 19.1486 63.1324 19.2268 62.863 19.2518Z" fill="#16428B"/>
<path opacity="0.4" d="M63.6096 27.8433L40.4747 29.9053C39.9365 29.9492 39.4027 29.7784 38.989 29.4297C38.5753 29.0811 38.315 28.5827 38.2646 28.0426C38.2208 27.502 38.3909 26.9658 38.738 26.5502C39.0851 26.1347 39.5812 25.8732 40.1189 25.8226L63.2538 23.7606C63.7921 23.7167 64.3259 23.8875 64.7396 24.2362C65.1533 24.5848 65.4135 25.0832 65.464 25.6233C65.5077 26.1639 65.3376 26.7001 64.9905 27.1157C64.6434 27.5312 64.1473 27.7927 63.6096 27.8433Z" fill="#16428B"/>
<path opacity="0.4" d="M64.3538 36.4348L41.2189 38.4968C40.6806 38.5407 40.1468 38.3699 39.7331 38.0212C39.3194 37.6726 39.0591 37.1742 39.0087 36.6341C38.9649 36.0935 39.1351 35.5573 39.4822 35.1417C39.8293 34.7262 40.3254 34.4647 40.8631 34.4141L63.998 32.3521C64.5362 32.3082 65.07 32.479 65.4837 32.8277C65.8974 33.1763 66.1577 33.6747 66.2081 34.2148C66.2519 34.7554 66.0818 35.2916 65.7347 35.7072C65.3876 36.1227 64.8914 36.3841 64.3538 36.4348Z" fill="#16428B"/>
<path opacity="0.4" d="M65.1135 45.0263L41.9786 47.0883C41.4404 47.1322 40.9066 46.9614 40.4929 46.6127C40.0792 46.2641 39.8189 45.7657 39.7685 45.2256C39.7247 44.685 39.8948 44.1488 40.2419 43.7332C40.589 43.3177 41.0852 43.0563 41.6228 43.0056L64.7577 40.9849C65.296 40.9409 65.8298 41.1118 66.2435 41.4604C66.6572 41.8091 66.9175 42.3074 66.9679 42.8475C67.0005 43.3813 66.8253 43.907 66.4793 44.3135C66.1333 44.72 65.6436 44.9756 65.1135 45.0263Z" fill="#16428B"/>
<path opacity="0.4" d="M59.5244 54.1746L42.7121 55.6454C42.1704 55.6951 41.6313 55.5269 41.2131 55.1776C40.7949 54.8284 40.5317 54.3267 40.4814 53.7828C40.4376 53.2421 40.6077 52.7059 40.9548 52.2904C41.3019 51.8748 41.798 51.6134 42.3357 51.5627L59.148 50.0919C59.6863 50.0479 60.2201 50.2188 60.6338 50.5674C61.0475 50.9161 61.3078 51.4144 61.3582 51.9545C61.4022 52.4919 61.2349 53.0253 60.8921 53.4403C60.5493 53.8553 60.0583 54.1188 59.5244 54.1746Z" fill="#16428B"/>
</g>
<path d="M114.877 5.02994L77.2246 6.85321L79.7254 58.9603L117.378 57.137L114.877 5.02994Z" fill="#16428B"/>
<path opacity="0.8" d="M114.877 5.02994L77.2246 6.85321L79.7254 58.9603L117.378 57.137L114.877 5.02994Z" fill="white"/>
<g opacity="0.4">
<path opacity="0.4" d="M108.182 16.4613L84.9921 17.5885C84.4533 17.6111 83.9272 17.4196 83.5277 17.0556C83.1282 16.6917 82.8873 16.1844 82.8572 15.6434C82.8348 15.1021 83.0254 14.5737 83.3878 14.1724C83.7502 13.7711 84.2552 13.5292 84.7937 13.499L107.99 12.3718C108.529 12.3493 109.055 12.5407 109.455 12.9047C109.854 13.2687 110.095 13.776 110.125 14.3169C110.147 14.8593 109.956 15.3887 109.592 15.7902C109.228 16.1917 108.722 16.4328 108.182 16.4613Z" fill="#16428B"/>
<path opacity="0.4" d="M108.599 25.0803L85.4023 26.2006C84.8634 26.2232 84.3373 26.0317 83.9378 25.6677C83.5383 25.3038 83.2975 24.7965 83.2674 24.2555C83.245 23.7131 83.4365 23.1837 83.8004 22.7822C84.1642 22.3807 84.6709 22.1396 85.2107 22.1111L108.4 20.9839C108.94 20.9614 109.467 21.1538 109.867 21.5192C110.267 21.8847 110.507 22.3937 110.535 22.9359C110.558 23.4772 110.367 24.0056 110.005 24.4069C109.642 24.8082 109.137 25.0501 108.599 25.0803Z" fill="#16428B"/>
<path opacity="0.4" d="M92.2113 34.5378L85.8203 34.8471C85.2814 34.8696 84.7553 34.6782 84.3558 34.3142C83.9563 33.9502 83.7155 33.4429 83.6854 32.902C83.663 32.3607 83.8535 31.8323 84.2159 31.431C84.5783 31.0297 85.0833 30.7878 85.6218 30.7576L92.0128 30.4414C92.5529 30.4189 93.0799 30.6113 93.4796 30.9768C93.8793 31.3422 94.1194 31.8513 94.1477 32.3934C94.1701 32.9347 93.9796 33.4631 93.6172 33.8644C93.2548 34.2657 92.7498 34.5076 92.2113 34.5378Z" fill="#16428B"/>
<path opacity="0.4" d="M104.604 33.9055L98.2128 34.2148C97.6739 34.2374 97.1479 34.0459 96.7484 33.6819C96.3489 33.318 96.108 32.8107 96.0779 32.2697C96.0555 31.7284 96.2461 31.2 96.6085 30.7987C96.9708 30.3974 97.4759 30.1555 98.0144 30.1253L104.405 29.816C104.944 29.7935 105.47 29.9849 105.87 30.3489C106.269 30.7129 106.51 31.2202 106.54 31.7611C106.563 32.3024 106.372 32.8308 106.01 33.2321C105.647 33.6334 105.142 33.8753 104.604 33.9055Z" fill="#16428B"/>
<path opacity="0.4" d="M109.427 42.3114L86.2304 43.4318C85.6915 43.4543 85.1654 43.2629 84.7659 42.8989C84.3664 42.5349 84.1256 42.0276 84.0955 41.4867C84.0731 40.9442 84.2646 40.4148 84.6285 40.0133C84.9923 39.6119 85.4991 39.3707 86.0388 39.3422L109.228 38.215C109.768 38.1926 110.296 38.3849 110.695 38.7504C111.095 39.1158 111.335 39.6249 111.363 40.167C111.386 40.7083 111.195 41.2367 110.833 41.638C110.47 42.0393 109.965 42.2812 109.427 42.3114Z" fill="#16428B"/>
<path opacity="0.4" d="M103.502 51.2329L86.6484 52.0508C86.1095 52.0733 85.5834 51.8819 85.1839 51.5179C84.7844 51.1539 84.5436 50.6466 84.5135 50.1057C84.4911 49.5644 84.6817 49.036 85.044 48.6347C85.4064 48.2334 85.9114 47.9915 86.4499 47.9612L103.303 47.1433C103.842 47.1208 104.368 47.3122 104.768 47.6762C105.167 48.0402 105.408 48.5475 105.438 49.0884C105.461 49.6297 105.27 50.1582 104.908 50.5595C104.545 50.9607 104.04 51.2026 103.502 51.2329Z" fill="#16428B"/>
</g>
<path d="M58.8534 46.1123L58.2512 43.8511C57.8294 42.2861 56.8498 40.9313 55.4987 40.0443C54.1476 39.1572 52.5191 38.7998 50.9228 39.0398L18.2219 42.8819C16.238 43.1262 14.4109 44.0889 13.0832 45.5896C11.7554 47.0903 11.0182 49.0259 11.0098 51.0336L12.8641 129.285C12.8752 129.93 13.0235 130.564 13.2991 131.146C13.5747 131.728 13.9712 132.245 14.4619 132.66C14.9526 133.075 15.5262 133.381 16.144 133.555C16.7619 133.729 17.4097 133.768 18.044 133.67L135.053 119.924C136.411 119.758 137.663 119.101 138.574 118.075C139.485 117.049 139.992 115.724 140 114.35L138.399 46.7034C138.387 46.0586 138.238 45.4238 137.961 44.8417C137.685 44.2595 137.288 43.7435 136.796 43.3282C136.305 42.9129 135.731 42.6079 135.113 42.4337C134.495 42.2595 133.847 42.2202 133.212 42.3183L65.2717 50.2981C63.8771 50.512 62.4528 50.2038 61.2695 49.4321C60.0862 48.6604 59.2264 47.479 58.8534 46.1123Z" fill="#FDD500"/>
<path opacity="0.3" d="M58.8534 46.1123L58.2512 43.8511C57.8294 42.2861 56.8498 40.9313 55.4987 40.0443C54.1476 39.1572 52.5191 38.7998 50.9228 39.0398L18.2219 42.8819C16.238 43.1262 14.4109 44.0889 13.0832 45.5896C11.7554 47.0903 11.0182 49.0259 11.0098 51.0336L12.8641 129.285C12.8752 129.93 13.0235 130.564 13.2991 131.146C13.5747 131.728 13.9712 132.245 14.4619 132.66C14.9526 133.075 15.5262 133.381 16.144 133.555C16.7619 133.729 17.4097 133.768 18.044 133.67L135.053 119.924C136.411 119.758 137.663 119.101 138.574 118.075C139.485 117.049 139.992 115.724 140 114.35L138.399 46.7034C138.387 46.0586 138.238 45.4238 137.961 44.8417C137.685 44.2595 137.288 43.7435 136.796 43.3282C136.305 42.9129 135.731 42.6079 135.113 42.4337C134.495 42.2595 133.847 42.2202 133.212 42.3183L65.2717 50.2981C63.8771 50.512 62.4528 50.2038 61.2695 49.4321C60.0862 48.6604 59.2264 47.479 58.8534 46.1123Z" fill="#FDD500"/>
</g>
<defs>
<clipPath id="clip0_390_20224">
<rect width="140" height="134" fill="white"/>
</clipPath>
</defs>
</svg>
