<svg width="137" height="150" viewBox="0 0 137 150" fill="none" xmlns="http://www.w3.org/2000/svg">
<path d="M24.0358 10H0V34H24.0358V10Z" fill="#B2C8DA"/>
<path d="M24.0365 10H10.0156V24H24.0365V10Z" fill="#4883A3"/>
<path d="M10.0156 0V5.75783H28.2816V24H34.0515V0H10.0156Z" fill="#4883A3"/>
<path d="M40.5937 147.141V147.954V148.041V148.124V148.204L40.6148 148.283L40.6359 148.355L40.6676 148.428L40.7063 148.5L40.745 148.572L40.7977 148.645L40.854 148.717L40.9174 148.789L40.9948 148.865H40.9772H40.9596H40.935L40.9103 148.883L40.8822 148.905L40.8505 148.923H40.8153L40.7731 148.945H40.7379H40.6922H40.6464H40.5972H40.5479H40.4916H40.379H40.2594L40.1609 148.926L40.0658 148.898L39.9884 148.858L39.9181 148.804L39.8547 148.739L39.8019 148.666L39.7632 148.576L39.7281 148.475L39.6964 148.359L39.6753 148.236L39.6577 148.099V147.943V147.781V147.6V147.188L39.5943 147.257L39.531 147.329L39.4677 147.405L39.4078 147.488L39.348 147.567L39.2882 147.651L39.2319 147.737L39.1791 147.824L39.1299 147.911L39.0841 147.998L39.0454 148.084L39.0102 148.175L38.9821 148.261L38.961 148.348V148.435V148.739V148.76V148.782V148.804V148.825H38.866L38.7745 148.807L38.683 148.782L38.602 148.742L38.5211 148.695L38.4472 148.641L38.3804 148.58L38.3135 148.514L38.2572 148.442L38.2044 148.37L38.1622 148.294L38.1235 148.218L38.0918 148.142L38.0742 148.066L38.0566 147.994V147.925V147.817L38.0848 147.708L38.127 147.6L38.1798 147.492L38.2466 147.383L38.3241 147.275L38.405 147.163L38.493 147.061L38.5422 147L40.5937 147.141ZM45.8049 147.141L45.8331 147.249L45.9422 147.586L46.0724 147.896L46.2131 148.175L46.3715 148.428L46.5439 148.652L46.7304 148.84L46.9345 148.995L47.1526 149.118L47.3919 149.205L47.3602 149.263L47.3215 149.317L47.2793 149.371L47.2336 149.422L47.1808 149.476L47.128 149.519L47.0752 149.57L47.0189 149.61L46.9556 149.646L46.8958 149.682L46.8289 149.711L46.762 149.733L46.6987 149.758H46.6319H46.5615H46.4911H46.4031L46.3222 149.736L46.2448 149.704L46.1709 149.667L46.1005 149.617L46.0337 149.559L45.9703 149.494L45.914 149.418L45.8542 149.339L45.7979 149.255L45.7416 149.165L45.6923 149.071L45.6396 148.977L45.5903 148.88L45.541 148.782L45.4918 148.684L45.4601 148.764L45.4284 148.851L45.3862 148.948L45.3475 149.053L45.2982 149.161L45.2455 149.277L45.1892 149.386L45.1293 149.494L45.073 149.595L45.0062 149.689L44.9393 149.783L44.8725 149.859L44.8021 149.924L44.7317 149.971L44.6613 150H44.591H44.5206L44.4467 149.971L44.3763 149.924L44.3095 149.859L44.2391 149.783L44.1722 149.689L44.1089 149.595L44.0491 149.494L43.9893 149.386L43.9365 149.277L43.8802 149.161L43.838 149.053L43.7922 148.948L43.7535 148.851L43.7183 148.764L43.6867 148.684L43.6409 148.782L43.5881 148.88L43.5424 148.977L43.4861 149.071L43.4368 149.165L43.3805 149.255L43.3277 149.339L43.2679 149.418L43.2081 149.494L43.1483 149.559L43.0779 149.617L43.0075 149.667L42.9372 149.704L42.8597 149.736L42.7753 149.758H42.6908H42.6169H42.5501H42.4832L42.4164 149.733L42.3495 149.711L42.2862 149.682L42.2228 149.646L42.1665 149.61L42.1032 149.57L42.0504 149.519L41.9976 149.476L41.9484 149.422L41.9026 149.371L41.8639 149.317L41.8252 149.263L41.79 149.205L42.0258 149.118L42.2475 148.995L42.4516 148.84L42.6381 148.652L42.8105 148.428L42.9688 148.175L43.1096 147.896L43.2362 147.586L43.3488 147.249L43.377 147.141H45.8049ZM50.5905 147.141L50.6397 147.202L50.7277 147.304L50.8121 147.416L50.886 147.524L50.9529 147.633L51.0057 147.741L51.0514 147.849L51.076 147.958V148.066V148.12V148.193L51.0514 148.269L51.0233 148.345L50.9881 148.42L50.9423 148.496L50.8895 148.569L50.8333 148.641L50.7699 148.706L50.703 148.767L50.6256 148.822L50.5482 148.869L50.4638 148.908L50.3758 148.934L50.2843 148.952H50.1893V148.93V148.908V148.648V148.561V148.475L50.1682 148.388L50.1401 148.301L50.1084 148.211L50.0662 148.124L50.0204 148.037L49.9747 147.951L49.9184 147.864L49.8656 147.777L49.8058 147.694L49.7424 147.614L49.6826 147.531L49.6193 147.455L49.5559 147.383L49.4996 147.314V147.907V148.07V148.225L49.482 148.363L49.4609 148.486L49.4328 148.601L49.3976 148.702L49.3554 148.793L49.3026 148.865L49.2428 148.93L49.1724 148.984L49.095 149.024L49 149.053L48.8979 149.071H48.7783H48.6657H48.6129H48.5601H48.5144H48.4686H48.4229H48.3807L48.342 149.049H48.3103L48.2786 149.031L48.247 149.01L48.2223 148.992H48.2012H48.1801L48.254 148.916L48.3209 148.843L48.3772 148.771L48.4264 148.699L48.4686 148.627L48.5038 148.554L48.5355 148.482L48.5601 148.41L48.5812 148.33V148.251V148.167V148.081V147.99V147.267L50.5905 147.141Z" fill="#4883A3"/>
<path d="M38.7895 144.063L38.7376 144.126L38.544 144.329L38.3504 144.497L38.1602 144.641L37.9666 144.756L37.773 144.847L37.5759 144.917L37.3789 144.966L37.1714 145.005L36.964 145.029H36.7462H36.5249H36.0547L36.2518 144.868L36.4385 144.704L36.6217 144.536L36.7946 144.368L36.9605 144.193L37.0988 144.039L38.7895 144.063ZM42.4612 144.063L42.3748 144.182L42.2815 144.305L42.195 144.431L42.1086 144.553L42.0256 144.676L41.9461 144.791L41.87 144.903L41.8043 145.008L41.7421 145.106L41.6868 145.197L41.6418 145.281L41.6038 145.351L41.5761 145.411H41.666H41.7559H41.8458H41.9357H42.0256H42.1155H42.2019H42.2884H42.3644H42.444H42.5166H42.5788H42.641H42.6929H42.8588H42.9349H43.0041L43.0663 145.428L43.1181 145.453L43.1666 145.481L43.2046 145.512L43.2426 145.547L43.2737 145.586L43.2945 145.624L43.3152 145.666L43.3325 145.708V145.754V145.799V145.957V146.023L43.3152 146.086L43.2876 146.149L43.2599 146.212L43.2219 146.275L43.1838 146.335L43.1389 146.391L43.0905 146.45L43.0455 146.506L42.9937 146.559L42.9418 146.611L42.8934 146.66L42.8416 146.709L42.7897 146.755L42.7448 146.8L42.6929 146.716L42.6307 146.643L42.558 146.583L42.4751 146.534L42.3852 146.492L42.2918 146.457L42.195 146.436L42.0982 146.415H42.0049H41.915H41.832H41.2304H41.1958H41.1578H41.1163V146.937H39.1491L39.1871 146.895L39.277 146.8L39.3669 146.709L39.4533 146.622L39.5328 146.541L39.6089 146.468L39.6746 146.401L39.7299 146.342H39.481H39.3392H39.2148L39.1007 146.363L38.9969 146.391L38.9105 146.419L38.831 146.454L38.7653 146.492L38.7065 146.531L38.6581 146.576L38.6166 146.615L38.5786 146.664L38.5509 146.706L38.5267 146.751L38.506 146.797L38.4887 146.842L38.4437 146.8L38.4023 146.758L38.3608 146.713L38.3193 146.664L38.2813 146.611L38.2432 146.555L38.2086 146.499L38.181 146.436L38.1499 146.373L38.1257 146.307L38.1015 146.237L38.0842 146.163L38.0669 146.09V146.013V145.932V145.708V145.663V145.614L38.0842 145.572V145.53L38.1118 145.488L38.1395 145.453L38.1775 145.418L38.2225 145.39L38.2709 145.365L38.3297 145.341H38.3953H38.4714H38.9382H39.0419H39.1491H39.2562H39.3669H39.4741H39.5847H39.6919H39.7991H39.9028H40.003H40.0998L40.1932 145.362L40.2658 145.253L40.3453 145.138L40.4318 145.019L40.5251 144.886L40.6219 144.749L40.7187 144.606L40.819 144.455L40.9192 144.298L41.023 144.144L41.1094 144L42.4612 144.063ZM43.2288 144.063V144.095L43.208 144.21V144.305V144.392L43.1596 144.354L43.1147 144.312L43.0767 144.273L43.0386 144.231L43.0075 144.186L42.9729 144.144L42.9418 144.102L42.9211 144.063H43.2288ZM45.9394 144.063V144.091V144.56L45.9601 145.008L45.9982 145.442L46.0466 145.859L46.1123 146.254L46.1918 146.622L46.2575 146.863H43.8719L43.9376 146.622L44.0171 146.254L44.0793 145.859L44.1312 145.442L44.1623 145.008L44.1865 144.56V144.091V144.063H45.9394ZM47.2428 144.063L47.2186 144.102L47.1875 144.144L47.1598 144.186L47.1218 144.231L47.0872 144.273L47.0458 144.312L47.0043 144.354L46.9593 144.392V144.305V144.21L46.9386 144.095V144.063H47.2428ZM48.9715 144.063L49.058 144.207L49.1617 144.361L49.2619 144.518L49.3622 144.669L49.4625 144.812L49.5593 144.949L49.6492 145.082L49.7356 145.201L49.8151 145.316L49.8912 145.425L49.9845 145.404H50.0813H50.1816H50.2853H50.3925H50.4997H50.6069H50.7175H50.8281H50.9353H51.0425H51.1462H51.613H51.6856H51.7547L51.81 145.428L51.8619 145.453L51.9069 145.481L51.9414 145.516L51.9725 145.551L51.9967 145.593L52.0175 145.635V145.677V145.726V145.771V145.82V145.995V146.076V146.153V146.226L51.9967 146.3L51.976 146.37L51.9483 146.436L51.9207 146.499L51.8896 146.562L51.855 146.618L51.8204 146.674L51.7789 146.727L51.7374 146.776L51.6994 146.821L51.6545 146.863L51.613 146.905L51.5957 146.86L51.5749 146.814L51.5507 146.769L51.5196 146.727L51.485 146.678L51.4401 146.639L51.3917 146.594L51.3329 146.555L51.2672 146.517L51.1912 146.482L51.1013 146.454L51.001 146.426L50.8869 146.405H50.759H50.6207H50.3752L50.4271 146.464L50.4928 146.531L50.5688 146.604L50.6484 146.685L50.7348 146.772L50.8247 146.863L50.9146 146.958L50.9526 147H48.9819V146.342H48.9404H48.9024H48.8678H48.2662H48.1867H48.0968H48.0034L47.9066 146.363L47.8098 146.384L47.7165 146.419L47.6231 146.461L47.5402 146.51L47.4676 146.569L47.4053 146.643L47.3569 146.727L47.3085 146.681L47.2601 146.636L47.2117 146.587L47.1598 146.538L47.108 146.485L47.0561 146.433L47.0077 146.377L46.9628 146.317L46.9178 146.261L46.8798 146.202L46.8418 146.139L46.8107 146.076L46.7864 146.013V145.95V145.883V145.771V145.726V145.68V145.635V145.593L46.8072 145.551L46.8314 145.512L46.8625 145.474L46.8971 145.439L46.9386 145.407L46.9835 145.379L47.0872 145.362L47.146 145.344H47.2152H47.2912H47.4606H47.5125H47.5713H47.637H47.7096H47.7856H47.8686H47.9516H48.038H48.1279H48.2178H48.3077H48.401H48.4875H48.5774L48.5497 145.285L48.5117 145.215L48.4667 145.131L48.4114 145.04L48.3492 144.942L48.28 144.837L48.2074 144.725L48.1245 144.662L48.0415 144.539L47.9551 144.417L47.8652 144.291L47.7753 144.168L47.6854 144.049L48.9715 144.063ZM53.0374 144.063L53.1757 144.217L53.3382 144.392L53.5111 144.56L53.6909 144.728L53.881 144.893L54.0816 145.054H53.6079H53.3866H53.1723L52.9614 145.029L52.7574 144.991L52.5568 144.942L52.3632 144.872L52.1662 144.781L51.976 144.665L51.7824 144.522L51.5888 144.354L51.3952 144.151L51.3433 144.088L53.0374 144.063Z" fill="#4883A3"/>
<path d="M35.5609 139.022L35.4897 139.104L35.2999 139.283L35.1134 139.436L34.9236 139.556L34.7337 139.653L34.5439 139.727L34.3472 139.783L34.1472 139.824L33.9404 139.85H33.7302H33.5133H33.0488L33.2421 139.679L33.4319 139.5L33.6082 139.324L33.7811 139.142L33.9031 139L35.5609 139.022ZM37.934 139.022L37.1 140.492L36.8966 140.827L36.6966 141.118L36.5067 141.364L36.3169 141.58L36.127 141.763L35.9406 141.909L35.7507 142.035L35.5609 142.132L35.3677 142.203L35.1609 142.27L34.9609 142.308L34.754 142.334H34.5439H34.3269H33.8658L34.0591 142.162L34.2489 141.983L34.4252 141.808L34.5947 141.625L34.754 141.443L34.91 141.256L35.0524 141.081L35.1914 140.902L35.3134 140.73L35.4355 140.555L35.5439 140.395L35.6456 140.238L35.7372 140.089L35.8219 139.951L35.8965 139.82L35.9643 139.705L36.361 139.004L37.934 139.022ZM40.1579 139.022L38.1781 142.509L37.978 142.841L37.7814 143.132L37.5848 143.385L37.3949 143.602L37.2051 143.781L37.022 143.93L36.8322 144.053L36.6389 144.15L36.4491 144.224L36.2525 144.28L36.0525 144.318L35.8491 144.347H35.6355H35.4151H34.9507L35.1473 144.176L35.3371 143.997L35.5134 143.822L35.6829 143.639L35.8491 143.456L35.9982 143.277L36.144 143.094L36.2796 142.915L36.405 142.74L36.5237 142.572L36.6322 142.408L36.7373 142.252L36.8288 142.103L36.9136 141.965L36.9881 141.834L37.0525 141.718L38.5984 139L40.1579 139.022ZM42.3818 139.022L39.4527 144.183L39.2493 144.515L39.0527 144.806L38.9103 144.989H37.2526L37.2695 144.97L37.4119 144.791L37.5509 144.612L37.6797 144.433L37.795 144.265L37.9068 144.101L38.0085 143.945L38.1001 143.796L38.1848 143.658L38.2628 143.527L38.3306 143.415L40.8223 139.022H42.3818ZM46.7889 139.022V139.175L46.8296 139.548L46.894 139.921L46.9855 140.275L47.0974 140.63L47.2296 140.969L47.3856 141.305L47.5551 141.633L47.7415 141.953L47.9449 142.267L48.1619 142.572L48.3924 142.867L48.6331 143.154L48.884 143.438L49.145 143.71L49.4129 143.971H49.3925H49.3756H49.3518H49.3078H49.284H48.5009H48.4704H48.4128H48.389L48.4568 144.127L48.5314 144.295L48.6128 144.459L48.6975 144.627L48.7891 144.799L48.8874 144.97V144.989H47.6093L47.5178 144.858L47.4262 144.728L47.3381 144.608V144.653V144.702V144.75L47.3212 144.795L47.3008 144.847L47.2805 144.892L47.2567 144.937L47.233 144.985H46.894V144.881L46.8669 144.732L46.8296 144.575L46.7923 144.403L46.7448 144.228L46.6906 144.053L46.633 143.87L46.5652 143.691L46.4906 143.516L46.4092 143.341L46.3177 143.173L46.2228 143.012L46.1177 142.867V142.96L46.1007 143.057V143.158V143.259V143.367V143.479V143.594V143.717V143.844V143.978V144.127V144.28V144.448V144.623V144.996H44.4057V144.459V144.291V144.139V143.989V143.855V143.728V143.605V143.49V143.378L44.3887 143.27V143.169V143.068V142.971V142.878L44.2802 143.024L44.1853 143.184L44.0938 143.352L44.0158 143.527L43.9412 143.702L43.8734 143.881L43.8158 144.064L43.7615 144.239L43.7175 144.415L43.6734 144.586L43.6395 144.743L43.609 144.892L43.592 144.996H43.27L43.2463 144.948L43.2225 144.903L43.1988 144.858V144.806L43.1785 144.761V144.713L43.1615 144.664V144.62L43.0734 144.739L42.9818 144.869L42.8903 145H41.2291V144.981L41.3207 144.81L41.4122 144.638L41.5037 144.47L41.5851 144.306L41.6597 144.139L41.7275 143.982H41.7038H41.6461H41.6156H40.8325H40.8088H40.7647H40.741H40.724H40.7037L40.9715 143.721L41.2291 143.449L41.4834 143.165L41.7207 142.878L41.9546 142.584L42.1716 142.278L42.3716 141.965L42.5581 141.644L42.731 141.316L42.8835 140.98L43.0191 140.641L43.1276 140.287L43.2191 139.932L43.2835 139.559L43.3242 139.186V139.034L46.7889 139.022ZM49.3179 139.022L51.8096 143.415L51.8775 143.527L51.952 143.658L52.0334 143.796L52.1317 143.945L52.23 144.101L52.3419 144.265L52.4606 144.433L52.586 144.612L52.725 144.791L52.8708 144.97V144.989H51.2096L51.0706 144.806L50.8706 144.515L50.6706 144.183L47.7415 139.022H49.3179ZM51.5418 139.022L53.0843 141.741L53.1487 141.856L53.2267 141.987L53.3115 142.125L53.403 142.274L53.5047 142.431L53.6132 142.595L53.7318 142.763L53.8607 142.938L53.9929 143.117L54.142 143.3L54.2912 143.479L54.4505 143.661L54.62 143.844L54.7997 144.019L54.9896 144.198L55.1862 144.37H54.7218H54.5048H54.2912L54.0844 144.34L53.8878 144.303L53.6912 144.247L53.5013 144.172L53.3115 144.075L53.1216 143.952L52.9318 143.803L52.7419 143.624L52.5521 143.408L52.3589 143.154L52.1622 142.863L51.9622 142.531L49.9824 139.048L51.5418 139.022ZM53.7657 139.022L54.1624 139.723L54.2336 139.839L54.3082 139.97L54.3895 140.108L54.4844 140.257L54.5861 140.413L54.6946 140.574L54.8133 140.749L54.9387 140.92L55.0743 141.099L55.2201 141.275L55.3726 141.461L55.532 141.644L55.7049 141.827L55.8846 142.002L56.071 142.181L56.2676 142.352H55.8032H55.5862H55.3726L55.1659 142.326L54.9658 142.289L54.7726 142.229L54.5828 142.158L54.3895 142.062L54.1997 141.935L54.0098 141.789L53.8234 141.607L53.6301 141.39L53.4369 141.144L53.2403 140.853L53.0436 140.518L52.2097 139.052L53.7657 139.022ZM56.227 139.022L56.3524 139.164L56.5253 139.347L56.7016 139.522L56.888 139.701L57.0847 139.873H56.6202H56.3998H56.1897L55.9829 139.846L55.7862 139.805L55.5896 139.75L55.3998 139.675L55.2065 139.578L55.0167 139.459L54.8235 139.287L54.6336 139.108L54.5624 139.026L56.227 139.022Z" fill="#4883A3"/>
<path d="M36.295 134.018L35.2997 135.408L35.0979 135.679L34.8961 135.91L34.7079 136.114L34.5164 136.285L34.3249 136.432L34.1333 136.553L33.9418 136.652L33.7537 136.73L33.5587 136.79L33.3569 136.835L33.1551 136.865L32.9499 136.889H32.7344H32.5155H32.0469L32.2418 136.751L32.4334 136.61L32.6147 136.465L32.7823 136.318L32.9464 136.174L33.1004 136.024L33.2474 135.88L33.3843 135.736L33.5108 135.595L33.6339 135.456L33.7434 135.324L33.8494 135.198L33.9418 135.081L34.0273 134.967L34.1025 134.865L34.1709 134.772L34.7216 134L36.295 134.018ZM38.1831 134.018L38.231 134.075L38.5012 134.354L38.8022 134.619L39.1442 134.862L39.4862 135.075L39.8659 135.267L40.2661 135.426L40.6834 135.559L41.1178 135.655L41.5624 135.715L42.0208 135.736V135.697V135.658V134.667H41.6206L41.2272 134.619L40.8441 134.544L40.4713 134.444L40.1293 134.315L39.7872 134.168L39.5444 134.033H49.6346L49.4225 134.15L49.0805 134.3L48.7384 134.429L48.3724 134.532L47.9928 134.61L47.6063 134.658L47.2095 134.679V135.471V135.511V135.673V135.712V135.73L47.6576 135.703L48.0988 135.64L48.5298 135.541L48.9402 135.408L49.337 135.246L49.7132 135.054L50.0553 134.838L50.3973 134.598L50.6949 134.336L50.9617 134.054L50.9959 134.012H52.8361V134.03L52.819 134.066V134.099L52.8019 134.132L52.7848 134.168V134.201L52.7642 134.234L52.7471 134.27L52.7266 134.306L52.7095 134.339L52.6924 134.372L52.6719 134.408L52.6514 134.441L52.6308 134.474L52.6103 134.508L54.6626 137.378L54.731 137.474L54.8096 137.577L54.8951 137.691L54.9875 137.811L55.0901 137.937L55.1996 138.069L55.3193 138.204L55.4458 138.345L55.5826 138.489L55.7297 138.637L55.8836 138.781L55.9213 138.814H54.2487L54.129 138.706L53.9306 138.504L53.7356 138.27L53.5338 138.003L51.6868 135.538L51.6629 135.559L51.6389 135.58L51.6116 135.604L51.5842 135.628L51.5603 135.649L51.5363 135.673L51.5089 135.694L51.485 135.718L51.4576 135.739L51.4337 135.763L51.4029 135.784L51.3755 135.805L51.3516 135.826L51.3242 135.85L51.2969 135.871L51.2729 135.892L53.3525 138.82H51.7826L50.2024 136.601L50.1681 136.619L50.1408 136.634L50.11 136.652L50.0826 136.667L50.0484 136.685L50.0177 136.7H49.9903L49.9595 136.718L49.9287 136.733L49.8979 136.748L49.8637 136.763L49.8364 136.781L49.8056 136.796H49.7714L49.7406 136.811L49.7132 136.829L51.1088 138.79H49.5354L48.4887 137.324H48.4579H48.4237H48.3895H48.3553H48.3211H48.2869H48.2493H48.2185H48.1843H48.1467H48.1125H48.0783H48.0475H48.0099H47.9757H47.9415L48.865 138.619H47.2916L46.5802 137.832H46.4707L46.4502 137.886L46.4331 137.937L46.416 137.988V138.039V138.087V138.138V138.189V138.24V138.288V138.336V138.387V138.435V138.486V138.631V138.808H42.8417V138.631V138.486V138.435V138.387V138.336V138.288V138.24V138.189V138.138V138.087V138.039L42.8246 137.988L42.8075 137.937V137.886L42.7869 137.832H42.6775L41.9695 138.826H40.3961L41.3196 137.532H41.2854H41.2478H41.2135H41.1793H41.1451H41.1075H41.0767H41.0425H41.0083H40.9741H40.9399H40.9057H40.8715H40.8339H40.7997H40.7723L39.7257 139H38.1523L39.5478 137.039L39.5204 137.021L39.4862 137.006H39.4555L39.4247 136.991L39.3939 136.973L39.3631 136.958L39.3323 136.943L39.3015 136.928L39.2708 136.91H39.24L39.2092 136.895L39.1784 136.877L39.1476 136.862L39.0313 136.631L38.9971 136.616L38.9698 136.598L37.393 138.82H35.8162L37.8992 135.892L37.8752 135.871L37.8445 135.85L37.8205 135.826L37.7932 135.805L37.7658 135.784L37.7384 135.763L37.7145 135.739L37.6632 135.73L37.6358 135.706L37.6084 135.685L37.5845 135.661L37.5606 135.64L37.5332 135.616L37.5093 135.592L37.4853 135.571L37.4579 135.55L35.7033 138.021L35.4946 138.288L35.2963 138.523L35.1013 138.724L34.9816 138.832H33.309L33.3466 138.799L33.5005 138.655L33.6476 138.508L33.7844 138.363L33.9144 138.222L34.0307 138.087L34.1436 137.955L34.2462 137.829L34.3385 137.709L34.4275 137.595L34.5027 137.492L34.5677 137.396L36.62 134.526L36.5994 134.492L36.5789 134.459L36.5584 134.426V134.39L36.5379 134.357L36.5208 134.324L36.5002 134.288L36.4831 134.252V134.219L36.4626 134.186V134.15L36.4455 134.117L36.4284 134.084V134.048V134.03L38.1831 134.018ZM54.4129 134.018L54.9601 134.79L55.0251 134.883L55.1038 134.985L55.1893 135.099L55.2816 135.216L55.3843 135.342L55.4937 135.474L55.6168 135.613L55.7434 135.754L55.8802 135.898L56.0273 136.042L56.1812 136.192L56.3454 136.336L56.513 136.483L56.6943 136.628L56.8858 136.769L57.0842 136.907H56.6156H56.3933H56.1812L55.9726 136.883L55.7708 136.853L55.5724 136.808L55.3774 136.748L55.1893 136.67L54.9977 136.571L54.8096 136.45L54.6181 136.303L54.4231 136.132L54.2282 135.928L54.0298 135.697L53.828 135.426L52.8361 134.036L54.4129 134.018Z" fill="#4883A3"/>
<path d="M35.0527 133.986L36.5314 131.652L36.5697 131.467L36.6219 131.282L36.6741 131.104L36.7367 130.926L36.8097 130.752L36.8863 130.574L36.9733 130.406L37.0637 130.235L37.1611 130.074L37.2655 129.913L37.3768 129.759L37.4952 129.605L37.6204 129.458L37.7491 129.317L37.8883 129.177L38.0309 129.047L37.9822 129.03L37.9335 129.009L37.8883 128.992H37.8431L37.8013 128.968H37.7561L37.7143 128.951L37.6761 128.931L37.6378 128.913L37.5995 128.893L37.5682 128.876L37.5334 128.855H37.5021L37.4743 128.838L37.4464 128.818L37.4221 128.8H37.6691L37.9127 128.783L38.1632 128.749L38.4067 128.708L38.6433 128.653L38.8799 128.599L39.1095 128.537L39.3356 128.479L39.5479 128.414L39.7601 128.355L39.9584 128.297L40.1498 128.246L40.3272 128.205L40.4977 128.171L40.6543 128.15H40.7969H40.8804H40.9604H41.0405L41.1135 128.171L41.1831 128.198L41.2423 128.229L41.3014 128.266L41.3571 128.308L41.4023 128.349L41.4441 128.4L41.4788 128.451L41.5102 128.51L41.531 128.568L41.5519 128.629V128.694V128.763V128.838L41.531 128.913L41.5032 128.989L41.4649 129.057L41.4197 129.129L41.364 129.198L41.2979 129.259L41.2283 129.321L41.1448 129.376L41.0544 129.427L40.9535 129.468L40.8456 129.506L40.7273 129.536L40.6021 129.56H40.4699H40.3272H39.9445H39.9028H39.8575H39.8158H39.7671H39.7218H39.6766L39.5966 129.666L39.5235 129.773L39.4505 129.879L39.3774 129.985L39.3113 130.094L39.2487 130.2L39.1895 130.31L39.1373 130.423L39.0782 130.461L39.0364 130.574L38.9982 130.69L38.9669 130.813L38.939 130.936L38.9182 131.066V131.197V131.337V131.594L38.9808 131.844L39.0712 132.09L39.1965 132.319L39.3496 132.538L39.534 132.744L39.7427 132.939L39.9724 133.113L40.2229 133.274L40.4908 133.418L40.7761 133.541L41.0718 133.644L41.3779 133.726L41.6911 133.784L42.0112 133.822H42.3347H42.62L42.6896 133.617L42.7662 133.415L42.8497 133.223L42.9401 133.035L43.0375 132.857L43.1384 132.686L43.2533 132.514L43.3646 132.354L43.4759 132.193L43.5873 132.045L43.7055 131.898L43.8204 131.751L43.9387 131.614L44.05 131.47L44.1648 131.337L44.2761 131.197L44.1439 131.145L44.0152 131.087L43.883 131.019L43.7508 130.947L43.629 130.868L43.5038 130.786L43.3855 130.704L43.2776 130.618L43.1767 130.533L43.0862 130.444L43.0027 130.358L42.9366 130.279L42.8775 130.2L42.8392 130.129L42.8114 130.064V130.002H42.8705H42.9193L42.9923 130.026L43.0862 130.053L43.1906 130.084L43.3124 130.118L43.4411 130.156L43.5733 130.197L43.7055 130.238L43.8378 130.276L43.963 130.313L44.0778 130.351L44.1787 130.382L44.2622 130.406L44.3318 130.423H44.3701H44.4571H44.4884H44.5197L44.544 130.402L44.5719 130.382L44.5962 130.361L44.6241 130.337L44.6449 130.31L44.6658 130.286L44.6832 130.262L44.7041 130.238V130.214V130.194V130.177H44.6658H44.6171H44.558H44.4814H44.3944H44.297L44.1961 130.156H44.0883L43.9769 130.132L43.8552 130.108L43.7334 130.084L43.6151 130.053L43.4933 130.022L43.375 129.988L43.2602 129.954L43.1489 129.916L43.0723 129.889L42.9993 129.855L42.9297 129.821L42.8636 129.779L42.8079 129.745L42.7522 129.704L42.7035 129.666L42.6618 129.625L42.6235 129.588L42.5887 129.55L42.5609 129.516L42.5365 129.478V129.447V129.42V129.393V129.372H42.5922H42.627L42.6687 129.389L42.7209 129.406L42.7836 129.427L42.8566 129.451L42.9366 129.471L43.0201 129.499L43.1176 129.526L43.2219 129.547L43.3298 129.571L43.4481 129.591H43.5699H43.6986H43.8378H44.3979H44.4292H44.5127H44.5545H44.6101L44.5684 129.502L44.5232 129.417L44.4779 129.334L44.4257 129.256L44.3736 129.18L44.3179 129.109L44.2518 129.04L44.1926 128.982L44.1265 128.924L44.057 128.876L43.9874 128.828L43.9178 128.794L43.8378 128.763L43.7647 128.739H43.6847H43.4933H43.4481H43.3959H43.3437H43.288H43.2324L43.1732 128.759L43.1141 128.777L43.0549 128.8L42.9923 128.821L42.9332 128.845L42.8705 128.869L42.8079 128.9L42.7522 128.927L42.7105 128.862L42.6722 128.797L42.634 128.732L42.5957 128.664L42.5644 128.592L42.5574 128.407L42.5226 128.335L42.4983 128.27L42.4704 128.201L42.4461 128.136L42.4252 128.075L42.4078 128.013V127.955V127.897V127.849V127.746V127.695V127.64L42.4322 127.585L42.4669 127.534L42.5087 127.483L42.5609 127.435L42.6166 127.387L42.6861 127.346L42.7662 127.308L42.8531 127.277L42.954 127.243L43.0619 127.222L43.1837 127.205H43.3159H43.8621H43.8969H43.9352H44.0117H44.05H44.0848H44.1126H44.1404H44.1683H44.1961H44.224H44.2518H44.2761H44.3005H44.3283H44.3527H44.3805H44.4084H44.4327H44.4571H44.4849H44.5127V127.171V127.116V127.096V127.075V127.055V127.038L44.5336 127.021L44.558 127H44.5893H44.6206H44.6623H44.7041H44.7563H44.8085H45.0624H45.1842H45.306H45.4382L45.56 127.017H45.6887L45.8209 127.038L45.9496 127.058L46.0888 127.079L46.221 127.099L46.3602 127.116H46.4994H46.6455H46.7916H46.9412H47.0943H47.4422H47.4701H47.4944H47.5188H47.5431H47.5675V127.151L47.5501 127.181L47.5327 127.212L47.5083 127.25L47.484 127.288L47.4561 127.325L47.4248 127.363L47.39 127.4L47.3553 127.442L47.317 127.479L47.2787 127.52L47.2404 127.561L47.1987 127.599L47.1639 127.633L47.1221 127.674L47.0804 127.712L47.1082 127.746L47.1395 127.787L47.1743 127.835L47.2091 127.89L47.2509 127.948L47.2891 128.013L47.3274 128.085L47.3657 128.164L47.404 128.246L47.4388 128.335L47.4701 128.431L47.4979 128.533L47.5222 128.64L47.5396 128.756V128.876V129.091V129.297L47.5153 129.495L47.477 129.694L47.4318 129.889L47.3761 130.081L47.3135 130.272L47.2474 130.464L47.1743 130.652L47.1082 130.844L47.0421 131.032L46.9795 131.224L46.9204 131.419L46.8751 131.614L46.8368 131.816L46.816 132.011V132.223V132.35L46.8334 132.47L46.8577 132.586L46.896 132.706L46.9343 132.819L46.983 132.932L47.0352 133.038L47.0908 133.144L47.1465 133.244L47.2022 133.339L47.2613 133.432L47.3135 133.521L47.3622 133.603L47.4109 133.682L47.4527 133.754L47.484 133.822H47.7762H48.0998L48.4199 133.784L48.733 133.726L49.0427 133.644L49.3384 133.541L49.6202 133.418L49.8881 133.274L50.1386 133.113L50.3717 132.939L50.5805 132.744L50.7614 132.538L50.918 132.319L51.0397 132.09L51.1337 131.844L51.1893 131.594L51.2102 131.337V131.197V131.066L51.1893 130.936L51.165 130.813L51.1302 130.69L51.0919 130.574L51.0467 130.461L51.0015 130.348L50.9458 130.235L50.8867 130.125L50.8205 130.019L50.7544 129.91L50.6849 129.803L50.6118 129.697L50.5353 129.591L50.4587 129.485H50.41H50.3648H50.3195H50.2743H50.2326H50.1873H49.8046H49.662H49.5298L49.4045 129.461L49.2862 129.43L49.1679 129.434L49.067 129.393L48.9766 129.341L48.8931 129.287L48.8235 129.225L48.7574 129.163L48.7017 129.095L48.653 129.023L48.6182 128.955L48.5904 128.879L48.5695 128.804V128.729V128.66V128.595L48.5869 128.533L48.6112 128.475L48.6391 128.417L48.6774 128.366L48.7191 128.314L48.7678 128.273L48.8165 128.232L48.8757 128.195L48.9383 128.164L49.0079 128.136L49.0809 128.116H49.1575H49.2375H49.3245H49.4671L49.6237 128.136L49.7907 128.171L49.9716 128.212L50.1595 128.263L50.3613 128.321L50.57 128.379L50.7858 128.444L51.0084 128.503L51.2381 128.564L51.4746 128.619L51.7147 128.674L51.9583 128.715L52.2018 128.749L52.4523 128.766H52.7028L52.675 128.783L52.6471 128.804L52.6193 128.821H52.588L52.5532 128.842L52.5184 128.859L52.4801 128.879L52.4453 128.896L52.4036 128.917L52.3618 128.934H52.3236L52.2783 128.958H52.2331L52.1844 128.975L52.1392 128.996L52.0905 129.013L52.2331 129.143L52.3688 129.283L52.501 129.423L52.6263 129.571L52.7446 129.725L52.8524 129.879L52.9603 130.04L53.0577 130.2L53.1481 130.372L53.2316 130.539L53.3117 130.717L53.3812 130.892L53.4439 131.07L53.4996 131.248L53.5448 131.433L53.59 131.618L55.0826 133.986H53.4787L53.4439 133.928V133.966V133.986H51.5755L51.7739 133.695L51.9757 133.353L52.1357 132.983L52.254 132.6L52.327 132.21L52.3549 131.82V131.59L52.327 131.371L52.2818 131.159L52.2192 130.954L52.1461 130.758L52.0626 130.574L51.9722 130.396L51.8748 130.231L51.7739 130.074L51.673 129.93L51.5686 129.8L51.4712 129.68L51.3737 129.581L51.2902 129.489L51.2102 129.413L51.1441 129.355H51.085H50.9075L50.9702 129.43L51.0432 129.516L51.1163 129.608L51.1928 129.708L51.2728 129.81L51.3494 129.923L51.4259 130.036L51.5025 130.159L51.5686 130.289L51.6347 130.423L51.6938 130.56L51.7425 130.707L51.7843 130.858L51.8121 131.015L51.833 131.173V131.34L51.8086 131.683L51.7425 132.001L51.6416 132.316L51.499 132.614L51.3216 132.905L51.1128 133.178L50.8727 133.435L50.6048 133.671L50.3126 133.89L50.2117 133.955H39.9306L39.8575 133.908L39.5618 133.692L39.2904 133.452L39.0434 133.196L38.8312 132.918L38.6502 132.627L38.5076 132.326L38.4032 132.008L38.3371 131.683L38.3162 131.34V131.173L38.3336 131.015L38.365 130.858L38.4067 130.707L38.4589 130.56L38.5146 130.423L38.5772 130.289L38.6468 130.159L38.7198 130.036L38.7964 129.923L38.8764 129.81L38.9564 129.708L39.033 129.608L39.1025 129.516L39.1756 129.43L39.2417 129.355H39.0782H39.019L38.9564 129.413L38.8764 129.489L38.7894 129.581L38.6955 129.68L38.5946 129.8L38.4937 129.93L38.3893 130.074L38.2919 130.231L38.191 130.396L38.1005 130.574L38.017 130.758L37.944 130.954L37.8848 131.159L37.8361 131.371L37.8083 131.59V131.82L37.8292 132.213L37.9022 132.61L38.0205 132.994L38.1875 133.363L38.3893 133.723L38.5807 134H36.7158V133.979L36.6984 133.942L36.6636 134L35.0527 133.986ZM45.5182 128.544H45.6296H45.7374L45.8348 128.52L45.9253 128.482L46.0123 128.434L46.0819 128.376L46.141 128.311L46.1932 128.239L46.221 128.167L46.2419 128.089V128.017V127.945L46.2071 127.88L46.1514 127.825L46.0784 127.78L45.981 127.75V127.794V127.839V127.883L45.9636 127.924L45.9427 127.962L45.9183 127.996L45.8835 128.03L45.8522 128.061L45.8209 128.089L45.7861 128.112L45.7548 128.133H45.727H45.7026H45.6817V128.102V128.082V128.051V128.017V127.982V127.941V127.9V127.811V127.767V127.726L45.6991 127.681L45.72 127.644L45.7548 127.606L45.6957 127.575L45.633 127.558H45.5843H45.5356H45.4939H45.4591H45.4278L45.3999 127.578L45.3756 127.602L45.3547 127.63V127.657V127.695V127.729V127.767V127.852L45.3825 127.883L45.4034 127.917L45.4243 127.955L45.4521 127.993L45.473 128.03L45.4904 128.068L45.5113 128.109V128.147V128.188L45.5287 128.225V128.27V128.311V128.355V128.397V128.441L45.5182 128.544ZM44.9929 129.732L45.0137 129.684L45.0346 129.632L45.059 129.581L45.0833 129.53L45.1042 129.478L45.1251 129.423L45.1494 129.369L45.1703 129.314V129.256L45.1877 129.198L45.2051 129.139V129.081V129.016V128.958V128.831V128.664L45.1773 128.506L45.1355 128.362L45.0729 128.229L44.9998 128.106L44.9094 127.993L44.8085 127.893L44.6902 127.801L44.5649 127.722L44.4223 127.654L44.2761 127.596L44.1126 127.548L43.9421 127.51L43.7647 127.483H43.5803H43.288H43.1976H43.1141H43.0306L42.961 127.5H42.8914L42.8323 127.524L42.7801 127.548L42.7314 127.575L42.6931 127.599L42.6548 127.63L42.627 127.657L42.6061 127.688L42.5887 127.719V127.753V127.856V127.9V127.941V127.989V128.037L42.6061 128.085L42.627 128.136L42.6479 128.184L42.6687 128.232L42.6896 128.273L42.7105 128.318V128.355L42.7314 128.393V128.421L42.7488 128.448L42.7836 128.431H42.8253L42.8705 128.414L42.9158 128.397H42.961H43.0132H43.0619H43.1141H43.1628H43.215H43.2637H43.3159H43.3611H43.4063H43.4898H43.622L43.7473 128.421L43.8726 128.465L43.9908 128.52L44.1057 128.592L44.21 128.67L44.3075 128.763L44.4014 128.866L44.4884 128.972L44.5719 129.088L44.638 129.208L44.7006 129.331L44.7597 129.454L44.805 129.581L44.8433 129.704L44.9929 129.732Z" fill="#4883A3"/>
<path d="M36.5954 106.489C36.5954 107.245 36.1005 107.543 35.7018 107.543C35.1793 107.543 34.9284 107.172 34.9284 106.627V103.48H34.1895V106.939C34.1895 107.715 34.6225 108.109 35.4165 108.109C35.6478 108.114 35.8762 108.057 36.0784 107.945C36.2807 107.833 36.4496 107.669 36.5679 107.471H36.5954V108.02H37.3791C37.3516 107.704 37.3344 107.389 37.3344 107.076V103.48H36.5954V106.489Z" fill="#004467"/>
<path d="M41.8692 108.02V104.873C41.8692 103.974 41.6286 103.387 40.6559 103.387C40.4067 103.36 40.1553 103.412 39.937 103.535C39.7188 103.658 39.5447 103.846 39.4391 104.073H39.4048V103.49H38.6211C38.6452 103.802 38.6658 104.118 38.6658 104.434V108.03H39.4048V105.316C39.4048 104.695 39.5216 103.977 40.3293 103.977C40.9618 103.977 41.1336 104.372 41.1336 104.859V108.006L41.8692 108.02Z" fill="#004467"/>
<path fill-rule="evenodd" clip-rule="evenodd" d="M45.4833 103.943H45.4592C45.3553 103.773 45.2086 103.633 45.0338 103.536C44.859 103.44 44.6621 103.391 44.4625 103.394C42.9948 103.394 42.957 104.698 42.957 105.831C42.957 107.828 43.696 108.116 44.4247 108.116C44.6386 108.12 44.8493 108.064 45.0319 107.952C45.2146 107.841 45.3616 107.68 45.4558 107.488H45.473V108.027H46.212V101.541H45.473L45.4833 103.943ZM45.4833 105.57C45.4833 106.49 45.4833 107.512 44.655 107.512C43.7269 107.512 43.7269 106.524 43.7269 105.841C43.7269 104.626 43.8369 103.998 44.6275 103.998C45.418 103.998 45.4833 104.969 45.4833 105.57Z" fill="#004467"/>
<path fill-rule="evenodd" clip-rule="evenodd" d="M51.4475 105.034C51.5676 105.017 51.6899 105.025 51.8066 105.058C51.9232 105.092 52.0314 105.149 52.1241 105.227C52.2167 105.306 52.2916 105.403 52.3439 105.512C52.3961 105.621 52.4245 105.74 52.4271 105.861C52.4993 106.723 52.4477 107.577 52.6814 108.02H53.5441C53.4204 107.461 53.3456 106.893 53.3207 106.321C53.2761 105.017 53.0045 104.763 52.2587 104.647V104.629C52.6066 104.576 52.9217 104.394 53.1414 104.119C53.3611 103.845 53.4693 103.497 53.4445 103.147C53.4445 102.337 53.0389 101.527 51.8875 101.527H49.6465V108.02H50.4748V105.034H51.4475ZM50.4748 102.248H51.7259C52.3652 102.248 52.5989 102.769 52.5989 103.236C52.5989 103.802 52.3102 104.314 51.7156 104.314H50.4748V102.248Z" fill="#004467"/>
<path fill-rule="evenodd" clip-rule="evenodd" d="M56.927 108.02H57.7381C57.6807 107.663 57.6508 107.301 57.6488 106.939V104.756C57.6488 103.991 57.3429 103.384 56.1708 103.384C55.2084 103.384 54.6654 103.727 54.631 104.756H55.425C55.4061 104.654 55.4107 104.55 55.4383 104.45C55.4659 104.35 55.5157 104.257 55.5842 104.179C55.6527 104.101 55.7379 104.04 55.8336 104C55.9292 103.959 56.0328 103.941 56.1365 103.946C56.9304 103.946 56.9201 104.602 56.9029 105.206C55.8718 105.178 54.5176 105.24 54.5176 106.616C54.5176 107.488 54.796 108.109 55.7584 108.109C56.0052 108.129 56.2516 108.066 56.4588 107.931C56.6659 107.795 56.8222 107.595 56.9029 107.361H56.9201L56.927 108.02ZM56.9098 105.762C56.982 107.227 56.4217 107.505 55.9715 107.505C55.5212 107.505 55.26 107.111 55.26 106.671C55.26 105.707 56.2086 105.772 56.9098 105.762Z" fill="#004467"/>
<path d="M61.34 106.489C61.34 107.245 60.8451 107.543 60.4498 107.543C59.9274 107.543 59.6765 107.172 59.6765 106.627V103.48H58.9375V106.939C58.9375 107.715 59.3671 108.109 60.1611 108.109C60.3925 108.114 60.621 108.058 60.8233 107.946C61.0256 107.834 61.1944 107.67 61.3125 107.471H61.34V108.02H62.1237C62.0962 107.704 62.079 107.389 62.079 107.076V103.48H61.34V106.489Z" fill="#004467"/>
<path d="M66.3857 108.02V104.973C66.3686 104.684 66.4578 104.4 66.6366 104.173C66.7105 104.103 66.7995 104.052 66.8967 104.022C66.9938 103.992 67.0965 103.985 67.1968 104.001C67.7914 104.001 67.9152 104.423 67.9152 104.883V108.03H68.6541V104.564C68.6541 103.497 67.8877 103.387 67.4099 103.387C67.1917 103.365 66.9718 103.409 66.7792 103.513C66.5865 103.618 66.4302 103.779 66.3307 103.974C66.2295 103.784 66.0753 103.627 65.8868 103.523C65.6982 103.419 65.4835 103.372 65.2686 103.387C65.0337 103.36 64.7963 103.41 64.5919 103.528C64.3874 103.647 64.227 103.829 64.1344 104.046H64.1137V103.48H63.3301C63.3541 103.792 63.3748 104.108 63.3748 104.423V108.02H64.1103V104.973C64.1101 104.74 64.1692 104.511 64.2821 104.307C64.3608 104.213 64.4586 104.138 64.5688 104.085C64.679 104.032 64.7993 104.004 64.9215 104.001C65.5161 104.001 65.6432 104.423 65.6432 104.883V108.03L66.3857 108.02Z" fill="#004467"/>
<path fill-rule="evenodd" clip-rule="evenodd" d="M71.5174 108.109C72.4832 108.109 73.2359 107.821 73.2359 105.817C73.2359 104.485 73.0847 103.387 71.5174 103.387C69.9501 103.387 69.7988 104.485 69.7988 105.817C69.7988 107.821 70.5653 108.109 71.5174 108.109ZM71.5174 107.505C70.7509 107.505 70.5619 106.977 70.5619 105.501C70.5619 104.259 70.9503 103.991 71.5174 103.991C72.0845 103.991 72.4729 104.259 72.4729 105.501C72.4729 106.977 72.2838 107.505 71.5174 107.505Z" fill="#004467"/>
<path d="M75.1882 103.48H74.4492V108.02H75.1882V105.34C75.1882 104.729 75.3944 104.108 76.2193 104.108C76.2857 104.104 76.3523 104.104 76.4187 104.108L76.618 104.135V103.37C75.8962 103.37 75.5182 103.452 75.2123 104.145H75.1951L75.1882 103.48Z" fill="#004467"/>
<path fill-rule="evenodd" clip-rule="evenodd" d="M79.7328 103.943H79.7053C79.6008 103.773 79.4536 103.632 79.2782 103.536C79.1028 103.44 78.9053 103.391 78.7051 103.394C77.2375 103.394 77.2031 104.698 77.2031 105.831C77.2031 107.828 77.9421 108.116 78.6708 108.116C78.8846 108.12 79.0951 108.063 79.2777 107.952C79.4603 107.841 79.6074 107.68 79.7019 107.488H79.7191V108.027H80.4581V101.541H79.7191L79.7328 103.943ZM79.7328 105.57C79.7328 106.49 79.7328 107.512 78.9045 107.512C77.9765 107.512 77.9765 106.524 77.9765 105.841C77.9765 104.626 78.0865 103.998 78.877 103.998C79.6675 103.998 79.7328 104.969 79.7328 105.57Z" fill="#004467"/>
<path d="M84.9488 108.02V104.873C84.9488 103.974 84.7082 103.387 83.7355 103.387C83.4863 103.36 83.2349 103.412 83.0167 103.535C82.7984 103.658 82.6243 103.846 82.5187 104.073H82.4809V103.49H81.6973C81.7248 103.802 81.7419 104.118 81.7419 104.434V108.03H82.4809V105.316C82.4809 104.695 82.5978 103.977 83.4089 103.977C84.0414 103.977 84.2098 104.372 84.2098 104.859V108.006L84.9488 108.02Z" fill="#004467"/>
<path d="M88.5876 106.489C88.5876 107.245 88.0927 107.543 87.6974 107.543C87.175 107.543 86.9206 107.172 86.9206 106.627V103.48H86.1816V106.939C86.1816 107.715 86.6147 108.109 87.4087 108.109C87.64 108.114 87.8686 108.058 88.0709 107.946C88.2732 107.834 88.442 107.67 88.5601 107.471H88.5876V108.02H89.3713C89.3438 107.704 89.3266 107.389 89.3266 107.076V103.48H88.5876V106.489Z" fill="#004467"/>
<path d="M93.7754 108.02V104.873C93.7754 103.974 93.5348 103.387 92.5621 103.387C92.3129 103.36 92.0615 103.412 91.8433 103.535C91.6251 103.658 91.4509 103.846 91.3454 104.073H91.311V103.49H90.5273C90.5548 103.802 90.572 104.118 90.572 104.434V108.03H91.311V105.316C91.311 104.695 91.4279 103.977 92.2356 103.977C92.868 103.977 93.0399 104.372 93.0399 104.859V108.006L93.7754 108.02Z" fill="#004467"/>
<path fill-rule="evenodd" clip-rule="evenodd" d="M97.2952 104.036H97.278C97.1877 103.833 97.0378 103.662 96.8481 103.546C96.6584 103.43 96.4379 103.375 96.2159 103.387C95.8447 103.387 94.793 103.524 94.793 105.607C94.793 106.96 95.0336 108.01 96.2709 108.01C96.4723 108.012 96.6706 107.96 96.8457 107.861C97.0208 107.761 97.1664 107.617 97.2677 107.444H97.2952V108.405C97.3042 108.51 97.2899 108.616 97.2532 108.716C97.2166 108.815 97.1585 108.906 97.0831 108.98C97.0077 109.055 96.9168 109.112 96.8169 109.148C96.7169 109.184 96.6103 109.197 96.5046 109.187C96.4147 109.195 96.3241 109.184 96.239 109.154C96.1538 109.124 96.0761 109.076 96.011 109.014C95.9458 108.951 95.8949 108.875 95.8614 108.792C95.828 108.708 95.8129 108.618 95.8172 108.528H94.9889C94.9236 109.365 95.611 109.743 96.3637 109.743C97.3639 109.743 98.0376 109.499 98.0376 108.483V103.476H97.2986L97.2952 104.036ZM97.3158 105.728C97.3158 106.356 97.3398 107.406 96.4496 107.406C95.8997 107.406 95.5663 107.063 95.5663 105.607C95.5663 105.007 95.5938 103.998 96.4325 103.998C97.3605 103.998 97.3158 105.051 97.3158 105.714" fill="#004467"/>
<path fill-rule="evenodd" clip-rule="evenodd" d="M34.9614 92.8199H34.2259V97.3604H34.9614V92.8199ZM34.1777 91.6599H35.0095V90.8672H34.1777V91.6599Z" fill="#004467"/>
<path d="M39.2127 97.3605V94.3026C39.1965 94.0145 39.2857 93.7303 39.4636 93.5029C39.5385 93.4349 39.6276 93.3842 39.7245 93.3545C39.8213 93.3249 39.9236 93.3169 40.0238 93.3313C40.6185 93.3313 40.7422 93.7534 40.7422 94.2133V97.3605H41.4812V93.9079C41.4812 92.8371 40.7147 92.7307 40.2404 92.7307C40.0221 92.7082 39.8021 92.7518 39.609 92.8559C39.4159 92.9599 39.2587 93.1196 39.1577 93.3142C39.056 93.1249 38.9016 92.9691 38.7131 92.8655C38.5247 92.762 38.3102 92.7152 38.0956 92.7307C37.8612 92.704 37.6243 92.7533 37.4201 92.8714C37.2158 92.9894 37.055 93.1699 36.9614 93.3862V92.82H36.1777C36.2018 93.1357 36.2224 93.448 36.2224 93.7637V97.3605H36.9614V94.3026C36.9601 94.07 37.0181 93.8409 37.1298 93.6368C37.2089 93.5439 37.3067 93.4687 37.4169 93.4161C37.527 93.3634 37.647 93.3346 37.7691 93.3313C38.3637 93.3313 38.4909 93.7534 38.4909 94.2133V97.3605H39.2127Z" fill="#004467"/>
<path fill-rule="evenodd" clip-rule="evenodd" d="M46.994 97.3604C47.733 97.3604 48.9498 97.1991 48.9498 95.5346C48.9498 94.6458 48.5442 94.0863 47.6162 93.98V93.9353C48.4548 93.7466 48.7332 93.2078 48.7332 92.3978C48.7231 92.0917 48.6331 91.7936 48.472 91.533C48.228 91.1898 47.9221 90.8672 47.0215 90.8672H44.9043V97.3604H46.994ZM45.7326 94.3334H46.616C47.4615 94.3334 48.1008 94.5119 48.1008 95.5449C48.1034 95.6986 48.0735 95.8511 48.0131 95.9925C47.9528 96.1339 47.8632 96.2611 47.7504 96.3656C47.6376 96.4702 47.504 96.5499 47.3582 96.5995C47.2125 96.6491 47.058 96.6675 46.9047 96.6535H45.7326V94.3334ZM45.7326 91.5879H46.9047C47.0379 91.5743 47.1725 91.5902 47.2988 91.6344C47.4252 91.6787 47.5402 91.7503 47.6358 91.844C47.7313 91.9377 47.8049 92.0513 47.8514 92.1767C47.8979 92.3021 47.9162 92.4362 47.9049 92.5694C47.9049 93.1975 47.5887 93.599 46.9391 93.599H45.7326V91.5879Z" fill="#004467"/>
<path d="M52.4963 95.8332C52.4963 96.5883 52.0013 96.8834 51.6061 96.8834C51.0836 96.8834 50.8327 96.5162 50.8327 95.9671V92.8199H50.0938V96.2828C50.0938 97.055 50.5268 97.4497 51.3174 97.4497C51.5493 97.4553 51.7785 97.3991 51.9815 97.2869C52.1845 97.1747 52.3538 97.0106 52.4722 96.8113H52.4963V97.3604H53.2799C53.2524 97.0447 53.2352 96.7324 53.2352 96.4167V92.8199H52.4963V95.8332Z" fill="#004467"/>
<path d="M57.7749 97.3605V94.2133C57.7749 93.3142 57.5309 92.7307 56.5582 92.7307C56.3094 92.7036 56.0584 92.7552 55.8406 92.8784C55.6229 93.0016 55.4494 93.1901 55.3449 93.4171H55.3071V92.8337H54.5234C54.5509 93.1494 54.5681 93.4617 54.5681 93.7775V97.3742H55.3071V94.6767C55.3071 94.0555 55.424 93.3348 56.2351 93.3348C56.8641 93.3348 57.036 93.7329 57.036 94.2168V97.3639L57.7749 97.3605Z" fill="#004467"/>
<path fill-rule="evenodd" clip-rule="evenodd" d="M61.477 93.2798H61.4495C61.3449 93.1094 61.1977 92.9691 61.0223 92.8728C60.8469 92.7765 60.6494 92.7275 60.4493 92.7307C58.9816 92.7307 58.9473 94.0349 58.9473 95.1674C58.9473 97.1648 59.6862 97.4497 60.4149 97.4497C60.6287 97.4534 60.8392 97.3964 61.0218 97.2852C61.2044 97.174 61.3515 97.0132 61.446 96.8216H61.4632V97.3604H62.2022V90.8672H61.477V93.2798ZM61.477 94.9066C61.477 95.8229 61.477 96.8491 60.6486 96.8491C59.7206 96.8491 59.7206 95.8607 59.7206 95.1743C59.7206 93.9628 59.8306 93.3313 60.6211 93.3313C61.4117 93.3313 61.477 94.3026 61.477 94.9066Z" fill="#004467"/>
<path fill-rule="evenodd" clip-rule="evenodd" d="M66.6709 95.3287V94.9409C66.6709 93.4411 66.3478 92.7307 65.0486 92.7307C63.4744 92.7307 63.3301 93.8255 63.3301 95.1571C63.3301 97.1648 64.0965 97.4497 65.0486 97.4497C66.0007 97.4497 66.6262 96.9932 66.6366 95.9842H65.8254C65.8319 96.0935 65.8163 96.2029 65.7796 96.306C65.743 96.4091 65.6859 96.5039 65.6118 96.5845C65.5378 96.6652 65.4482 96.7302 65.3485 96.7756C65.2488 96.8211 65.141 96.8461 65.0314 96.8491C64.4574 96.8491 64.1137 96.5985 64.1137 95.3287H66.6709ZM64.1137 94.7727C64.1137 93.5132 64.509 93.2867 64.9799 93.2867C65.5195 93.2867 65.8873 93.448 65.8873 94.7727H64.1137Z" fill="#004467"/>
<path d="M70.8227 96.0666C70.8227 94.6938 68.5542 94.6938 68.5542 93.8976C68.5552 93.8111 68.5742 93.7257 68.6101 93.647C68.646 93.5683 68.698 93.4979 68.7627 93.4404C68.8274 93.3829 68.9034 93.3395 68.9859 93.3131C69.0684 93.2866 69.1555 93.2776 69.2416 93.2867C69.3395 93.2745 69.4389 93.2851 69.532 93.3176C69.625 93.3501 69.7093 93.4037 69.7782 93.4742C69.8471 93.5446 69.8988 93.63 69.9291 93.7237C69.9594 93.8174 69.9677 93.9169 69.9531 94.0143H70.7746C70.8365 93.1151 70.1422 92.7307 69.331 92.7307C68.0524 92.7307 67.7671 93.496 67.7671 93.9697C67.7671 95.3424 70.0356 95.3424 70.0356 96.1558C70.0366 96.2546 70.0162 96.3525 69.9758 96.4427C69.9354 96.533 69.8759 96.6134 69.8015 96.6786C69.7271 96.7438 69.6395 96.7921 69.5446 96.8204C69.4498 96.8486 69.35 96.8561 69.252 96.8422C68.5027 96.8422 68.4958 96.2313 68.4958 95.9705H67.6571C67.6296 97.0001 68.2414 97.4428 69.2245 97.4428C70.125 97.4428 70.809 97.0584 70.809 96.07" fill="#004467"/>
<path fill-rule="evenodd" clip-rule="evenodd" d="M74.2385 97.3604H75.0496C74.9938 97.0039 74.964 96.6437 74.9603 96.2828V94.0966C74.9603 93.3313 74.6544 92.7238 73.4823 92.7238C72.5199 92.7238 71.9803 93.067 71.9425 94.0966H72.7433C72.7245 93.9947 72.7291 93.8898 72.7566 93.7899C72.7842 93.6899 72.8341 93.5975 72.9026 93.5196C72.971 93.4416 73.0563 93.3802 73.1519 93.3398C73.2476 93.2995 73.3511 93.2813 73.4548 93.2867C74.2488 93.2867 74.2385 93.9422 74.2213 94.5462C73.1902 94.5188 71.8359 94.5805 71.8359 95.9568C71.8359 96.8319 72.1143 97.4497 73.0767 97.4497C73.3233 97.4701 73.5696 97.408 73.7768 97.2731C73.9841 97.1383 74.1404 96.9384 74.2213 96.7049H74.2385V97.3604ZM74.2213 95.1022C74.2935 96.5711 73.7367 96.8491 73.2864 96.8491C72.8361 96.8491 72.5749 96.4544 72.5749 96.0117C72.5749 95.0507 73.5201 95.1125 74.2213 95.1022Z" fill="#004467"/>
<path d="M79.3725 97.3605V94.3026C79.3563 94.0145 79.4455 93.7303 79.6234 93.5029C79.6983 93.4349 79.7874 93.3842 79.8843 93.3545C79.9811 93.3249 80.0833 93.3169 80.1836 93.3313C80.7782 93.3313 80.902 93.7535 80.902 94.2133V97.3605H81.6409V93.9079C81.6409 92.8371 80.8779 92.7307 80.4001 92.7307C80.1819 92.7082 79.9619 92.7518 79.7688 92.8559C79.5757 92.96 79.4184 93.1196 79.3175 93.3142C79.1973 93.1287 79.0312 92.9775 78.8352 92.8751C78.6392 92.7728 78.42 92.7228 78.1989 92.73C77.9778 92.7373 77.7624 92.8015 77.5735 92.9165C77.3847 93.0315 77.2288 93.1933 77.1212 93.3862H77.104V92.82H76.3203C76.3478 93.1357 76.365 93.448 76.365 93.7638V97.3605H77.104V94.3026C77.1024 94.0695 77.1616 93.84 77.2758 93.6368C77.3545 93.5434 77.4522 93.4679 77.5625 93.4152C77.6727 93.3625 77.7929 93.3339 77.9151 93.3313C78.5097 93.3313 78.6335 93.7535 78.6335 94.2133V97.3605H79.3725Z" fill="#004467"/>
<path d="M82.2344 92.82V93.3759H82.9837V96.6054C82.9837 97.1271 83.2964 97.4154 84.0148 97.4154C84.2554 97.4154 84.4994 97.3604 84.7434 97.3433V96.777C84.5819 96.7942 84.465 96.8113 84.3997 96.8113C83.7123 96.8113 83.7123 96.4441 83.7123 96.1558V93.3759H84.7056V92.82H83.7123V91.6153L82.9768 91.9585V92.8302L82.2344 92.82Z" fill="#004467"/>
<path d="M87.0176 92.8199V93.3759H87.705V97.3604H88.4405V93.3759H89.3617V92.8199H88.4577V92.0477C88.4577 91.6771 88.5952 91.3614 89.3789 91.3991V90.8671C89.2652 90.8496 89.1502 90.8415 89.0352 90.8431C88.3787 90.8431 87.7325 91.0216 87.7325 91.9379V92.8199H87.0176Z" fill="#004467"/>
<path fill-rule="evenodd" clip-rule="evenodd" d="M92.7009 95.8332C92.7009 96.5883 92.2025 96.8834 91.8072 96.8834C91.2848 96.8834 91.0339 96.5162 91.0339 95.9671V92.82H90.2949V96.2828C90.2949 97.055 90.728 97.4497 91.5185 97.4497C91.7505 97.4553 91.9797 97.3991 92.1827 97.2869C92.3856 97.1747 92.555 97.0106 92.6734 96.8113H92.7009V97.3605H93.4845C93.457 97.0447 93.4364 96.7324 93.4364 96.4167V92.82H92.7009V95.8332ZM93.0858 91.1211H92.2403V92.0546H93.0858V91.1211ZM91.5013 91.1211H90.6558V92.0546H91.5151L91.5013 91.1211Z" fill="#004467"/>
<path d="M95.5378 92.8199H94.7988V97.3604H95.5378V94.6766C95.5378 94.0657 95.744 93.4446 96.5689 93.4446C96.6347 93.4458 96.7003 93.4527 96.7648 93.4652L96.9642 93.4926V92.7273C96.2424 92.7273 95.8643 92.8062 95.5584 93.4995H95.5412L95.5378 92.8199Z" fill="#004467"/>
<path fill-rule="evenodd" clip-rule="evenodd" d="M101.752 97.3604C102.491 97.3604 103.704 97.1991 103.704 95.5346C103.704 94.6458 103.299 94.0863 102.374 93.98V93.9353C103.209 93.7466 103.488 93.2078 103.488 92.3978C103.479 92.0914 103.389 91.7928 103.226 91.533C102.986 91.1898 102.68 90.8672 101.779 90.8672H99.6621V97.3604H101.752ZM100.49 94.3334H101.374C102.219 94.3334 102.859 94.5119 102.859 95.5449C102.861 95.6985 102.83 95.8507 102.77 95.9919C102.709 96.133 102.62 96.2599 102.507 96.3644C102.394 96.4689 102.261 96.5486 102.115 96.5983C101.97 96.6481 101.816 96.6669 101.663 96.6535H100.49V94.3334ZM100.49 91.5879H101.663C101.795 91.5748 101.93 91.5911 102.056 91.6356C102.182 91.6801 102.296 91.7518 102.391 91.8454C102.486 91.9391 102.56 92.0525 102.606 92.1776C102.652 92.3027 102.67 92.4365 102.659 92.5694C102.659 93.1975 102.346 93.599 101.697 93.599H100.49V91.5879Z" fill="#004467"/>
<path fill-rule="evenodd" clip-rule="evenodd" d="M107.071 97.3604H107.883C107.825 97.0041 107.795 96.6438 107.793 96.2828V94.0966C107.793 93.3313 107.487 92.7238 106.315 92.7238C105.353 92.7238 104.813 93.067 104.775 94.0966H105.576C105.56 93.9953 105.567 93.8917 105.596 93.7934C105.626 93.6951 105.677 93.6046 105.745 93.5286C105.814 93.4526 105.9 93.3929 105.995 93.354C106.09 93.3151 106.192 93.298 106.295 93.3039C107.089 93.3039 107.078 93.9594 107.061 94.5634C106.03 94.5359 104.676 94.5977 104.676 95.9739C104.676 96.8491 104.954 97.4668 105.917 97.4668C106.163 97.4873 106.409 97.4251 106.617 97.2903C106.824 97.1554 106.98 96.9555 107.061 96.7221L107.071 97.3604ZM107.071 95.1022C107.144 96.5711 106.587 96.8491 106.137 96.8491C105.686 96.8491 105.425 96.4544 105.425 96.0117C105.425 95.0507 106.37 95.1125 107.071 95.1022Z" fill="#004467"/>
<path d="M111.488 95.8332C111.488 96.5883 110.99 96.8834 110.594 96.8834C110.072 96.8834 109.821 96.5162 109.821 95.9671V92.8199H109.082V96.2828C109.082 97.055 109.515 97.4497 110.306 97.4497C110.538 97.4553 110.767 97.3991 110.97 97.2869C111.173 97.1747 111.342 97.0106 111.461 96.8113H111.488V97.3604H112.268C112.244 97.0447 112.224 96.7324 112.224 96.4167V92.8199H111.488V95.8332Z" fill="#004467"/>
<path d="M114.218 97.3604H115.208L116.225 93.496H116.242L117.215 97.3604H118.205L119.422 92.8199H118.638L117.737 96.7324H117.72L116.792 92.8199H115.747L114.74 96.7324H114.72L113.902 92.8199H113.08L114.218 97.3604Z" fill="#004467"/>
<path fill-rule="evenodd" clip-rule="evenodd" d="M123.431 95.3287V94.9409C123.431 93.4411 123.108 92.7307 121.808 92.7307C120.234 92.7307 120.09 93.8255 120.09 95.1571C120.09 97.1648 120.856 97.4497 121.808 97.4497C122.76 97.4497 123.386 96.9932 123.393 95.9842H122.585C122.592 96.0935 122.576 96.2029 122.539 96.306C122.503 96.4091 122.446 96.5039 122.372 96.5845C122.298 96.6652 122.208 96.7302 122.108 96.7756C122.009 96.8211 121.901 96.8461 121.791 96.8491C121.214 96.8491 120.873 96.5985 120.873 95.3287H123.431ZM120.873 94.7727C120.873 93.5132 121.269 93.2867 121.736 93.2867C122.279 93.2867 122.647 93.448 122.647 94.7727H120.873Z" fill="#004467"/>
<path d="M127.493 96.0666C127.493 94.6938 125.224 94.6938 125.224 93.8976C125.225 93.8111 125.244 93.7257 125.28 93.647C125.316 93.5683 125.368 93.4979 125.433 93.4404C125.497 93.3829 125.573 93.3395 125.656 93.3131C125.738 93.2866 125.825 93.2776 125.911 93.2867C126.009 93.2745 126.109 93.2851 126.202 93.3176C126.295 93.3501 126.379 93.4037 126.448 93.4742C126.517 93.5446 126.569 93.63 126.599 93.7237C126.629 93.8174 126.638 93.9169 126.623 94.0143H127.441C127.506 93.1151 126.812 92.7307 126.001 92.7307C124.722 92.7307 124.434 93.496 124.434 93.9697C124.434 95.3424 126.702 95.3424 126.702 96.1558C126.703 96.2543 126.683 96.3519 126.642 96.4418C126.602 96.5318 126.543 96.612 126.469 96.6771C126.395 96.7422 126.308 96.7907 126.213 96.8192C126.119 96.8477 126.02 96.8555 125.922 96.8422C125.173 96.8422 125.162 96.2313 125.162 95.9705H124.341C124.313 97.0001 124.925 97.4428 125.908 97.4428C126.809 97.4428 127.493 97.0584 127.493 96.07" fill="#004467"/>
<path fill-rule="evenodd" clip-rule="evenodd" d="M131.75 95.3287V94.9409C131.75 93.4411 131.426 92.7307 130.131 92.7307C128.553 92.7307 128.412 93.8255 128.412 95.1571C128.412 97.1648 129.175 97.4497 130.131 97.4497C131.086 97.4497 131.705 96.9932 131.715 95.9842H130.904C130.91 96.0932 130.895 96.2024 130.859 96.3052C130.822 96.4081 130.765 96.5027 130.692 96.5833C130.618 96.6639 130.529 96.729 130.429 96.7747C130.33 96.8203 130.223 96.8456 130.113 96.8491C129.536 96.8491 129.192 96.5985 129.192 95.3287H131.75ZM129.192 94.7727C129.192 93.5132 129.591 93.2867 130.058 93.2867C130.598 93.2867 130.966 93.448 130.966 94.7727H129.192Z" fill="#004467"/>
<path d="M136.001 97.3604V94.2133C136.001 93.3141 135.757 92.7307 134.788 92.7307C134.538 92.7038 134.287 92.7556 134.069 92.8787C133.851 93.0018 133.676 93.1901 133.571 93.4171H133.533V92.8337H132.76C132.787 93.1494 132.808 93.4617 132.808 93.7775V97.3742H133.543V94.6766C133.543 94.0555 133.66 93.3347 134.471 93.3347C135.104 93.3347 135.272 93.7328 135.272 94.2168V97.3639L136.001 97.3604Z" fill="#004467"/>
<path fill-rule="evenodd" clip-rule="evenodd" d="M37.3593 51.6157C38.4729 51.6157 40.3049 51.372 40.3049 48.8701C40.3049 47.5282 39.6965 46.6874 38.2976 46.5261V46.4575C39.5591 46.1726 39.9818 45.3592 39.9818 44.1409C39.967 43.6801 39.8307 43.2314 39.5866 42.8402C39.2188 42.2979 38.7582 41.8346 37.4006 41.8346H34.2109V51.6226L37.3593 51.6157ZM35.4586 47.034H36.7888C38.0674 47.034 39.0297 47.3052 39.0297 48.8633C39.0297 49.584 38.5554 50.5312 37.2253 50.5312H35.4586V47.034ZM35.4586 42.9157H37.2115C37.4121 42.8959 37.6145 42.9203 37.8045 42.9873C37.9945 43.0543 38.1675 43.1622 38.3111 43.3033C38.4547 43.4444 38.5655 43.6153 38.6357 43.804C38.7058 43.9926 38.7336 44.1943 38.717 44.3948C38.717 45.3421 38.2427 45.9392 37.2665 45.953H35.4449L35.4586 42.9157Z" fill="#004467"/>
<path d="M45.5226 49.3129C45.5226 50.4489 44.7733 50.8984 44.1787 50.8984C43.3882 50.8984 43.0101 50.3425 43.0101 49.5256V44.7689H41.8965V49.989C41.8965 51.1558 42.5495 51.753 43.7422 51.753C44.0917 51.7605 44.4368 51.6752 44.7424 51.5057C45.048 51.3363 45.303 51.0888 45.4814 50.7886H45.5226V51.6157H46.7015C46.6603 51.1421 46.6328 50.6685 46.6328 50.1915V44.7689H45.5226V49.3129Z" fill="#004467"/>
<path d="M53.4091 51.6157V46.8727C53.4091 45.5 53.0413 44.6351 51.5737 44.6351C50.6938 44.6351 50.1782 44.8788 49.7417 45.6647H49.6867V44.7827H48.5078C48.5491 45.2597 48.5766 45.7333 48.5766 46.2069V51.6295H49.6867V47.5626C49.6867 46.6291 49.8655 45.5446 51.0856 45.5446C52.0377 45.5446 52.2955 46.1383 52.2955 46.8727V51.6157H53.4091Z" fill="#004467"/>
<path fill-rule="evenodd" clip-rule="evenodd" d="M58.864 45.4622H58.8228C58.6653 45.2057 58.4437 44.9946 58.1797 44.8496C57.9158 44.7046 57.6186 44.6306 57.3173 44.6351C55.1038 44.6351 55.0488 46.6016 55.0488 48.3073C55.0488 51.3171 56.1624 51.7393 57.2623 51.7393C57.5885 51.749 57.9106 51.6645 58.1899 51.4958C58.4691 51.3272 58.6937 51.0816 58.8365 50.7886H58.864V51.602H59.9776V41.8243H58.864V45.4622ZM58.864 47.9161C58.864 49.2888 58.864 50.8435 57.6163 50.8435C56.2174 50.8435 56.2174 49.3541 56.2174 48.321C56.2174 46.4918 56.379 45.5446 57.5923 45.5446C58.8056 45.5446 58.8812 47.0066 58.8812 47.9161" fill="#004467"/>
<path fill-rule="evenodd" clip-rule="evenodd" d="M66.6209 48.551V47.971C66.6209 45.7059 66.1294 44.6351 64.1771 44.6351C61.7986 44.6351 61.5684 46.2893 61.5684 48.2936C61.5684 51.3171 62.7232 51.753 64.1771 51.753C65.631 51.753 66.5521 51.0666 66.5831 49.5428H65.3595C65.3217 50.2292 64.9264 50.8435 64.1668 50.8435C63.2972 50.8435 62.792 50.4626 62.792 48.551H66.6209ZM62.7645 47.7136C62.7645 45.8157 63.3625 45.4759 64.0671 45.4759C64.8817 45.4759 65.442 45.7196 65.442 47.7136H62.7645Z" fill="#004467"/>
<path d="M72.7415 49.6629C72.7415 47.5763 69.3216 47.6038 69.3216 46.3957C69.3216 45.802 69.7822 45.4759 70.3803 45.4759C70.528 45.4572 70.678 45.473 70.8186 45.522C70.9591 45.5711 71.0864 45.652 71.1903 45.7584C71.2943 45.8649 71.372 45.9939 71.4176 46.1355C71.4631 46.277 71.4751 46.4272 71.4526 46.5742H72.69C72.7828 45.2014 71.7379 44.6351 70.5177 44.6351C68.5895 44.6351 68.153 45.7882 68.153 46.5055C68.153 48.5647 71.5901 48.5647 71.5901 49.8002C71.5901 50.4866 71.0746 50.8298 70.4078 50.8298C69.2804 50.8298 69.2666 49.9066 69.2666 49.5154H68.0052C67.964 51.0872 68.8886 51.7393 70.3665 51.7393C71.7242 51.7393 72.7553 51.1558 72.7553 49.6492" fill="#004467"/>
<path fill-rule="evenodd" clip-rule="evenodd" d="M75.446 44.7689H74.329V51.6157H75.4426L75.446 44.7689ZM74.2637 43.0221H75.5113V41.8243H74.2637V43.0221Z" fill="#004467"/>
<path d="M82.206 51.6157V46.8727C82.206 45.5 81.8416 44.6351 80.374 44.6351C79.4907 44.6351 78.9751 44.8788 78.542 45.6647H78.487V44.7827H77.3047C77.3459 45.2597 77.3734 45.7333 77.3734 46.2069V51.6295H78.487V47.5626C78.487 46.6291 78.6623 45.5446 79.8859 45.5446C80.8346 45.5446 81.0924 46.1383 81.0924 46.8727V51.6157H82.206Z" fill="#004467"/>
<path d="M88.4247 49.6629C88.4247 47.5763 84.9876 47.6038 84.9876 46.3957C84.9876 45.802 85.4482 45.4759 86.0463 45.4759C86.194 45.4572 86.344 45.473 86.4846 45.522C86.6251 45.5711 86.7524 45.652 86.8563 45.7584C86.9603 45.8649 87.0381 45.9939 87.0836 46.1355C87.1291 46.277 87.1411 46.4272 87.1187 46.5742H88.356C88.4488 45.2014 87.4039 44.6351 86.1838 44.6351C84.2556 44.6351 83.819 45.7882 83.819 46.5055C83.819 48.5647 87.2561 48.5647 87.2561 49.8002C87.2561 50.4866 86.7406 50.8298 86.0738 50.8298C84.9464 50.8298 84.9327 49.9066 84.9327 49.5154H83.6712C83.63 51.0872 84.5546 51.7393 86.0325 51.7393C87.4074 51.7393 88.4385 51.1558 88.4385 49.6492" fill="#004467"/>
<path d="M89.0508 44.7689V45.5995H90.1747V50.466C90.1747 51.2519 90.6525 51.6878 91.7111 51.6878C92.0754 51.6878 92.4432 51.6054 92.811 51.578V50.7474C92.5669 50.7749 92.3882 50.8023 92.3091 50.8023C91.278 50.8023 91.278 50.2464 91.278 49.8139V45.5995H92.7732V44.7586H91.278V42.9431L90.1644 43.4442V44.7586L89.0508 44.7689Z" fill="#004467"/>
<path fill-rule="evenodd" clip-rule="evenodd" d="M95.4603 44.7689H94.3466V51.6157H95.4603V44.7689ZM94.2676 43.0221H95.5187V41.8243H94.2676V43.0221Z" fill="#004467"/>
<path d="M96.791 44.7689V45.5995H97.9149V50.466C97.9149 51.2519 98.3927 51.6878 99.4513 51.6878C99.8157 51.6878 100.183 51.6054 100.551 51.578V50.7474C100.307 50.7749 100.128 50.8023 100.049 50.8023C99.0183 50.8023 99.0183 50.2464 99.0183 49.8139V45.5995H100.513V44.7586H99.0183V42.9431L97.9046 43.4442V44.7586L96.791 44.7689Z" fill="#004467"/>
<path d="M105.5 49.3129C105.5 50.4489 104.754 50.8984 104.156 50.8984C103.369 50.8984 102.991 50.3425 102.991 49.5256V44.7689H101.877V49.989C101.877 51.1558 102.527 51.753 103.723 51.753C104.072 51.7605 104.417 51.6752 104.723 51.5057C105.028 51.3363 105.283 51.0888 105.462 50.7886H105.5V51.6157H106.682C106.641 51.1421 106.613 50.6685 106.613 50.1915V44.7689H105.5V49.3129Z" fill="#004467"/>
<path d="M107.756 44.7689V45.5995H108.883V50.466C108.883 51.2519 109.358 51.6878 110.42 51.6878C110.784 51.6878 111.152 51.6054 111.516 51.578V50.7474C111.272 50.7749 111.097 50.8023 111.014 50.8023C109.983 50.8023 109.983 50.2464 109.983 49.8139V45.5995H111.475V44.7586H109.983V42.9431L108.869 43.4442V44.7586L107.756 44.7689Z" fill="#004467"/>
<path fill-rule="evenodd" clip-rule="evenodd" d="M36.8828 75.3787C37.3021 75.3787 38.2576 75.4336 38.3608 76.6279C38.4707 77.9286 38.3882 79.2019 38.7423 79.8814H40.0449C39.8565 79.0384 39.7415 78.1806 39.7012 77.3178C39.6359 75.3512 39.2269 74.9737 38.0995 74.7952V74.7712C39.2544 74.5653 39.8937 73.6867 39.8937 72.5336C39.8937 71.3118 39.2819 70.0934 37.5427 70.0934H34.1641V79.8814H35.4117V75.3787H36.8828ZM35.4152 71.1779H37.3021C38.2679 71.1779 38.6185 71.9639 38.6185 72.6674C38.6185 73.522 38.1855 74.2942 37.2884 74.2942H35.4152V71.1779Z" fill="#004467"/>
<path fill-rule="evenodd" clip-rule="evenodd" d="M44.9468 79.8814H46.167C46.0809 79.3434 46.036 78.7995 46.033 78.2547V74.96C46.033 73.8068 45.5689 72.9008 43.8057 72.9008C42.3518 72.9008 41.5372 73.4293 41.4822 74.96H42.7093C42.6797 74.8061 42.6857 74.6475 42.7268 74.4963C42.768 74.3451 42.8431 74.2053 42.9465 74.0875C43.0499 73.9696 43.1789 73.8769 43.3236 73.8164C43.4684 73.7559 43.625 73.7291 43.7817 73.7382C44.9778 73.7382 44.964 74.73 44.9365 75.6361C43.3726 75.5983 41.3379 75.691 41.3379 77.7639C41.3379 79.0818 41.7572 80.0153 43.2111 80.0153C43.5819 80.044 43.9518 79.949 44.2628 79.7453C44.5738 79.5416 44.8083 79.2407 44.9296 78.8896H44.9571L44.9468 79.8814ZM44.9193 76.4769C45.0259 78.6871 44.1838 79.1092 43.5067 79.1092C42.7608 79.1092 42.4343 78.5121 42.4343 77.8463C42.4343 76.398 43.8607 76.4906 44.9193 76.4735" fill="#004467"/>
<path d="M51.3942 77.5751C51.3942 78.7146 50.6483 79.1607 50.0503 79.1607C49.2632 79.1607 48.8817 78.6047 48.8817 77.7879V73.0346H47.7715V78.2547C47.7715 79.4181 48.4211 80.0153 49.6172 80.0153C49.9629 80.0198 50.3038 79.9334 50.6054 79.7647C50.9071 79.596 51.159 79.351 51.3357 79.0543H51.377V79.8814H52.5594C52.5181 79.4044 52.4906 78.9308 52.4906 78.4571V73.0346H51.377L51.3942 77.5751Z" fill="#004467"/>
<path d="M58.9968 79.8814V75.2723C58.9968 75.0149 59.0518 74.3354 59.3783 74.0642C59.49 73.9604 59.6238 73.8833 59.7697 73.8388C59.9156 73.7942 60.0697 73.7833 60.2204 73.8068C61.1175 73.8068 61.3065 74.4452 61.3065 75.135V79.8814H62.4201V74.6751C62.4201 73.0621 61.2653 72.8974 60.5469 72.8974C59.9214 72.8974 59.2958 73.0484 58.9177 73.7794C58.66 73.1548 57.9382 72.8974 57.3161 72.8974C56.5118 72.8974 55.9412 73.1548 55.5975 73.8892H55.57V73.0346H54.3945C54.4358 73.5083 54.4633 73.9819 54.4633 74.4589V79.8814H55.5769V75.2723C55.5754 74.9206 55.6642 74.5744 55.8347 74.2667C55.9533 74.1255 56.1009 74.0113 56.2675 73.932C56.4342 73.8526 56.6159 73.81 56.8005 73.8068C57.6941 73.8068 57.8866 74.4452 57.8866 75.135V79.8814H58.9968Z" fill="#004467"/>
<path d="M63.8711 73.0346V73.8755H64.9297V79.8814H66.0433V73.8755H67.4182V73.0346H66.0433V71.8678C66.0433 71.3118 66.2461 70.8107 67.4182 70.8931V70.0934C67.2434 70.0633 67.0662 70.0495 66.8889 70.0523C65.899 70.0523 64.9194 70.3234 64.9194 71.7065V73.0346H63.8711Z" fill="#004467"/>
<path fill-rule="evenodd" clip-rule="evenodd" d="M70.8529 80.0153C72.3033 80.0153 73.4582 79.5828 73.4582 76.5593C73.4582 74.5516 73.2279 72.8974 70.8529 72.8974C68.4779 72.8974 68.2441 74.5516 68.2441 76.5593C68.2441 79.5828 69.399 80.0153 70.8529 80.0153ZM70.8529 79.1092C69.698 79.1092 69.4128 78.3096 69.4128 76.0857C69.4128 74.2152 69.9971 73.8068 70.8529 73.8068C71.7087 73.8068 72.2896 74.2152 72.2896 76.0857C72.2896 78.3096 72.0043 79.1092 70.8529 79.1092Z" fill="#004467"/>
<path d="M75.9691 73.0346H74.8555V79.8814H75.9691V75.842C75.9691 74.9188 76.2819 73.9819 77.5158 73.9819C77.616 73.9834 77.716 73.9926 77.8148 74.0093L78.1138 74.0505V72.8974C77.0277 72.8974 76.4572 73.0209 75.9966 74.0642H75.9691V73.0346Z" fill="#004467"/>
<path d="M83.7474 77.9286C83.7474 75.842 80.3275 75.8695 80.3275 74.6614C80.3275 74.0642 80.7881 73.7382 81.3861 73.7382C81.5338 73.7195 81.6839 73.7353 81.8244 73.7843C81.965 73.8333 82.0922 73.9142 82.1962 74.0207C82.3001 74.1271 82.3779 74.2562 82.4234 74.3978C82.4689 74.5393 82.4809 74.6895 82.4585 74.8364H83.6959C83.7887 73.4808 82.7438 72.8974 81.5236 72.8974C79.5954 72.8974 79.1589 74.0505 79.1589 74.7678C79.1589 76.827 82.596 76.8441 82.596 78.0625C82.596 78.7695 82.0804 79.1092 81.4136 79.1092C80.2862 79.1092 80.2725 78.186 80.2725 77.7914H79.0111C78.9698 79.3666 79.8944 80.0153 81.3724 80.0153C82.73 80.0153 83.7612 79.4318 83.7612 77.9286" fill="#004467"/>
<path d="M89.4252 75.2311C89.4905 73.7004 88.693 72.8974 87.3216 72.8974C84.9432 72.8974 84.7129 74.5516 84.7129 76.5593C84.7129 79.5828 85.8678 80.0153 87.3216 80.0153C88.0812 80.0153 89.5214 79.5279 89.4801 77.6129H88.3115C88.3528 78.8484 87.5794 79.1195 87.3216 79.1195C86.1668 79.1195 85.8815 78.3199 85.8815 76.096C85.8815 74.2255 86.4658 73.8171 87.3216 73.8171C87.741 73.8171 88.2978 74.1157 88.2703 75.2414L89.4252 75.2311Z" fill="#004467"/>
<path d="M96.0377 79.8814V75.0286C96.0377 73.4808 95.3847 72.8974 94.2195 72.8974C93.3224 72.8974 92.8068 73.117 92.3566 73.927H92.305V70.0934H91.1914V79.8814H92.305V75.8557C92.305 74.7026 92.5903 73.7965 93.7005 73.7965C94.6526 73.7965 94.9241 74.3937 94.9241 75.2345V79.8711L96.0377 79.8814Z" fill="#004467"/>
<path d="M101.386 77.5751C101.386 78.7146 100.641 79.1607 100.042 79.1607C99.2554 79.1607 98.8773 78.6047 98.8773 77.7879V73.0346H97.7637V78.2547C97.7637 79.4181 98.4133 80.0153 99.6094 80.0153C99.9584 80.0224 100.303 79.9373 100.609 79.7685C100.914 79.5998 101.169 79.3534 101.349 79.0543H101.386V79.8814H102.569C102.527 79.4044 102.5 78.9308 102.5 78.4571V73.0346H101.386V77.5751Z" fill="#004467"/>
<path d="M109.345 79.8814V75.135C109.345 73.7794 108.98 72.8974 107.513 72.8974C106.629 72.8974 106.114 73.1445 105.681 73.927H105.626V73.0449H104.443C104.485 73.5186 104.512 73.9922 104.512 74.4692V79.8917H105.626V75.8283C105.626 74.8913 105.801 73.8068 107.025 73.8068C107.973 73.8068 108.231 74.404 108.231 75.135V79.8814H109.345Z" fill="#004467"/>
<path fill-rule="evenodd" clip-rule="evenodd" d="M114.653 73.8755H114.625C114.489 73.5695 114.263 73.3121 113.977 73.1374C113.691 72.9627 113.358 72.879 113.024 72.8974C112.467 72.8974 110.879 73.1033 110.879 76.247C110.879 78.2821 111.247 79.8814 113.106 79.8814C113.41 79.8848 113.71 79.8075 113.975 79.6573C114.239 79.5072 114.459 79.2896 114.612 79.0269H114.653V80.4511C114.666 80.6106 114.644 80.771 114.589 80.9211C114.533 81.0711 114.445 81.2071 114.331 81.3194C114.217 81.4318 114.079 81.5176 113.928 81.571C113.777 81.6244 113.616 81.6439 113.457 81.6283C113.322 81.6391 113.187 81.6212 113.059 81.5759C112.932 81.5306 112.816 81.4589 112.719 81.3655C112.621 81.2721 112.545 81.1592 112.494 81.0341C112.444 80.909 112.42 80.7746 112.426 80.6399H111.178C111.082 81.8994 112.113 82.4691 113.24 82.4691C114.749 82.4691 115.766 82.1053 115.766 80.5712V73.0209H114.653V73.8755ZM114.68 76.422C114.68 77.3726 114.722 78.9582 113.378 78.9582C112.549 78.9582 112.048 78.4434 112.048 76.247C112.048 75.3375 112.085 73.8206 113.35 73.8206C114.749 73.8206 114.68 75.4061 114.68 76.422Z" fill="#004467"/>
<path d="M33.1094 58.8812V59.722H34.168V65.728H35.2816V59.722H36.6565V58.8812H35.2816V57.7143C35.2816 57.1583 35.4844 56.6573 36.6565 56.7396V55.94C36.4817 55.91 36.3045 55.8962 36.1271 55.8988C35.1338 55.8988 34.1577 56.1699 34.1577 57.553V58.8812H33.1094Z" fill="#004467"/>
<path fill-rule="evenodd" clip-rule="evenodd" d="M41.404 63.4217C41.404 64.5611 40.6581 65.0073 40.06 65.0073C39.273 65.0073 38.8949 64.4513 38.8949 63.6345V58.8812H37.7812V64.1012C37.7812 65.2647 38.4309 65.8618 39.627 65.8618C39.976 65.869 40.3207 65.7839 40.6261 65.6151C40.9315 65.4463 41.1868 65.1999 41.3661 64.9009H41.404V65.728H42.5863C42.5451 65.2509 42.5176 64.7773 42.5176 64.3037V58.8812H41.404V63.4217ZM41.9882 56.3175H40.7131V57.7281H41.9882V56.3175ZM39.5995 56.3175H38.3243V57.7281H39.6167L39.5995 56.3175Z" fill="#004467"/>
<path d="M45.4105 58.8812H44.2969V65.728H45.4105V61.6885C45.4105 60.7653 45.7233 59.8284 46.9572 59.8284C47.0574 59.83 47.1574 59.8391 47.2562 59.8559L47.5552 59.8971V58.7439C46.4691 58.7439 45.8986 58.8675 45.438 59.9108H45.4105V58.8812Z" fill="#004467"/>
<path fill-rule="evenodd" clip-rule="evenodd" d="M55.187 65.728C56.3006 65.728 58.1326 65.4843 58.1326 62.9824C58.1326 61.6405 57.5208 60.7997 56.1219 60.6349V60.5697C57.3867 60.2849 57.806 59.4715 57.806 58.2497C57.7912 57.789 57.6549 57.3403 57.4108 56.949C57.0464 56.4068 56.5859 55.9469 55.2248 55.9469H52.0352V65.7349L55.187 65.728ZM53.2863 61.1463H54.6164C55.8916 61.1463 56.8574 61.4174 56.8574 62.9756C56.8574 63.6928 56.3796 64.6435 55.0495 64.6435H53.2863V61.1463ZM53.2863 57.0279H55.0495C55.25 57.0077 55.4525 57.0317 55.6426 57.0982C55.8328 57.1648 56.006 57.2722 56.15 57.413C56.2939 57.5538 56.4051 57.7245 56.4757 57.913C56.5463 58.1015 56.5745 58.3031 56.5584 58.5037C56.5584 59.4543 56.0806 60.0515 55.1045 60.0652H53.2863V57.0279Z" fill="#004467"/>
<path fill-rule="evenodd" clip-rule="evenodd" d="M63.3312 65.728H64.5514C64.4669 65.1897 64.4221 64.646 64.4173 64.1012V60.8065C64.4173 59.6534 63.9568 58.7473 62.1901 58.7473C60.7362 58.7473 59.9216 59.2793 59.8701 60.8065H61.0765C61.0469 60.6527 61.0529 60.4941 61.094 60.3429C61.1351 60.1917 61.2103 60.0518 61.3137 59.934C61.4171 59.8162 61.5461 59.7235 61.6908 59.6629C61.8355 59.6024 61.9922 59.5757 62.1488 59.5847C63.345 59.5847 63.3312 60.5766 63.3037 61.4826C61.7433 61.4449 59.7051 61.5375 59.7051 63.6105C59.7051 64.9283 60.1278 65.8618 61.5783 65.8618C61.9491 65.8905 62.319 65.7956 62.63 65.5918C62.9409 65.3881 63.1755 65.0872 63.2968 64.7361H63.3312V65.728ZM63.3037 62.3235C63.4137 64.5337 62.5716 64.9558 61.8911 64.9558C61.1452 64.9558 60.8187 64.3586 60.8187 63.6928C60.8187 62.2445 62.2451 62.32 63.3037 62.32" fill="#004467"/>
<path d="M69.8629 63.4217C69.8629 64.5611 69.1171 65.0073 68.519 65.0073C67.7319 65.0073 67.3504 64.4513 67.3504 63.6345V58.8812H66.2402V64.1012C66.2402 65.2647 66.8898 65.8618 68.086 65.8618C68.4346 65.8694 68.779 65.7845 69.0839 65.6156C69.3889 65.4468 69.6435 65.2001 69.8217 64.9009H69.8629V65.728H71.0453C71.0041 65.2509 70.9765 64.7773 70.9765 64.3037V58.8812H69.8629V63.4217Z" fill="#004467"/>
<path d="M75.7564 61.5101H72.7695V62.5534H75.7564V61.5101Z" fill="#004467"/>
<path d="M76.3027 67.4474H77.1723L78.4097 64.3175H77.0108L76.3027 67.4474Z" fill="#004467"/>
<path d="M82.3523 62.8108C82.3248 63.7477 82.3248 65.9579 85.2154 65.9305C86.8309 65.9305 88.2573 65.2647 88.2573 63.2055C88.2573 60.0996 83.8578 60.4119 83.8578 58.2566C83.8578 57.1995 84.6174 56.822 85.3667 56.822C86.5456 56.822 86.8859 57.5256 86.8721 58.5964H88.1748C88.2573 56.6024 87.2536 55.7375 85.4595 55.7375C83.8165 55.7375 82.5826 56.6573 82.5826 58.3939C82.5826 61.3351 86.9821 61.0914 86.9821 63.2604C86.9821 64.4273 86.2191 64.846 85.2292 64.846C84.4283 64.846 83.5862 64.4273 83.5862 63.0957V62.8108H82.3523Z" fill="#004467"/>
<path d="M89.0449 58.8812V59.722H90.1688V64.5885C90.1688 65.3745 90.6466 65.8069 91.7052 65.8069C92.0696 65.8069 92.4373 65.728 92.8051 65.7005V64.8459C92.5611 64.8734 92.3823 64.9009 92.3033 64.9009C91.2722 64.9009 91.2722 64.3449 91.2722 63.909V59.722H92.7673V58.8812H91.2722V57.0657L90.1585 57.5667V58.8812H89.0449Z" fill="#004467"/>
<path fill-rule="evenodd" clip-rule="evenodd" d="M97.3586 65.728H98.5822C98.4949 65.19 98.4489 64.6462 98.4447 64.1012V60.8065C98.4447 59.6534 97.9841 58.7473 96.2174 58.7473C94.767 58.7473 93.9524 59.2793 93.8974 60.8065H95.1038C95.0385 60.0858 95.4303 59.5847 96.1762 59.5847C97.3723 59.5847 97.3586 60.5766 97.3311 61.4826C95.7706 61.4449 93.7324 61.5375 93.7324 63.6105C93.7324 64.9283 94.1552 65.8618 95.6056 65.8618C95.9765 65.8905 96.3463 65.7956 96.6573 65.5918C96.9683 65.3881 97.2028 65.0872 97.3242 64.7361H97.3586V65.728ZM97.3311 62.3235C97.441 64.5337 96.599 64.9558 95.9184 64.9558C95.1726 64.9558 94.846 64.3586 94.846 63.6928C94.846 62.2445 96.2724 62.32 97.3311 62.32" fill="#004467"/>
<path fill-rule="evenodd" clip-rule="evenodd" d="M103.964 59.571H103.922C103.765 59.3146 103.543 59.1034 103.279 58.9584C103.015 58.8134 102.718 58.7395 102.417 58.7439C100.203 58.7439 100.148 60.7104 100.148 62.4196C100.148 65.4294 101.262 65.8515 102.362 65.8515C102.687 65.8586 103.008 65.7734 103.286 65.6057C103.565 65.438 103.79 65.1948 103.936 64.9043H103.964V65.7177H105.077V55.94H103.964V59.571ZM103.964 62.0249C103.964 63.3977 103.964 64.9524 102.716 64.9524C101.317 64.9524 101.317 63.4629 101.317 62.4333C101.317 60.604 101.479 59.6534 102.692 59.6534C103.905 59.6534 103.981 61.1188 103.981 62.0249" fill="#004467"/>
<path d="M106.125 58.8812V59.722H107.252V64.5885C107.252 65.3745 107.727 65.8069 108.785 65.8069C109.153 65.8069 109.521 65.728 109.885 65.7005V64.8459C109.641 64.8734 109.466 64.9009 109.383 64.9009C108.352 64.9009 108.352 64.3449 108.352 63.909V59.722H109.844V58.8812H108.359V57.0657L107.245 57.5667V58.8812H106.125Z" fill="#004467"/>
<path d="M113.674 61.5101H110.688V62.5534H113.674V61.5101Z" fill="#004467"/>
<path d="M121.42 63.4217C121.42 64.5611 120.674 65.0073 120.076 65.0073C119.289 65.0073 118.907 64.4513 118.907 63.6345V58.8812H117.797V64.1012C117.797 65.2647 118.446 65.8618 119.643 65.8618C119.988 65.8664 120.329 65.78 120.631 65.6113C120.932 65.4426 121.184 65.1976 121.361 64.9009H121.42V65.728H122.602C122.561 65.2509 122.533 64.7773 122.533 64.3037V58.8812H121.42V63.4217Z" fill="#004467"/>
<path d="M129.372 65.728V60.9816C129.372 59.6259 129.004 58.7439 127.54 58.7439C126.657 58.7439 126.141 58.991 125.705 59.7735H125.653V58.8812H124.471C124.512 59.3548 124.539 59.8284 124.539 60.3055V65.728H125.653V61.6748C125.653 60.7379 125.828 59.6534 127.052 59.6534C128.001 59.6534 128.258 60.2505 128.258 60.9816V65.728H129.372Z" fill="#004467"/>
<path fill-rule="evenodd" clip-rule="evenodd" d="M134.823 59.571H134.782C134.626 59.3134 134.404 59.1013 134.14 58.9561C133.876 58.8109 133.578 58.7378 133.276 58.7439C131.063 58.7439 131.008 60.7104 131.008 62.4196C131.008 65.4294 132.121 65.8515 133.221 65.8515C133.547 65.8612 133.869 65.777 134.148 65.609C134.427 65.441 134.652 65.1964 134.795 64.9043H134.823V65.7177H135.937V55.94H134.823V59.571ZM134.823 62.0249C134.823 63.3977 134.823 64.9524 133.575 64.9524C132.176 64.9524 132.176 63.4629 132.176 62.4333C132.176 60.604 132.338 59.6534 133.551 59.6534C134.765 59.6534 134.84 61.1188 134.84 62.0249" fill="#004467"/>
</svg>
