<svg xmlns="http://www.w3.org/2000/svg" viewBox="0 0 268.44 266.71"><defs><style>.cls-1{fill:#000054;}.cls-2{fill:#ffff63;}.cls-3{fill:#004fff;}</style></defs><g id="Layer_2" data-name="Layer 2"><g id="Layer_1-2" data-name="Layer 1"><g id="Checklist"><path class="cls-1" d="M249.49,0V101c0,76.6-21.47,134.27-53.13,160.22H219c30.24-27.63,49.46-83.62,49.46-160.22V0Z"/><path class="cls-2" d="M60.46,0V101c0,76.6-25.63,140.92-60.46,160.22H171.5C206.33,241.89,232,177.57,232,101V0Z"/><rect class="cls-3" x="153.3" y="80.09" width="53.24" height="11.16"/><path class="cls-3" d="M101.7,105.54A5.6,5.6,0,0,1,98,104.12L74.79,83.36,82.23,75,101,91.86l24.22-30.4L134,68.41l-27.9,35a5.6,5.6,0,0,1-3.9,2.08A3.54,3.54,0,0,1,101.7,105.54Z"/><rect class="cls-3" x="153.3" y="153.32" width="53.24" height="11.16"/><path class="cls-3" d="M101.7,176.63A5.61,5.61,0,0,1,98,175.2L74.79,154.44l7.44-8.31L101,163l24.22-30.41,8.73,7-27.9,35a5.57,5.57,0,0,1-3.9,2.09Z"/></g></g></g></svg>