<svg xmlns="http://www.w3.org/2000/svg" viewBox="0 0 212.21 274.34"><defs><style>.cls-1{fill:#000054;}.cls-2{fill:#ffff63;}.cls-3{fill:#fff;}.cls-4{fill:#004fff;}</style></defs><g id="Layer_2" data-name="Layer 2"><g id="Layer_1-2" data-name="Layer 1"><g id="Funding"><path class="cls-1" d="M106.1,249.07C55.66,249.07,13.16,235.93,0,218v15.17c0,22.74,47.51,41.18,106.1,41.18s106.11-18.44,106.11-41.18V218c-13.16,17.93-55.67,31.08-106.11,31.08"/><path class="cls-2" d="M212.21,194.16h0c0,14.21-18.58,26.75-46.82,34.15-15.81,4.14-34.65,6.66-55,7-1.44,0-2.88,0-4.33,0C47.51,235.34,0,216.91,0,194.17H0c0-14.61,19.61-27.44,49.17-34.74a220.31,220.31,0,0,1,35.6-5.59q5.15-.42,10.46-.63c3.57-.14,7.2-.21,10.87-.21q7.92,0,15.53.44c-6.74,34.84-20.71,58.77-36.85,58.78h39c15.33,0,28.7-21.59,35.79-53.61a159,159,0,0,1,17.81,5.06C198.77,171.19,212.2,182.07,212.21,194.16Z"/><path class="cls-3" d="M126,106.1a250.37,250.37,0,0,1-4.32,47.33c-6.74,34.84-20.71,58.77-36.85,58.78h0V0h0C99,0,111.53,18.57,118.93,46.82c4.14,15.81,6.66,34.65,7,55C125.93,103.22,126,104.65,126,106.1Z"/><path class="cls-1" d="M165,106.1a245.69,245.69,0,0,1-5.39,52.5c-7.09,32-20.46,53.61-35.79,53.61H108.6c11.75-8.62,21.45-29.84,26.73-57.64a261.1,261.1,0,0,0,4.35-48.47c0-50.44-13.15-92.94-31.08-106.1h15.17C146.51,0,165,47.51,165,106.1Z"/><path class="cls-2" d="M126,106.1a250.37,250.37,0,0,1-4.32,47.33c-6.74,34.84-20.71,58.77-36.85,58.78h0c-15.19,0-28.47-21.22-35.6-52.79A237,237,0,0,1,43.81,117q-.21-5.36-.21-10.88c0-27.43,4-52.43,10.67-71.26C61.8,13.44,72.68,0,84.77,0h0C99,0,111.53,18.57,118.93,46.82c4.14,15.81,6.66,34.65,7,55C125.93,103.22,126,104.65,126,106.1Z"/><path class="cls-4" d="M88.32,154.93c-4.13,0-11.91-2.1-17.67-16.1a74.55,74.55,0,0,1-4.49-17.13H59.27v-11h5.86c-.07-1.52-.1-3-.1-4.6s0-3.07.1-4.59H59.27v-11h6.89a74.55,74.55,0,0,1,4.49-17.13c5.76-14,13.54-16.1,17.67-16.1,7.42,0,13.87,6.15,18.14,17.32L96.19,78.53c-2.69-7-6-10.25-7.87-10.25-3.18,0-8.64,7.74-11.06,22.23H89.5v11H76.13c-.06,1.48-.1,3-.1,4.59s0,3.12.1,4.6H89.5v11H77.26c2.42,14.49,7.88,22.23,11.06,22.23,1.9,0,5.18-3.22,7.88-10.27l10.27,3.93C102.2,148.77,95.75,154.93,88.32,154.93Z"/></g></g></g></svg>