<svg xmlns="http://www.w3.org/2000/svg" viewBox="0 0 216.98 299.51"><defs><style>.cls-1{fill:#ffff63;}.cls-2{fill:#000054;}.cls-3{fill:#004fff;}</style></defs><g id="Layer_2" data-name="Layer 2"><g id="Layer_1-2" data-name="Layer 1"><g id="Idea"><path class="cls-1" d="M195.8,138.12c0-40.46-39-73.25-87.1-73.25S21.6,97.66,21.6,138.12c0,26.17,16.33,49.13,40.88,62.09v38.48c0,10.61,21,19.22,47,19.22s47-8.61,47-19.22V199.37C180.16,186.28,195.8,163.73,195.8,138.12Z"/><path class="cls-2" d="M111,270c-12.36,0-23.59-2-32-5.15v23.37a7.49,7.49,0,0,0,5.13,7.15,86.08,86.08,0,0,0,52.08.28,7.48,7.48,0,0,0,5.2-7.17V265.39c-8.2,2.85-18.82,4.58-30.43,4.58"/><path class="cls-1" d="M30.91,72.7,0,41.79,11.67,30.12,42.58,61Zm155.16,0L174.4,61l30.91-30.91L217,41.77ZM117.72,41H101.23V0h16.49Z"/><polygon class="cls-3" points="114.2 228.52 103.2 228.52 103.2 177.26 62.88 136.93 70.65 129.16 108.7 167.21 146.75 129.16 154.53 136.93 114.2 177.26 114.2 228.52"/></g></g></g></svg>