<svg width="265" height="70" viewBox="0 0 265 70" fill="none" xmlns="http://www.w3.org/2000/svg">
<g clip-path="url(#clip0_2502_32794)">
<path d="M102.475 27.4705V33.5084H110.184V35.5565H102.475V42.7041H100.143V25.4464H111.19V27.4705H102.475Z" fill="black"/>
<path d="M112.595 36.5189C112.595 32.7516 115.22 30.0323 118.78 30.0323C122.339 30.0323 124.941 32.6968 124.941 36.4675C124.941 40.2383 122.316 42.9541 118.756 42.9541C115.196 42.9541 112.595 40.2896 112.595 36.5189ZM122.732 36.4915C122.732 33.7825 121.064 31.9057 118.756 31.9057C116.448 31.9057 114.804 33.7825 114.804 36.4915C114.804 39.2005 116.472 41.0773 118.78 41.0773C121.088 41.0773 122.745 39.204 122.745 36.4915M196.703 36.5189C196.703 32.7516 199.331 30.0323 202.891 30.0323C206.451 30.0323 209.052 32.6968 209.052 36.4675C209.052 40.2383 206.423 42.9541 202.864 42.9541C199.304 42.9541 196.703 40.2896 196.703 36.5189ZM206.843 36.4915C206.843 33.7825 205.172 31.9057 202.864 31.9057C200.555 31.9057 198.912 33.7825 198.912 36.4915C198.912 39.2005 200.583 41.0773 202.891 41.0773C205.199 41.0773 206.843 39.204 206.843 36.4915ZM157.697 60.1228C157.697 56.3555 160.326 53.6362 163.882 53.6362C167.438 53.6362 170.043 56.3007 170.043 60.0714C170.043 63.8422 167.411 66.5443 163.844 66.5443C160.278 66.5443 157.683 63.8798 157.683 60.1091M167.82 60.0817C167.82 57.3727 166.153 55.4993 163.844 55.4993C161.536 55.4993 159.91 57.3727 159.91 60.0817C159.91 62.7907 161.58 64.6675 163.885 64.6675C166.19 64.6675 167.837 62.7942 167.837 60.0817M115.926 26.2855H118.112V28.7685H115.926V26.2855ZM119.486 26.2855H121.668V28.7685H119.486V26.2855Z" fill="black"/>
<path d="M134.495 30.5254L133.734 32.3749C133.39 32.2071 133.012 32.1227 132.63 32.1283C130.812 32.1283 129.735 33.5598 129.735 37.4059V42.7076H127.519V30.3302H129.728V32.4262C130.41 30.772 131.518 30.1076 132.868 30.1076C133.435 30.1013 133.994 30.2454 134.488 30.5254" fill="black"/>
<path d="M147.325 25.4464V42.7075H145.119V40.7554C144.26 42.1253 142.858 42.9507 140.993 42.9507C137.509 42.9507 135.224 40.3102 135.224 36.488C135.224 32.6659 137.509 30.0288 140.993 30.0288C142.858 30.0288 144.26 30.82 145.119 32.2241V25.4464H147.325ZM145.119 36.4915C145.119 33.7824 143.619 31.9056 141.29 31.9056C138.961 31.9056 137.434 33.7824 137.434 36.4915C137.434 39.2005 138.982 41.0773 141.29 41.0773C143.598 41.0773 145.119 39.2039 145.119 36.4915Z" fill="black"/>
<path d="M161.43 37.012H152.105C152.252 39.7211 154.069 41.1218 156.156 41.1218C156.9 41.1261 157.632 40.9261 158.272 40.5435C158.912 40.1609 159.436 39.6101 159.787 38.9505L161.284 39.8889C160.784 40.8281 160.037 41.6106 159.123 42.1502C158.209 42.6899 157.164 42.9657 156.105 42.9472C152.695 42.9472 149.943 40.454 149.943 36.536C149.943 32.6899 152.473 30.0288 155.958 30.0288C159.709 30.0288 161.799 33.1351 161.413 37.0086M152.16 35.2962H159.354C159.18 33.2413 157.881 31.82 155.893 31.82C153.905 31.82 152.409 33.2207 152.177 35.2756" fill="black"/>
<path d="M171.018 30.5254L170.258 32.3748C169.914 32.2079 169.535 32.1235 169.153 32.1282C167.336 32.1282 166.255 33.5598 166.255 37.4059V42.7075H164.046V30.3302H166.255V32.4262C166.937 30.772 168.048 30.1076 169.399 30.1076C169.966 30.1018 170.524 30.2459 171.018 30.5254Z" fill="black"/>
<path d="M171.809 39.3854L173.514 38.7929C173.981 40.2964 175.133 41.1903 176.876 41.1903C178.618 41.1903 179.624 40.478 179.624 39.3923C179.624 36.2106 172.358 38.9471 172.358 33.6728C172.358 31.4296 174.25 30.022 176.999 30.022C179.208 30.022 180.804 31.207 181.318 33.0803L179.576 33.6728C179.402 33.0898 179.039 32.5817 178.545 32.2288C178.051 31.8759 177.454 31.6983 176.849 31.7241C175.352 31.7241 174.394 32.4091 174.394 33.4742C174.394 36.7278 181.683 33.9674 181.683 39.1697C181.683 41.4643 179.696 42.937 176.726 42.937C174.172 42.937 172.331 41.6527 171.816 39.3615" fill="black"/>
<path d="M183.494 36.6149C183.494 32.7448 186.071 30.0323 189.583 30.0323C192.311 30.0323 194.149 31.5119 194.858 33.9024L192.945 34.4949C192.403 32.8202 191.274 31.9057 189.556 31.9057C187.347 31.9057 185.703 33.7551 185.703 36.4916C185.703 39.228 187.347 41.0774 189.583 41.0774C191.35 41.0774 192.502 40.1904 193.215 38.5396L194.981 39.204C194.593 40.325 193.86 41.2927 192.887 41.9665C191.915 42.6403 190.754 42.9851 189.573 42.9508C185.966 42.9508 183.511 40.413 183.511 36.6149" fill="black"/>
<path d="M222.203 30.3302V42.7075H219.993V40.3375C219.627 41.1397 219.034 41.8157 218.287 42.2811C217.541 42.7465 216.674 42.9806 215.796 42.9541C213.12 42.9541 211.33 41.1287 211.33 38.1594V30.3302H213.539V37.923C213.539 39.8444 214.562 41.0773 216.311 41.0773C218.449 41.0773 219.993 39.2279 219.993 35.7551V30.3302H222.203Z" fill="black"/>
<path d="M232.271 41.598C231.682 42.4336 230.676 42.9679 229.326 42.9679C227.239 42.9679 226.059 41.735 226.059 39.5431V32.1934H224.099V30.3303H226.056V27.6178L228.265 26.6794V30.3303H231.555V32.1934H228.265V39.2691C228.265 40.4507 228.783 41.0945 229.666 41.0945C229.935 41.0888 230.199 41.0246 230.44 40.9063C230.682 40.7881 230.895 40.6186 231.064 40.4096L232.271 41.598Z" fill="black"/>
<path d="M234.007 25.3438H236.363V27.7822H234.007V25.3438ZM234.082 30.3234H236.284V42.7076H234.075L234.082 30.3234Z" fill="black"/>
<path d="M250.407 34.8887V42.7075H248.198V35.1729C248.198 33.1488 247.12 31.9159 245.351 31.9159C243.339 31.9159 241.719 33.5701 241.719 36.8477V42.7075H239.51V30.3302H241.719V32.5358C242.096 31.7601 242.688 31.11 243.423 30.6635C244.158 30.217 245.006 29.9931 245.865 30.0186C248.593 30.0186 250.407 31.868 250.407 34.875" fill="black"/>
<path d="M265 30.3303V41.2007C265 45.3105 262.545 47.8825 258.641 47.8825C255.596 47.8825 253.39 46.3071 252.579 43.6426L254.345 42.9782C255.058 44.9235 256.507 45.9852 258.716 45.9852C261.266 45.9852 262.808 44.3344 262.808 41.4986V40.4712C262.338 41.131 261.714 41.6639 260.99 42.0224C260.266 42.3809 259.465 42.554 258.658 42.5261C255.32 42.5261 252.818 39.913 252.818 36.3135C252.818 32.714 255.344 30.0255 258.706 30.0255C259.504 30.0015 260.295 30.1767 261.009 30.5353C261.723 30.8939 262.338 31.4248 262.797 32.0804V30.3303H265ZM262.791 36.3032C262.791 33.738 261.171 31.9126 258.91 31.9126C256.65 31.9126 255.037 33.7311 255.037 36.3032C255.037 38.8752 256.633 40.6664 258.914 40.6664C261.195 40.6664 262.794 38.841 262.794 36.3032" fill="black"/>
<path d="M112.516 54.2355C112.516 57.5165 110.355 59.5611 106.649 59.5611H102.475V66.2943H100.143V49.0332H106.747C110.379 49.0332 112.516 51.0299 112.516 54.2355ZM110.208 54.3109C110.208 52.2902 108.93 51.0573 106.573 51.0573H102.482V57.537H106.754C108.987 57.537 110.215 56.3281 110.215 54.3074" fill="black"/>
<path d="M116.939 49.0332H114.729V66.2909H116.939V49.0332Z" fill="black"/>
<path d="M129.858 58.5988V66.2944H127.795V64.123C127.446 64.8715 126.884 65.5001 126.182 65.9301C125.479 66.3602 124.665 66.5726 123.843 66.5409C121.562 66.5409 119.966 65.171 119.966 63.0134C119.966 61.0407 121.265 59.8317 124.31 59.2666L127.672 58.6262C127.597 56.7254 126.445 55.5918 124.655 55.5918C122.864 55.5918 121.807 56.5542 121.317 58.3522L119.523 57.8111C119.99 55.3212 121.978 53.6191 124.75 53.6191C127.87 53.6191 129.864 55.6158 129.864 58.5988M127.679 60.7222V60.3523L125.101 60.8181C123.09 61.2153 122.183 61.8455 122.183 63.0373C122.183 64.2292 123.066 64.8868 124.266 64.8868C126.257 64.8868 127.675 63.1743 127.675 60.7222" fill="black"/>
<path d="M139.585 65.1847C138.995 66.0204 137.989 66.5546 136.639 66.5546C134.553 66.5546 133.376 65.3217 133.376 63.1298V55.7904H131.412V53.917H133.376V51.2046L135.586 50.2662V53.917H138.873V55.7904H135.586V62.8661C135.586 64.0477 136.101 64.6915 136.984 64.6915C137.251 64.6881 137.514 64.6267 137.755 64.5114C137.997 64.3961 138.21 64.2298 138.382 64.0237L139.585 65.1847Z" fill="black"/>
<path d="M148.542 65.1847C147.952 66.0204 146.946 66.5546 145.596 66.5546C143.51 66.5546 142.33 65.3217 142.33 63.1298V55.7904H140.366V53.917H142.33V51.2046L144.539 50.2662V53.917H147.829V55.7904H144.539V62.8661C144.539 64.0477 145.054 64.6915 145.941 64.6915C146.208 64.6879 146.471 64.6264 146.712 64.5111C146.954 64.3958 147.167 64.2296 147.339 64.0237L148.542 65.1847Z" fill="black"/>
<path d="M153.554 53.917H156.524V55.7904H153.554V66.2944H151.345V55.7904H149.381V53.917H151.345V52.3622C151.345 50.2182 152.77 48.7866 154.904 48.7866C155.457 48.7669 156.004 48.9048 156.482 49.1841C156.96 49.4635 157.349 49.8731 157.605 50.3655L156.108 51.2765C155.983 51.0767 155.809 50.9128 155.602 50.8006C155.395 50.6884 155.163 50.6317 154.928 50.6361C154.096 50.6361 153.564 51.2525 153.564 52.2628L153.554 53.917Z" fill="black"/>
<path d="M179.566 54.1122L178.806 55.9616C178.461 55.7944 178.083 55.71 177.701 55.7151C175.884 55.7151 174.803 57.1466 174.803 60.9927V66.2943H172.597V53.917H174.803V56.013C175.485 54.3588 176.596 53.6944 177.946 53.6944C178.513 53.6881 179.072 53.8322 179.566 54.1122Z" fill="black"/>
<path d="M200.334 58.4515V66.2944H198.124V58.6502C198.124 56.7254 197.19 55.4925 195.496 55.4925C193.45 55.4925 192.011 57.3179 192.011 60.8455V66.2944H189.802V58.6502C189.802 56.7254 188.895 55.4925 187.2 55.4925C185.154 55.4925 183.692 57.3179 183.692 60.8455V66.2944H181.482V53.917H183.692V56.2083C183.993 55.4175 184.535 54.742 185.24 54.2773C185.945 53.8127 186.777 53.5824 187.619 53.6191C189.556 53.6191 190.981 54.5575 191.643 56.2836C192.005 55.47 192.6 54.7826 193.351 54.3083C194.102 53.834 194.977 53.5942 195.864 53.6191C198.639 53.6191 200.334 55.4445 200.334 58.4515Z" fill="black"/>
<path d="M100.539 19.7476V1.8186H111.609V4.14748H103.232V9.6272H110.812V11.9458H103.232V19.7476H100.539Z" fill="#0050FF"/>
<path d="M123.993 6.52777C123.96 6.13986 123.839 5.76465 123.64 5.43057C123.441 5.0965 123.169 4.81232 122.844 4.59959C122.084 4.11705 121.196 3.87815 120.297 3.91463C119.648 3.8987 119.001 4.01521 118.398 4.25711C117.907 4.4533 117.478 4.78005 117.157 5.20236C116.861 5.59668 116.705 6.07881 116.714 6.57229C116.704 6.96198 116.809 7.34584 117.017 7.67509C117.22 7.98984 117.49 8.25537 117.808 8.45252C118.143 8.66157 118.498 8.8349 118.868 8.96967C119.247 9.10666 119.608 9.21626 119.956 9.31215L121.702 9.76765C122.297 9.91597 122.882 10.1059 123.451 10.3362C124.051 10.5671 124.616 10.8794 125.132 11.2643C125.642 11.6555 126.065 12.1503 126.373 12.7164C126.7 13.3575 126.86 14.0717 126.837 14.7919C126.853 15.7516 126.582 16.6941 126.059 17.4975C125.496 18.321 124.712 18.968 123.799 19.364C122.673 19.8486 121.456 20.0823 120.232 20.049C119.044 20.0776 117.862 19.8596 116.761 19.4085C115.844 19.0296 115.051 18.4009 114.47 17.5934C113.898 16.769 113.575 15.7962 113.539 14.7919H116.267C116.297 15.3851 116.519 15.9525 116.898 16.4084C117.279 16.8446 117.767 17.1738 118.313 17.3639C118.926 17.575 119.571 17.6793 120.219 17.6721C120.918 17.6867 121.613 17.5633 122.264 17.3091C122.816 17.0976 123.302 16.7431 123.673 16.2817C124.015 15.8475 124.197 15.3078 124.187 14.7542C124.207 14.2778 124.046 13.8117 123.737 13.4493C123.4 13.0826 122.987 12.795 122.527 12.6068C121.968 12.37 121.392 12.1743 120.805 12.0212L118.698 11.4424C117.443 11.1499 116.274 10.5631 115.288 9.72998C114.874 9.34957 114.547 8.88272 114.331 8.36212C114.115 7.84151 114.014 7.27974 114.037 6.71614C114.018 5.74682 114.312 4.79736 114.876 4.01052C115.459 3.22058 116.24 2.60013 117.14 2.21249C118.156 1.77342 119.253 1.55516 120.358 1.57205C121.459 1.55115 122.551 1.76963 123.56 2.21249C124.432 2.59234 125.189 3.19734 125.752 3.966C126.289 4.71229 126.582 5.60728 126.591 6.52777H123.993Z" fill="#0050FF"/>
<path d="M130.052 19.7475V1.81857H136.414C137.61 1.77472 138.797 2.03632 139.865 2.57889C140.738 3.05136 141.45 3.77534 141.91 4.65775C142.374 5.57623 142.608 6.59411 142.592 7.62365C142.61 8.6556 142.376 9.67616 141.91 10.5964C141.451 11.48 140.738 12.2051 139.865 12.6787C138.799 13.2249 137.613 13.489 136.418 13.4459H132.03V11.1512H136.162C136.901 11.1819 137.635 11.024 138.296 10.6923C138.818 10.4098 139.239 9.97028 139.5 9.43539C139.763 8.86852 139.893 8.24888 139.882 7.62365C139.894 7.00168 139.763 6.38527 139.5 5.8222C139.239 5.29254 138.816 4.86057 138.293 4.58926C137.618 4.26339 136.873 4.10931 136.124 4.14061H132.742V19.7475H130.052Z" fill="#0050FF"/>
<path d="M35.2654 35.0017C35.2654 15.672 48.3855 0 64.5674 0C80.7493 0 93.8728 15.672 93.8728 35.0017C93.8728 54.3314 80.7527 70 64.5674 70C48.3821 70 35.2654 54.3314 35.2654 35.0017Z" fill="#FFFF64"/>
<path d="M51.9826 54.8588C47.5945 54.8588 44.0349 46.1221 44.0349 35.3373C44.0349 24.5525 47.5945 15.8158 51.9826 15.8158H76.9988C81.3869 15.8158 84.9465 24.5559 84.9465 35.3373C84.9465 46.1186 81.3869 54.8588 76.9988 54.8588H51.9826Z" fill="#0050FF"/>
<path d="M85.6897 35.3408C85.6897 46.5399 81.0902 55.6191 75.4166 55.6191C69.7431 55.6191 65.147 46.5399 65.147 35.3408C65.147 24.1416 69.7465 15.0692 75.4166 15.0692C81.0868 15.0692 85.6897 24.1484 85.6897 35.3476" fill="#000053"/>
<path d="M72.6822 15.7987C68.3383 18.1618 65.147 26.015 65.147 35.3408C65.147 44.6666 68.3383 52.5197 72.6822 54.8862C77.0396 52.5402 80.2514 44.6905 80.2514 35.3408C80.2514 25.991 77.0567 18.1516 72.6822 15.7987Z" fill="white"/>
<path d="M24.3342 54.1945C20.0859 54.1945 16.6422 45.742 16.6422 35.3134C16.6422 24.8848 20.0859 16.4392 24.3342 16.4392H52.685C56.9333 16.4392 60.377 24.8917 60.377 35.3237C60.377 45.7557 56.9333 54.2048 52.685 54.2048L24.3342 54.1945Z" fill="#0050FF"/>
<path d="M61.093 35.3133C61.093 46.146 56.6435 54.9307 51.1575 54.9307C45.6714 54.9307 41.2185 46.146 41.2185 35.3133C41.2185 24.4806 45.651 15.6925 51.1575 15.6925C56.6639 15.6925 61.093 24.4772 61.093 35.3133Z" fill="#000053"/>
<path d="M48.498 16.4083C44.3008 18.7064 41.2185 26.2958 41.2185 35.3134C41.2185 44.3309 44.2871 51.9169 48.498 54.215C52.7088 51.9375 55.8081 44.348 55.8081 35.3134C55.8081 26.2787 52.7088 18.6858 48.498 16.4083Z" fill="white"/>
<path d="M11.821 35.9298C11.821 30.9638 12.6018 26.4465 13.8668 23.0765H4.53133C3.89978 23.0725 3.28312 23.2691 2.7694 23.6381C2.25568 24.0072 1.87114 24.5298 1.67069 25.1314C-0.515707 31.929 -0.555009 39.2395 1.55817 46.0605C1.75225 46.672 2.13582 47.2052 2.6529 47.5822C3.16998 47.9593 3.7935 48.1605 4.43246 48.1565H13.6383C12.4961 44.8618 11.8074 40.5945 11.8074 35.9298" fill="#000053"/>
</g>
<defs>
<clipPath id="clip0_2502_32794">
<rect width="265" height="70" fill="white"/>
</clipPath>
</defs>
</svg>
